<svg width="49" height="48" viewBox="0 0 49 48" fill="none" xmlns="http://www.w3.org/2000/svg">
<g clip-path="url(#clip0_2001_4861)">
<path fill-rule="evenodd" clip-rule="evenodd" d="M24.5967 0C11.2874 0 0.5 10.7815 0.5 24.0845C0.5 25.7788 0.676959 27.4316 1.01006 29.0275C3.12734 28.452 5.35496 28.1441 7.65485 28.1441C11.341 28.1441 14.8412 28.9323 17.9998 30.3504C22.1338 27.403 27.1987 25.6691 32.6652 25.6691C36.0878 25.6691 39.3522 26.3502 42.3275 27.5826C42.3433 27.5886 42.3578 27.5948 42.3733 27.6011C42.4964 27.6617 42.583 27.7878 42.583 27.9368C42.583 28.1427 42.4152 28.311 42.2071 28.311C42.1996 28.311 41.8412 28.2833 41.6696 28.272C41.0772 28.2295 40.4746 28.2069 39.8724 28.2069C31.4235 28.2069 23.8314 31.3095 19.2272 37.6034C19.1537 37.703 19.0095 37.9061 19.0077 37.9061C18.9405 37.9909 18.8358 38.0453 18.7198 38.0453C18.6246 38.0453 18.5402 38.0102 18.4756 37.9507C18.464 37.9436 18.453 37.9326 18.4435 37.9222C14.0751 33.8149 8.32075 32.1893 1.86185 32.0759C5.15956 41.4495 14.0894 48.1722 24.5952 48.1722C37.9044 48.1722 48.6948 37.3874 48.6948 24.086C48.6951 10.7821 37.9047 0.000594498 24.5955 0.000594498L24.5967 0ZM43.4633 14.4141C43.3792 14.4055 43.2349 14.382 43.1415 14.3695C42.8739 14.3273 42.602 14.2931 42.329 14.2669C37.4143 13.8035 32.8415 15.168 29.8573 18.6249C29.7324 18.7527 29.6226 18.7587 29.4995 18.6314C27.127 15.9413 23.7484 14.7475 19.8708 14.3802C18.4893 14.249 17.1322 14.3174 15.8325 14.5592C15.8274 14.5592 15.8215 14.5592 15.8156 14.5619C15.8031 14.5619 15.7894 14.5652 15.7745 14.5652C15.6356 14.5652 15.5247 14.4525 15.5247 14.3139C15.5247 14.2333 15.5645 14.1625 15.6222 14.1179C15.646 14.1045 15.6698 14.0893 15.693 14.0783C18.1122 12.8125 20.9084 12.2067 23.827 12.4833C25.9436 12.6838 27.9128 13.3256 29.6485 14.3109C32.184 12.842 35.1872 12.121 38.327 12.4176C40.1046 12.5859 41.7776 13.068 43.2971 13.7991C43.3899 13.8466 43.4865 13.8921 43.5799 13.943C43.6727 13.9891 43.7146 14.0688 43.7146 14.1652C43.7146 14.3032 43.6257 14.4337 43.4633 14.4141Z" fill="#0E85CD"/>
<path fill-rule="evenodd" clip-rule="evenodd" d="M43.5777 13.9427C43.4843 13.8918 43.3876 13.8463 43.2948 13.7987C41.7754 13.0677 40.1024 12.5859 38.3248 12.4172C35.185 12.1207 32.182 12.8416 29.6463 14.3106C27.9106 13.3255 25.9414 12.6834 23.8247 12.483C20.9062 12.2064 18.11 12.8122 15.6908 14.078C15.6676 14.089 15.6435 14.1042 15.62 14.1175C15.5623 14.1621 15.5225 14.2332 15.5225 14.3135C15.5225 14.4521 15.6334 14.5648 15.7723 14.5648C15.7869 14.5648 15.8005 14.5616 15.8133 14.5616C15.8193 14.5589 15.8252 14.5589 15.8303 14.5589C17.13 14.3174 18.4871 14.2487 19.8686 14.3799C23.7465 14.7472 27.1251 15.941 29.4973 18.6311C29.6204 18.7584 29.7302 18.7521 29.8551 18.6245C32.839 15.1677 37.4117 13.8032 42.3268 14.2665C42.5998 14.2927 42.8716 14.3269 43.1393 14.3691C43.2327 14.3816 43.3769 14.4051 43.4611 14.4138C43.6238 14.4331 43.7127 14.3028 43.7127 14.1645C43.7124 14.0685 43.6708 13.9888 43.5777 13.9427Z" fill="white"/>
<path fill-rule="evenodd" clip-rule="evenodd" d="M18.4755 37.9496C18.5401 38.0091 18.6245 38.0442 18.7197 38.0442C18.8357 38.0442 18.9404 37.9898 19.0076 37.905C19.0094 37.905 19.1536 37.7019 19.2271 37.6022C23.8313 31.3084 31.4231 28.2058 39.8723 28.2058C40.4745 28.2058 41.0771 28.2284 41.6695 28.2709C41.8409 28.2822 42.1992 28.3099 42.207 28.3099C42.4148 28.3099 42.5829 28.1418 42.5829 27.9357C42.5829 27.7867 42.4963 27.6606 42.3732 27.6C42.3575 27.5937 42.3429 27.5875 42.3274 27.5815C39.3521 26.349 36.0877 25.668 32.6651 25.668C27.198 25.668 22.1352 27.4019 17.9985 30.3501C14.84 28.9321 11.3397 28.1439 7.65357 28.1439C5.35368 28.1439 3.12607 28.4518 1.00879 29.0272C1.2262 30.0697 1.51469 31.0859 1.86236 32.0742C8.32157 32.1876 14.0756 33.8135 18.444 37.9205C18.4529 37.9315 18.4639 37.9425 18.4755 37.9496Z" fill="white"/>
</g>
<defs>
<clipPath id="clip0_2001_4861">
<rect width="48" height="48" fill="white" transform="translate(0.5)"/>
</clipPath>
</defs>
</svg>
