<svg width="79" height="79" viewBox="0 0 79 79" fill="none" xmlns="http://www.w3.org/2000/svg">
<rect x="16.5645" width="64" height="64" rx="10.6667" transform="rotate(15 16.5645 0)" fill="#262728"/>
<rect x="17.0359" y="0.816497" width="62.6667" height="62.6667" rx="10" transform="rotate(15 17.0359 0.816497)" stroke="#C2CCF6" stroke-opacity="0.12" stroke-width="1.33333"/>
<path d="M46.6798 38.9621L45.5652 43.122C44.6369 46.5864 42.8732 47.6047 39.4088 46.6764L35.2488 45.5617C31.7844 44.6334 30.7662 42.8698 31.6945 39.4053L32.8091 35.2454C33.7374 31.781 35.501 30.7627 38.9655 31.691L43.1254 32.8057C46.5993 33.7503 47.6081 35.4976 46.6798 38.9621Z" stroke="#A1D8EE" stroke-width="1.5" stroke-linecap="round" stroke-linejoin="round"/>
<path d="M54.2208 34.6191L53.1062 38.7791C52.1779 42.2435 50.4142 43.2617 46.9498 42.3334L45.8551 42.0401L46.6764 38.9749C47.6047 35.5105 46.5865 33.7468 43.122 32.8185L40.0568 31.9972L40.3501 30.9025C41.2784 27.438 43.0421 26.4198 46.5065 27.3481L50.6664 28.4628C54.1309 29.3911 55.1491 31.1547 54.2208 34.6191Z" stroke="#A1D8EE" stroke-width="1.5" stroke-linecap="round" stroke-linejoin="round"/>
<path d="M24.163 43.7646L25.2776 39.6046C26.2059 36.1402 27.9695 35.122 31.434 36.0503L32.5287 36.3436L31.7074 39.4088C30.7791 42.8732 31.7973 44.6369 35.2618 45.5652L38.327 46.3865L38.0337 47.4812C37.1054 50.9457 35.3417 51.9639 31.8773 51.0356L27.7174 49.9209C24.2529 48.9926 23.2347 47.229 24.163 43.7646Z" stroke="#A1D8EE" stroke-width="1.5" stroke-linecap="round" stroke-linejoin="round"/>
</svg>
