<svg width="124" height="56" viewBox="0 0 124 56" fill="none" xmlns="http://www.w3.org/2000/svg">
<g filter="url(#filter0_d_1_6445)">
<rect x="14.0918" y="12" width="98" height="24" rx="6" transform="rotate(5 14.0918 12)" fill="#404142" shape-rendering="crispEdges"/>
<path d="M25.8945 29.1934C25.3851 29.1489 24.9399 29.022 24.559 28.8128C24.1804 28.6038 23.8903 28.3337 23.6888 28.0024C23.4873 27.671 23.3973 27.3007 23.4188 26.8915L24.749 27.0079C24.7437 27.2047 24.7936 27.3813 24.8987 27.5379C25.004 27.692 25.151 27.8178 25.3398 27.9151C25.5285 28.0124 25.7443 28.0717 25.9873 28.0929C26.2467 28.1156 26.4805 28.0909 26.6889 28.0189C26.8974 27.9444 27.0653 27.8308 27.1928 27.678C27.3202 27.5251 27.3921 27.3425 27.4083 27.13C27.4298 26.9109 27.3901 26.7126 27.2892 26.535C27.1883 26.3574 27.0323 26.2119 26.8212 26.0984C26.6125 25.9851 26.3548 25.915 26.0483 25.8882L25.4079 25.8321L25.4965 24.8204L26.1368 24.8764C26.3891 24.8985 26.6135 24.8741 26.8098 24.8034C27.0084 24.7328 27.1689 24.6233 27.2912 24.4748C27.4137 24.3239 27.483 24.1434 27.499 23.9333C27.5193 23.7283 27.4889 23.5462 27.4078 23.387C27.3292 23.2257 27.2087 23.0951 27.0464 22.9954C26.8863 22.8958 26.6931 22.8362 26.4667 22.8163C26.245 22.797 26.0363 22.8191 25.8407 22.8828C25.645 22.9465 25.4828 23.0475 25.3543 23.186C25.2259 23.3221 25.1493 23.4913 25.1245 23.6935L23.8616 23.583C23.9065 23.1782 24.0544 22.8323 24.3053 22.5453C24.5587 22.2561 24.8816 22.042 25.274 21.9028C25.6667 21.7613 26.0976 21.7111 26.567 21.7521C27.0504 21.7944 27.4623 21.922 27.8025 22.1347C28.1453 22.3453 28.4013 22.6113 28.5704 22.9327C28.7395 23.254 28.808 23.5987 28.7758 23.9666C28.7425 24.3748 28.5923 24.7062 28.3252 24.9609C28.0605 25.2158 27.7287 25.3686 27.3298 25.4192L27.3248 25.4758C27.8281 25.5912 28.2019 25.814 28.4463 26.1443C28.6932 26.4725 28.7957 26.8629 28.7538 27.3155C28.7183 27.7211 28.5709 28.0742 28.3117 28.3747C28.0551 28.6731 27.7172 28.8954 27.298 29.0418C26.8812 29.1883 26.4134 29.2388 25.8945 29.1934ZM31.3601 29.6823C31.0158 29.6522 30.711 29.5637 30.4458 29.417C30.1832 29.268 29.9823 29.0651 29.8432 28.8081C29.7064 28.5514 29.6536 28.245 29.6848 27.8889C29.7116 27.5823 29.7904 27.3337 29.9211 27.1431C30.0519 26.9526 30.2204 26.8057 30.4266 26.7025C30.6329 26.5994 30.8614 26.5279 31.112 26.488C31.3652 26.446 31.6251 26.4224 31.8917 26.4172C32.213 26.4121 32.4738 26.4052 32.6742 26.3966C32.8748 26.3856 33.0224 26.3557 33.117 26.307C33.2141 26.2561 33.268 26.1693 33.2788 26.0466L33.2806 26.0254C33.3039 25.7589 33.243 25.5456 33.0978 25.3856C32.9525 25.2255 32.7313 25.1325 32.4342 25.1065C32.1205 25.0791 31.8657 25.1257 31.6698 25.2464C31.4762 25.3673 31.3395 25.5181 31.2595 25.6989L30.0786 25.4245C30.2018 25.1025 30.3816 24.8402 30.618 24.6375C30.8546 24.4324 31.1346 24.2882 31.4579 24.2048C31.7815 24.119 32.1331 24.0928 32.5128 24.126C32.7746 24.1489 33.0325 24.2023 33.2866 24.2864C33.5407 24.3704 33.7688 24.4925 33.9711 24.6528C34.1735 24.8107 34.329 25.0156 34.4377 25.2676C34.5487 25.5197 34.5885 25.8261 34.5569 26.187L34.2387 29.8237L33.0076 29.7159L33.0729 28.9695L33.0305 28.9658C32.9395 29.1099 32.8174 29.2418 32.6644 29.3615C32.5139 29.4791 32.329 29.5686 32.1097 29.6303C31.893 29.6897 31.6431 29.7071 31.3601 29.6823ZM31.775 28.7704C32.0321 28.7929 32.2594 28.7617 32.4569 28.6768C32.6547 28.5895 32.8117 28.4654 32.9279 28.3045C33.0466 28.1438 33.1146 27.9632 33.1322 27.7627L33.1882 27.1224C33.1452 27.1519 33.0741 27.1766 32.975 27.1964C32.8782 27.2165 32.7699 27.2319 32.6501 27.2428C32.5303 27.2538 32.4119 27.2624 32.2949 27.2688C32.1779 27.2752 32.0764 27.2806 31.9905 27.285C31.7972 27.2942 31.6225 27.3217 31.4664 27.3674C31.3103 27.4132 31.184 27.4853 31.0874 27.5838C30.9911 27.6799 30.9357 27.8106 30.9213 27.9756C30.9006 28.2115 30.9711 28.3971 31.1328 28.5324C31.2944 28.6678 31.5085 28.7471 31.775 28.7704ZM39.596 24.817L39.5041 25.8677L37.1622 25.6628L36.7787 30.0459L35.5264 29.9363L36.0018 24.5025L39.596 24.817ZM39.9692 32.3783L40.6228 24.9068L41.8822 25.017L41.8036 25.9156L41.8779 25.9221C41.9555 25.7958 42.0609 25.6636 42.1942 25.5255C42.3277 25.3851 42.5017 25.2708 42.7161 25.1826C42.9308 25.0921 43.1973 25.0608 43.5157 25.0886C43.9355 25.1253 44.3047 25.2658 44.6231 25.5099C44.9442 25.7519 45.1855 26.0902 45.3471 26.525C45.5112 26.9576 45.5669 27.4758 45.5141 28.0796C45.4619 28.6762 45.3196 29.1747 45.0874 29.575C44.8551 29.9754 44.5607 30.2704 44.2043 30.4603C43.8479 30.6501 43.4562 30.7263 43.0293 30.689C42.718 30.6617 42.4643 30.5873 42.2682 30.4655C42.0721 30.3438 41.9179 30.2044 41.8057 30.0472C41.6961 29.8879 41.6129 29.7392 41.556 29.6012L41.503 29.5965L41.2498 32.4903L39.9692 32.3783ZM41.641 27.7336C41.6103 28.085 41.6329 28.3971 41.7088 28.6699C41.7871 28.9429 41.9141 29.162 42.0898 29.3271C42.268 29.49 42.4927 29.5833 42.7639 29.607C43.047 29.6318 43.2906 29.5771 43.4948 29.4428C43.6993 29.3063 43.8614 29.1101 43.9812 28.8544C44.1036 28.5966 44.1796 28.2979 44.2093 27.9583C44.2388 27.621 44.2167 27.3173 44.1429 27.047C44.0691 26.7768 43.9432 26.559 43.7651 26.3937C43.5871 26.2284 43.3554 26.1333 43.07 26.1083C42.7965 26.0844 42.5579 26.136 42.3543 26.2632C42.1506 26.3903 41.988 26.5793 41.8662 26.83C41.7468 27.081 41.6717 27.3822 41.641 27.7336ZM46.8065 32.9765C46.632 32.9612 46.4717 32.9329 46.3256 32.8916C46.1816 32.8529 46.0676 32.812 45.9834 32.769L46.3678 31.7974C46.5494 31.8679 46.7134 31.9084 46.8598 31.9188C47.0063 31.9293 47.1388 31.8945 47.2575 31.8146C47.3783 31.7373 47.4866 31.5994 47.5824 31.401L47.7178 31.117L46.2326 25.3976L47.5911 25.5165L48.4844 29.7297L48.541 29.7346L50.1558 25.7408L51.5178 25.86L48.8092 31.7614C48.6826 32.0403 48.5267 32.275 48.3413 32.4655C48.1557 32.6584 47.9366 32.7985 47.6842 32.8857C47.434 32.9755 47.1414 33.0058 46.8065 32.9765ZM51.7582 29.8557L53.0282 29.9668C53.0223 30.1706 53.0993 30.3354 53.2595 30.4611C53.4196 30.5868 53.6352 30.6615 53.9064 30.6853C54.1824 30.7094 54.4199 30.6696 54.6191 30.5658C54.8209 30.4599 54.9326 30.2831 54.9543 30.0355C54.9671 29.8893 54.9418 29.7575 54.8783 29.6403C54.8151 29.5207 54.7202 29.4244 54.5935 29.3516C54.4668 29.2787 54.3138 29.2344 54.1346 29.2187L53.3032 29.146L53.3828 28.2368L54.2141 28.3096C54.4806 28.3329 54.6876 28.2892 54.8351 28.1785C54.985 28.0681 55.0681 27.9197 55.0844 27.7334C55.1019 27.5329 55.0431 27.3638 54.9078 27.226C54.7748 27.0884 54.581 27.0085 54.3263 26.9862C54.0716 26.9639 53.8543 27.0031 53.6744 27.1038C53.4968 27.2047 53.3966 27.3457 53.3736 27.5267L52.1107 27.4162C52.143 27.1006 52.2614 26.8341 52.4658 26.6167C52.6725 26.3995 52.9384 26.2398 53.2634 26.1375C53.5908 26.0354 53.9526 26.0017 54.3488 26.0364C54.7733 26.0735 55.1345 26.1693 55.4323 26.3237C55.7301 26.4781 55.9527 26.677 56.1002 26.9204C56.2478 27.1614 56.3082 27.4353 56.2814 27.7419C56.2556 28.0367 56.1423 28.2727 55.9414 28.45C55.7407 28.6249 55.4811 28.7401 55.1626 28.7954L55.1576 28.852C55.3712 28.8825 55.5592 28.9608 55.7217 29.0867C55.8844 29.2102 56.0083 29.3696 56.0934 29.5648C56.1785 29.76 56.2103 29.9802 56.1889 30.2255C56.1598 30.558 56.0391 30.8374 55.8268 31.0636C55.6147 31.2874 55.3356 31.4496 54.9893 31.55C54.6454 31.6506 54.2589 31.6821 53.8296 31.6446C53.4122 31.6081 53.0439 31.5129 52.7246 31.359C52.4079 31.2029 52.1633 30.9974 51.9908 30.7422C51.8182 30.4871 51.7407 30.1916 51.7582 29.8557ZM57.0652 31.8207L57.5406 26.3869L58.8213 26.499L58.6294 28.6923L59.0963 28.7331L60.9226 26.6828L62.465 26.8178L60.2187 29.309L62.0108 32.2534L60.4614 32.1178L59.1512 29.9393L58.5251 29.8845L58.3459 31.9328L57.0652 31.8207ZM64.291 32.5634C63.9466 32.5333 63.6419 32.4448 63.3767 32.298C63.114 32.1491 62.9131 31.9462 62.774 31.6892C62.6373 31.4325 62.5845 31.126 62.6156 30.7699C62.6424 30.4633 62.7212 30.2148 62.852 30.0242C62.9827 29.8336 63.1512 29.6868 63.3575 29.5836C63.5638 29.4805 63.7922 29.409 64.0429 29.3691C64.2961 29.3271 64.556 29.3035 64.8226 29.2983C65.1439 29.2931 65.4047 29.2862 65.6051 29.2776C65.8057 29.2667 65.9532 29.2368 66.0478 29.188C66.1449 29.1371 66.1989 29.0504 66.2096 28.9277L66.2115 28.9065C66.2348 28.64 66.1738 28.4267 66.0286 28.2667C65.8834 28.1066 65.6622 28.0136 65.365 27.9876C65.0514 27.9602 64.7966 28.0068 64.6006 28.1275C64.4071 28.2484 64.2703 28.3992 64.1903 28.5799L63.0095 28.3055C63.1327 27.9836 63.3125 27.7213 63.5489 27.5186C63.7854 27.3135 64.0654 27.1693 64.3888 27.0859C64.7123 27.0001 65.064 26.9738 65.4437 27.0071C65.7055 27.03 65.9634 27.0834 66.2175 27.1674C66.4715 27.2515 66.6997 27.3736 66.9019 27.5339C67.1043 27.6918 67.2599 27.8967 67.3686 28.1486C67.4796 28.4007 67.5193 28.7072 67.4877 29.0681L67.1696 32.7047L65.9385 32.597L66.0038 31.8506L65.9613 31.8469C65.8703 31.991 65.7483 32.1229 65.5952 32.2426C65.4447 32.3601 65.2598 32.4497 65.0405 32.5113C64.8238 32.5708 64.574 32.5882 64.291 32.5634ZM64.7058 31.6515C64.9629 31.674 65.1902 31.6428 65.3878 31.5579C65.5855 31.4706 65.7425 31.3465 65.8588 31.1856C65.9774 31.0248 66.0455 30.8442 66.063 30.6438L66.1191 30.0035C66.0761 30.033 66.005 30.0576 65.9058 30.0775C65.809 30.0975 65.7007 30.113 65.5809 30.1239C65.4612 30.1348 65.3428 30.1435 65.2258 30.1499C65.1088 30.1563 65.0073 30.1617 64.9213 30.166C64.728 30.1753 64.5533 30.2028 64.3973 30.2485C64.2412 30.2943 64.1148 30.3664 64.0183 30.4649C63.9219 30.561 63.8666 30.6916 63.8521 30.8567C63.8315 31.0926 63.902 31.2782 64.0636 31.4135C64.2253 31.5488 64.4393 31.6282 64.7058 31.6515ZM73.2892 33.3471C72.7468 33.2996 72.2914 33.1398 71.9231 32.8675C71.5572 32.5955 71.2876 32.2404 71.1145 31.8022C70.9438 31.3619 70.8826 30.867 70.9307 30.3175C70.9789 29.7656 71.1277 29.2879 71.3769 28.8843C71.6263 28.4784 71.9547 28.1744 72.3621 27.9724C72.7721 27.7682 73.2424 27.6894 73.773 27.7358C74.214 27.7744 74.5972 27.8899 74.9226 28.0823C75.2506 28.2726 75.503 28.524 75.6801 28.8366C75.8573 29.1468 75.943 29.4989 75.937 29.8928L74.713 29.7857C74.6864 29.5196 74.5875 29.2911 74.4165 29.1003C74.248 28.9073 74.0093 28.7973 73.7003 28.7703C73.4385 28.7474 73.2024 28.798 72.9919 28.9222C72.7816 29.044 72.6096 29.231 72.4759 29.4831C72.3445 29.7354 72.2628 30.0443 72.2308 30.4098C72.1984 30.7801 72.2248 31.1032 72.31 31.3792C72.3954 31.6529 72.5296 31.8702 72.7128 32.0312C72.8985 32.19 73.1246 32.2811 73.3911 32.3044C73.5798 32.3209 73.7515 32.3003 73.9063 32.2425C74.0636 32.1826 74.199 32.0887 74.3124 31.9608C74.4258 31.8329 74.5099 31.6727 74.5647 31.4803L75.7888 31.5873C75.7245 31.9691 75.5814 32.3 75.3597 32.58C75.1382 32.8577 74.8514 33.0655 74.4995 33.2034C74.1478 33.339 73.7444 33.3869 73.2892 33.3471ZM76.6778 33.5366L77.1532 28.1028L79.435 28.3024C80.0788 28.3588 80.5758 28.5318 80.926 28.8214C81.2785 29.1113 81.4346 29.4862 81.3944 29.9461C81.3677 30.2503 81.2398 30.4898 81.0107 30.6647C80.7841 30.8373 80.4863 30.9408 80.1173 30.9751C80.4006 31.0236 80.6443 31.1174 80.8484 31.2565C81.0548 31.3957 81.2108 31.5686 81.3163 31.7751C81.4218 31.9816 81.4635 32.2121 81.4412 32.4669C81.415 32.7664 81.3132 33.0201 81.1358 33.2279C80.9609 33.4336 80.7184 33.5847 80.4081 33.6812C80.1004 33.7754 79.7343 33.804 79.3098 33.7669L76.6778 33.5366ZM77.9653 32.6333L79.398 32.7586C79.6339 32.7793 79.8239 32.7401 79.968 32.641C80.1123 32.5395 80.1929 32.3921 80.2099 32.1987C80.2295 31.9747 80.1776 31.7931 80.0543 31.654C79.9312 31.5125 79.7518 31.4314 79.5159 31.4108L78.0832 31.2855L77.9653 32.6333ZM78.1556 30.4577L79.2629 30.5545C79.4374 30.5698 79.5894 30.5581 79.7187 30.5195C79.8482 30.4786 79.95 30.415 80.0241 30.3288C80.0984 30.2403 80.1412 30.1311 80.1526 30.0014C80.1689 29.8151 80.105 29.6622 79.961 29.5426C79.8193 29.4233 79.6141 29.3519 79.3452 29.3283L78.2627 29.2336L78.1556 30.4577ZM84.7299 34.348C84.1993 34.3016 83.7496 34.1446 83.3809 33.8771C83.0122 33.6095 82.7389 33.2565 82.561 32.8179C82.3854 32.3795 82.3222 31.8797 82.3713 31.3184C82.4204 30.7571 82.5696 30.2747 82.8188 29.8711C83.0703 29.4677 83.4009 29.1663 83.8105 28.9669C84.22 28.7674 84.6901 28.6909 85.2208 28.7373C85.7514 28.7838 86.2011 28.9407 86.5698 29.2083C86.9385 29.4758 87.2105 29.8299 87.3859 30.2706C87.5635 30.7116 87.6278 31.2127 87.5787 31.774C87.5296 32.3353 87.3794 32.8165 87.128 33.2175C86.8791 33.6187 86.5498 33.919 86.1402 34.1185C85.7306 34.3179 85.2605 34.3944 84.7299 34.348ZM84.8267 33.3227C85.1145 33.3479 85.3619 33.2899 85.5691 33.1488C85.7766 33.0054 85.9392 32.8033 86.0571 32.5427C86.1773 32.2823 86.2518 31.9871 86.2807 31.6569C86.3098 31.3243 86.2878 31.0194 86.2146 30.7421C86.144 30.4626 86.019 30.2342 85.8396 30.0569C85.6603 29.8797 85.4267 29.7784 85.139 29.7532C84.8442 29.7275 84.5919 29.7862 84.3821 29.9294C84.1747 30.0729 84.0108 30.276 83.8904 30.5387C83.7725 30.7994 83.699 31.0959 83.67 31.4285C83.6411 31.7586 83.662 32.0623 83.7328 32.3394C83.806 32.6167 83.9323 32.844 84.1116 33.0213C84.2936 33.1965 84.5319 33.2969 84.8267 33.3227ZM89.8161 32.9393L92.3155 29.4293L93.6315 29.5445L93.1561 34.9783L91.9179 34.8699L92.242 31.166L89.7493 34.6802L88.4298 34.5648L88.9052 29.131L90.1398 29.239L89.8161 32.9393ZM95.9937 29.7511L96.9149 31.8529L98.2047 29.9446L99.5596 30.0631L97.684 32.6367L99.1125 35.4994L97.7647 35.3815L96.7861 33.3246L95.4759 35.1812L94.1174 35.0624L96.0107 32.4903L94.6353 29.6323L95.9937 29.7511Z" fill="#FAFDFF"/>
</g>
<defs>
<filter id="filter0_d_1_6445" x="0" y="0" width="123.719" height="56.45" filterUnits="userSpaceOnUse" color-interpolation-filters="sRGB">
<feFlood flood-opacity="0" result="BackgroundImageFix"/>
<feColorMatrix in="SourceAlpha" type="matrix" values="0 0 0 0 0 0 0 0 0 0 0 0 0 0 0 0 0 0 127 0" result="hardAlpha"/>
<feOffset/>
<feGaussianBlur stdDeviation="6"/>
<feComposite in2="hardAlpha" operator="out"/>
<feColorMatrix type="matrix" values="0 0 0 0 0 0 0 0 0 0 0 0 0 0 0 0 0 0 0.12 0"/>
<feBlend mode="normal" in2="BackgroundImageFix" result="effect1_dropShadow_1_6445"/>
<feBlend mode="normal" in="SourceGraphic" in2="effect1_dropShadow_1_6445" result="shape"/>
</filter>
</defs>
</svg>
