<svg width="167" height="67" viewBox="0 0 167 67" fill="none" xmlns="http://www.w3.org/2000/svg">
<g filter="url(#filter0_d_5_1257)">
<rect x="12" y="31.6233" width="141" height="24" rx="6" transform="rotate(-8 12 31.6233)" fill="#404142" shape-rendering="crispEdges"/>
<path d="M28.459 38.1231L28.6127 39.2168L25.2861 39.6843L26.1445 45.7926L24.8399 45.9759L23.8277 38.774L28.459 38.1231ZM30.9425 43.3611L32.5882 39.3788L33.8964 39.195L34.6555 44.5964L33.4247 44.7694L32.9073 41.0876L31.2691 45.0724L29.9574 45.2567L29.1982 39.8553L30.4255 39.6828L30.9425 43.3611ZM39.2519 36.4055L39.8106 37.1661C39.6726 37.3241 39.5106 37.4473 39.3246 37.5356C39.1386 37.6239 38.9156 37.6959 38.6557 37.7515C38.3978 37.8045 38.09 37.8597 37.7323 37.9172C37.3304 37.9832 37.0117 38.1057 36.7762 38.2846C36.5408 38.4635 36.3755 38.7079 36.2804 39.0177C36.185 39.3252 36.1476 39.7058 36.1683 40.1595L36.2281 40.1511C36.3504 39.7968 36.5518 39.5115 36.8322 39.2952C37.1126 39.0789 37.4579 38.9419 37.8682 38.8842C38.316 38.8213 38.7252 38.8666 39.0958 39.0201C39.4684 39.1709 39.7775 39.4227 40.0231 39.7755C40.2711 40.128 40.433 40.5738 40.5087 41.113C40.5868 41.6686 40.5502 42.165 40.3989 42.6023C40.2473 43.0372 39.9947 43.3918 39.6412 43.6663C39.29 43.9403 38.8518 44.1143 38.3267 44.1881C37.8039 44.2615 37.3331 44.2118 36.9143 44.0387C36.4976 43.863 36.1522 43.5661 35.8783 43.148C35.6064 42.7272 35.4241 42.1874 35.3316 41.5286L35.2633 41.0433C35.0848 39.7727 35.1883 38.7911 35.5739 38.0986C35.9595 37.4061 36.6168 36.9886 37.5459 36.846C37.8218 36.8025 38.069 36.7665 38.2874 36.7382C38.5081 36.7096 38.6988 36.672 38.8596 36.6255C39.0205 36.579 39.1512 36.5057 39.2519 36.4055ZM38.1904 43.1673C38.4506 43.1307 38.6663 43.0323 38.8374 42.8719C39.0082 42.7093 39.1265 42.4966 39.1924 42.2339C39.2607 41.9709 39.2709 41.6695 39.2231 41.3295C39.176 40.9943 39.0844 40.7167 38.9483 40.4968C38.8119 40.2745 38.64 40.1145 38.4326 40.017C38.2252 39.9194 37.9903 39.8891 37.7277 39.926C37.5308 39.9537 37.3587 40.0137 37.2115 40.1061C37.0643 40.1985 36.9452 40.3204 36.8541 40.4719C36.7631 40.6234 36.7019 40.8005 36.6706 41.0033C36.6394 41.2061 36.6392 41.4345 36.6701 41.6883C36.7416 42.1971 36.9133 42.5853 37.1852 42.8531C37.4568 43.1186 37.7919 43.2233 38.1904 43.1673ZM41.9586 43.5701L41.1994 38.1686L42.4724 37.9897L42.7789 40.17L43.243 40.1047L44.5613 37.6961L46.0945 37.4806L44.4662 40.4134L46.8747 42.8791L45.3345 43.0956L43.5678 41.2676L42.9454 41.3551L43.2316 43.3912L41.9586 43.5701ZM49.745 42.5833C49.2175 42.6575 48.7441 42.6057 48.3246 42.4279C47.9052 42.2502 47.5595 41.9677 47.2875 41.5804C47.0179 41.1927 46.8438 40.7199 46.7654 40.162C46.687 39.604 46.7238 39.1004 46.8758 38.6511C47.0302 38.2014 47.2845 37.8334 47.6387 37.5469C47.9929 37.2605 48.4337 37.0802 48.9612 37.006C49.4887 36.9319 49.9621 36.9837 50.3816 37.1614C50.801 37.3392 51.1457 37.623 51.4157 38.013C51.688 38.4027 51.8634 38.8765 51.9418 39.4345C52.0202 39.9924 51.9821 40.495 51.8274 40.9423C51.675 41.3893 51.4218 41.756 51.0676 42.0424C50.7134 42.3289 50.2725 42.5092 49.745 42.5833ZM49.6087 41.5625C49.8948 41.5223 50.1228 41.4102 50.293 41.2261C50.4628 41.0397 50.5759 40.8062 50.6321 40.5258C50.6906 40.245 50.6969 39.9405 50.6507 39.6123C50.6043 39.2818 50.5142 38.9896 50.3805 38.7359C50.2489 38.4794 50.0757 38.285 49.8611 38.1526C49.6464 38.0202 49.3961 37.9741 49.1101 38.0143C48.817 38.0555 48.5844 38.1695 48.4122 38.3562C48.2424 38.5427 48.1284 38.7774 48.0701 39.0606C48.0139 39.341 48.009 39.6465 48.0555 39.9771C48.1016 40.3053 48.1904 40.5964 48.3217 40.8505C48.4554 41.1042 48.6295 41.2973 48.8442 41.4297C49.0608 41.5595 49.3157 41.6037 49.6087 41.5625ZM55.805 41.7317C55.2634 41.8078 54.7799 41.761 54.3544 41.5913C53.9309 41.4189 53.5845 41.14 53.3152 40.7547C53.0456 40.3671 52.8711 39.8908 52.7917 39.3258C52.7136 38.7702 52.7505 38.2677 52.9026 37.8184C53.0566 37.3664 53.3082 36.9964 53.6574 36.7082C54.0062 36.4177 54.4386 36.2362 54.9543 36.1638C55.2872 36.117 55.6089 36.1267 55.9195 36.1931C56.2321 36.2567 56.5177 36.3839 56.7764 36.5747C57.0375 36.7651 57.2578 37.0234 57.4376 37.3496C57.6169 37.6734 57.7399 38.0721 57.8065 38.5457L57.8613 38.936L53.434 39.5582L53.3134 38.7002L56.5205 38.2495C56.4839 38.006 56.4007 37.7965 56.2708 37.6211C56.1406 37.4434 55.9752 37.3125 55.7745 37.2283C55.5762 37.1438 55.3551 37.1187 55.1113 37.153C54.851 37.1895 54.6314 37.285 54.4522 37.4392C54.2728 37.5912 54.1423 37.7769 54.0607 37.9963C53.9812 38.2131 53.9573 38.4424 53.9889 38.6842L54.0941 39.4332C54.1383 39.7473 54.2336 40.0089 54.3801 40.2178C54.5263 40.4244 54.7109 40.5729 54.9341 40.6635C55.1568 40.7517 55.4065 40.7764 55.6832 40.7375C55.8684 40.7115 56.0324 40.6621 56.1752 40.5895C56.3176 40.5145 56.4367 40.4176 56.5324 40.299C56.6281 40.1804 56.6934 40.0409 56.7282 39.8806L57.9356 39.8472C57.9047 40.1719 57.8003 40.4663 57.6222 40.7304C57.4462 40.9918 57.2043 41.2099 56.8966 41.3846C56.5885 41.557 56.2246 41.6727 55.805 41.7317ZM62.0099 42.8176L60.9661 35.3906L62.218 35.2146L62.3436 36.1078L62.4174 36.0975C62.4646 35.957 62.5376 35.8045 62.6364 35.64C62.7349 35.4731 62.8787 35.3226 63.0678 35.1884C63.2566 35.0519 63.5093 34.9614 63.8258 34.917C64.2431 34.8583 64.6343 34.9121 64.9996 35.0783C65.3668 35.2419 65.678 35.5173 65.9333 35.9046C66.1906 36.2892 66.3614 36.7816 66.4457 37.3817C66.5291 37.9749 66.5026 38.4926 66.3663 38.9349C66.2301 39.3772 66.0096 39.7309 65.705 39.996C65.4004 40.2612 65.036 40.4236 64.6116 40.4832C64.3022 40.5267 64.0382 40.5112 63.8198 40.4367C63.6013 40.3622 63.4197 40.261 63.2751 40.1331C63.1324 40.0026 63.0178 39.8764 62.9314 39.7547L62.8786 39.7621L63.2829 42.6387L62.0099 42.8176ZM62.5941 37.9159C62.6432 38.2652 62.7354 38.5642 62.8708 38.8129C63.0085 39.0613 63.1815 39.2462 63.3898 39.3675C63.6001 39.4862 63.8401 39.5266 64.1097 39.4887C64.391 39.4492 64.6161 39.341 64.7849 39.1643C64.9534 38.9852 65.0672 38.7577 65.1264 38.4816C65.1877 38.2028 65.1945 37.8946 65.1471 37.5571C65.1 37.2218 65.0101 36.9308 64.8774 36.6841C64.7447 36.4374 64.573 36.2535 64.3624 36.1325C64.1517 36.0115 63.9046 35.9709 63.6209 36.0108C63.3489 36.049 63.1281 36.153 62.9583 36.3227C62.7885 36.4924 62.6725 36.7131 62.6102 36.9848C62.5504 37.2562 62.545 37.5665 62.5941 37.9159ZM70.3205 39.6916C69.779 39.7677 69.2954 39.7209 68.87 39.5512C68.4465 39.3789 68.1001 39.1 67.8308 38.7147C67.5611 38.3271 67.3866 37.8507 67.3072 37.2857C67.2291 36.7301 67.2661 36.2277 67.4181 35.7784C67.5721 35.3264 67.8238 34.9563 68.1729 34.6682C68.5218 34.3777 68.9541 34.1962 69.4699 34.1237C69.8028 34.0769 70.1245 34.0867 70.435 34.153C70.7476 34.2167 71.0332 34.3439 71.292 34.5347C71.553 34.7251 71.7734 34.9834 71.9531 35.3096C72.1325 35.6334 72.2555 36.0321 72.322 36.5057L72.3769 36.896L67.9495 37.5182L67.8289 36.6602L71.036 36.2094C70.9994 35.966 70.9162 35.7565 70.7864 35.5811C70.6562 35.4034 70.4908 35.2724 70.2901 35.1883C70.0917 35.1038 69.8706 35.0787 69.6268 35.1129C69.3666 35.1495 69.1469 35.2449 68.9678 35.3992C68.7883 35.5511 68.6578 35.7368 68.5763 35.9563C68.4968 36.173 68.4728 36.4023 68.5044 36.6441L68.6097 37.3932C68.6538 37.7073 68.7492 37.9688 68.8957 38.1778C69.0419 38.3843 69.2265 38.5329 69.4496 38.6235C69.6724 38.7117 69.9221 38.7364 70.1987 38.6975C70.3839 38.6715 70.5479 38.6221 70.6907 38.5495C70.8332 38.4744 70.9523 38.3776 71.048 38.259C71.1436 38.1403 71.2089 38.0009 71.2438 37.8406L72.4511 37.8072C72.4203 38.1319 72.3158 38.4263 72.1378 38.6903C71.9617 38.9518 71.7199 39.1698 71.4121 39.3446C71.104 39.517 70.7402 39.6327 70.3205 39.6916ZM73.5266 40.7328L73.1589 38.1165L73.588 38.0562C73.6903 37.951 73.7695 37.8167 73.8254 37.6535C73.881 37.4879 73.9188 37.2973 73.9387 37.0817C73.9606 36.8635 73.9697 36.6219 73.966 36.3571C73.9619 36.0899 73.9515 35.8033 73.9348 35.4972L73.8236 33.5836L77.727 33.035L78.3389 37.3885L79.1758 37.2709L79.5435 39.8872L78.3127 40.0602L78.0923 38.4918L74.5581 38.9885L74.7785 40.5569L73.5266 40.7328ZM74.8961 37.8724L77.1221 37.5595L76.6546 34.2328L75.0721 34.4552L75.1093 35.3322C75.1428 35.9108 75.1495 36.4095 75.1295 36.8283C75.1095 37.2471 75.0317 37.5951 74.8961 37.8724ZM81.8431 38.0758C81.5008 38.1239 81.1839 38.1063 80.8925 38.023C80.6031 37.9369 80.3617 37.7844 80.1684 37.5653C79.9774 37.3459 79.857 37.0592 79.8072 36.7052C79.7644 36.4004 79.7852 36.1405 79.8698 35.9254C79.9543 35.7103 80.0854 35.5293 80.2632 35.3824C80.441 35.2355 80.6475 35.1144 80.8828 35.0192C81.12 34.9213 81.368 34.8399 81.6266 34.7748C81.9385 34.6975 82.1911 34.6321 82.3844 34.5787C82.5773 34.5229 82.7144 34.4606 82.7956 34.3918C82.8788 34.3203 82.9118 34.2236 82.8947 34.1017L82.8917 34.0806C82.8545 33.8157 82.7471 33.6216 82.5696 33.4984C82.3921 33.3751 82.1557 33.3342 81.8603 33.3757C81.5485 33.4195 81.3107 33.5223 81.1469 33.684C80.9855 33.8453 80.8862 34.023 80.8489 34.2171L79.6366 34.2154C79.6843 33.874 79.8004 33.5779 79.9851 33.3273C80.1695 33.0742 80.4099 32.8707 80.7062 32.7167C81.0022 32.5604 81.3389 32.4557 81.7163 32.4026C81.9766 32.366 82.2399 32.3601 82.5064 32.3848C82.7728 32.4095 83.0226 32.4772 83.2557 32.5879C83.4885 32.6962 83.6861 32.8609 83.8487 33.0819C84.0136 33.3026 84.1212 33.5923 84.1716 33.951L84.6797 37.566L83.4559 37.738L83.3517 36.996L83.3095 37.0019C83.2532 37.1628 83.1639 37.3188 83.0417 37.4699C82.9215 37.6183 82.7615 37.7471 82.5617 37.8565C82.364 37.9632 82.1244 38.0363 81.8431 38.0758ZM82.0422 37.094C82.2977 37.0581 82.5122 36.9765 82.6856 36.8493C82.8586 36.7198 82.9837 36.5636 83.0608 36.3806C83.1402 36.1973 83.1659 36.0061 83.1379 35.8068L83.0484 35.1703C83.0132 35.2087 82.9495 35.2487 82.8573 35.2904C82.7675 35.3317 82.6655 35.3711 82.5512 35.4087C82.437 35.4463 82.3236 35.4813 82.211 35.5139C82.0984 35.5465 82.0008 35.5745 81.918 35.5981C81.7317 35.6506 81.5677 35.7167 81.4259 35.7964C81.2841 35.8761 81.1772 35.9748 81.1053 36.0924C81.0331 36.2078 81.0085 36.3475 81.0315 36.5116C81.0645 36.7461 81.1749 36.911 81.3629 37.0065C81.5508 37.1021 81.7773 37.1312 82.0422 37.094ZM85.9597 37.3861L85.2006 31.9846L86.4736 31.8057L86.78 33.986L87.2442 33.9208L88.5625 31.5122L90.0957 31.2967L88.4674 34.2294L90.8759 36.6952L89.3357 36.9117L87.569 35.0836L86.9466 35.1711L87.2327 37.2072L85.9597 37.3861ZM90.69 32.2782L90.5432 31.2338L95.2694 30.5696L95.4162 31.614L93.6685 31.8596L94.2808 36.2167L93.05 36.3896L92.4377 32.0326L90.69 32.2782ZM98.0273 33.933L99.6731 29.9507L100.981 29.7668L101.74 35.1683L100.51 35.3413L99.9921 31.6594L98.3539 35.6442L97.0422 35.8286L96.2831 30.4271L97.5104 30.2546L98.0273 33.933ZM103.332 37.0101L102.289 29.5831L103.54 29.4071L103.666 30.3004L103.74 30.29C103.787 30.1495 103.86 29.997 103.959 29.8325C104.057 29.6656 104.201 29.5151 104.39 29.381C104.579 29.2444 104.832 29.154 105.148 29.1095C105.565 29.0508 105.957 29.1046 106.322 29.2708C106.689 29.4344 107 29.7098 107.256 30.0971C107.513 30.4817 107.684 30.9741 107.768 31.5742C107.851 32.1674 107.825 32.6851 107.689 33.1274C107.552 33.5697 107.332 33.9234 107.027 34.1886C106.723 34.4537 106.358 34.6161 105.934 34.6757C105.625 34.7192 105.361 34.7037 105.142 34.6292C104.924 34.5547 104.742 34.4536 104.597 34.3257C104.455 34.1951 104.34 34.069 104.254 33.9472L104.201 33.9546L104.605 36.8312L103.332 37.0101ZM103.916 32.1084C103.966 32.4577 104.058 32.7567 104.193 33.0054C104.331 33.2538 104.504 33.4387 104.712 33.5601C104.923 33.6787 105.162 33.7191 105.432 33.6812C105.713 33.6417 105.938 33.5335 106.107 33.3568C106.276 33.1777 106.39 32.9502 106.449 32.6741C106.51 32.3953 106.517 32.0872 106.47 31.7496C106.422 31.4143 106.333 31.1233 106.2 30.8766C106.067 30.6299 105.895 30.446 105.685 30.325C105.474 30.204 105.227 30.1635 104.943 30.2033C104.671 30.2415 104.45 30.3455 104.281 30.5152C104.111 30.6849 103.995 30.9056 103.933 31.1773C103.873 31.4487 103.867 31.7591 103.916 32.1084ZM111.608 33.8891C111.08 33.9632 110.607 33.9114 110.187 33.7337C109.768 33.556 109.422 33.2734 109.15 32.8861C108.881 32.4985 108.707 32.0257 108.628 31.4677C108.55 30.9097 108.587 30.4061 108.739 29.9568C108.893 29.5072 109.147 29.1391 109.501 28.8527C109.856 28.5662 110.296 28.3859 110.824 28.3118C111.351 28.2377 111.825 28.2895 112.244 28.4672C112.664 28.6449 113.008 28.9288 113.278 29.3188C113.551 29.7084 113.726 30.1823 113.805 30.7402C113.883 31.2982 113.845 31.8008 113.69 32.2481C113.538 32.695 113.285 33.0617 112.93 33.3482C112.576 33.6347 112.135 33.815 111.608 33.8891ZM111.471 32.8683C111.757 32.8281 111.986 32.716 112.156 32.5319C112.326 32.3454 112.439 32.112 112.495 31.8316C112.553 31.5508 112.56 31.2463 112.513 30.9181C112.467 30.5875 112.377 30.2954 112.243 30.0416C112.112 29.7852 111.938 29.5908 111.724 29.4584C111.509 29.326 111.259 29.2799 110.973 29.3201C110.68 29.3613 110.447 29.4752 110.275 29.662C110.105 29.8484 109.991 30.0832 109.933 30.3663C109.877 30.6468 109.872 30.9523 109.918 31.2828C109.964 31.611 110.053 31.9022 110.184 32.1563C110.318 32.41 110.492 32.6031 110.707 32.7355C110.924 32.8652 111.178 32.9095 111.471 32.8683ZM115.262 33.268L114.502 27.8665L116.771 27.5478C117.411 27.4578 117.934 27.5146 118.34 27.7181C118.749 27.9212 118.985 28.2514 119.05 28.7085C119.092 29.0109 119.021 29.2731 118.837 29.495C118.655 29.7142 118.389 29.882 118.037 29.9984C118.324 29.982 118.582 30.0186 118.812 30.1081C119.045 30.1974 119.236 30.3307 119.385 30.5082C119.534 30.6856 119.627 30.901 119.662 31.1542C119.704 31.4519 119.662 31.722 119.536 31.9644C119.412 32.2042 119.209 32.406 118.929 32.5697C118.65 32.7308 118.3 32.841 117.878 32.9003L115.262 33.268ZM116.313 32.0982L117.737 31.8981C117.972 31.8651 118.148 31.7842 118.266 31.6552C118.384 31.5239 118.429 31.3621 118.402 31.1699C118.371 30.9472 118.28 30.7819 118.128 30.6741C117.976 30.5639 117.783 30.5253 117.549 30.5583L116.125 30.7584L116.313 32.0982ZM116.009 29.9355L117.11 29.7808C117.283 29.7565 117.429 29.7109 117.546 29.6442C117.663 29.5752 117.748 29.4903 117.801 29.3897C117.853 29.2867 117.87 29.1707 117.852 29.0418C117.826 28.8566 117.729 28.7219 117.562 28.6378C117.397 28.5534 117.181 28.53 116.914 28.5676L115.838 28.7188L116.009 29.9355ZM122.489 32.3635C122.146 32.4116 121.829 32.394 121.538 32.3106C121.249 32.2246 121.007 32.072 120.814 31.853C120.623 31.6336 120.502 31.3469 120.453 30.9929C120.41 30.6881 120.431 30.4282 120.515 30.2131C120.6 29.998 120.731 29.817 120.909 29.6701C121.086 29.5232 121.293 29.4021 121.528 29.3069C121.766 29.209 122.013 29.1275 122.272 29.0625C122.584 28.9852 122.837 28.9198 123.03 28.8663C123.223 28.8105 123.36 28.7482 123.441 28.6794C123.524 28.608 123.557 28.5113 123.54 28.3894L123.537 28.3683C123.5 28.1034 123.393 27.9093 123.215 27.786C123.038 27.6627 122.801 27.6218 122.506 27.6634C122.194 27.7072 121.956 27.8099 121.792 27.9716C121.631 28.1329 121.532 28.3107 121.494 28.5048L120.282 28.503C120.33 28.1616 120.446 27.8656 120.631 27.6149C120.815 27.3619 121.055 27.1584 121.352 27.0044C121.648 26.848 121.984 26.7433 122.362 26.6903C122.622 26.6537 122.885 26.6478 123.152 26.6725C123.418 26.6972 123.668 26.7649 123.901 26.8755C124.134 26.9839 124.332 27.1486 124.494 27.3696C124.659 27.5902 124.767 27.8799 124.817 28.2386L125.325 31.8537L124.101 32.0256L123.997 31.2836L123.955 31.2896C123.899 31.4505 123.809 31.6065 123.687 31.7575C123.567 31.9059 123.407 32.0348 123.207 32.1441C123.009 32.2508 122.77 32.3239 122.489 32.3635ZM122.688 31.3816C122.943 31.3457 123.158 31.2642 123.331 31.137C123.504 31.0075 123.629 30.8512 123.706 30.6683C123.786 30.485 123.811 30.2937 123.783 30.0944L123.694 29.4579C123.659 29.4964 123.595 29.5364 123.503 29.578C123.413 29.6193 123.311 29.6588 123.197 29.6964C123.082 29.7339 122.969 29.769 122.856 29.8016C122.744 29.8341 122.646 29.8622 122.563 29.8858C122.377 29.9382 122.213 30.0043 122.071 30.084C121.93 30.1637 121.823 30.2624 121.751 30.3801C121.679 30.4954 121.654 30.6352 121.677 30.7993C121.71 31.0337 121.82 31.1987 122.008 31.2942C122.196 31.3897 122.423 31.4188 122.688 31.3816ZM129.862 27.9241L130.008 28.9686L127.132 29.3728L126.985 28.3284L129.862 27.9241ZM127.073 26.0998L127.832 31.5013L126.605 31.6738L125.846 26.2723L127.073 26.0998ZM130.39 25.6338L131.149 31.0352L129.925 31.2072L129.166 25.8057L130.39 25.6338ZM133.422 28.9586L135.067 24.9763L136.376 24.7925L137.135 30.1939L135.904 30.3669L135.386 26.6851L133.748 30.6699L132.437 30.8542L131.677 25.4527L132.905 25.2803L133.422 28.9586ZM140.848 29.7796C140.307 29.8557 139.823 29.8089 139.398 29.6392C138.974 29.4669 138.628 29.188 138.358 28.8027C138.089 28.4151 137.914 27.9387 137.835 27.3737C137.757 26.8181 137.794 26.3157 137.946 25.8664C138.1 25.4144 138.351 25.0443 138.701 24.7562C139.049 24.4657 139.482 24.2842 139.997 24.2117C140.33 24.1649 140.652 24.1747 140.963 24.241C141.275 24.3047 141.561 24.4319 141.82 24.6227C142.081 24.8131 142.301 25.0714 142.481 25.3976C142.66 25.7214 142.783 26.1201 142.85 26.5936L142.904 26.984L138.477 27.6062L138.357 26.7482L141.564 26.2974C141.527 26.054 141.444 25.8445 141.314 25.6691C141.184 25.4914 141.018 25.3604 140.818 25.2763C140.619 25.1918 140.398 25.1667 140.154 25.2009C139.894 25.2375 139.675 25.3329 139.495 25.4872C139.316 25.6391 139.185 25.8248 139.104 26.0443C139.024 26.261 139 26.4903 139.032 26.7321L139.137 27.4812C139.181 27.7953 139.277 28.0568 139.423 28.2658C139.569 28.4723 139.754 28.6209 139.977 28.7115C140.2 28.7997 140.45 28.8244 140.726 28.7855C140.912 28.7595 141.076 28.7101 141.218 28.6374C141.361 28.5624 141.48 28.4656 141.576 28.347C141.671 28.2283 141.737 28.0889 141.771 27.9286L142.979 27.8952C142.948 28.2199 142.843 28.5142 142.665 28.7783C142.489 29.0398 142.247 29.2578 141.94 29.4326C141.632 29.605 141.268 29.7207 140.848 29.7796Z" fill="#FAFDFF"/>
</g>
<defs>
<filter id="filter0_d_5_1257" x="0" y="0" width="166.968" height="67.3896" filterUnits="userSpaceOnUse" color-interpolation-filters="sRGB">
<feFlood flood-opacity="0" result="BackgroundImageFix"/>
<feColorMatrix in="SourceAlpha" type="matrix" values="0 0 0 0 0 0 0 0 0 0 0 0 0 0 0 0 0 0 127 0" result="hardAlpha"/>
<feOffset/>
<feGaussianBlur stdDeviation="6"/>
<feComposite in2="hardAlpha" operator="out"/>
<feColorMatrix type="matrix" values="0 0 0 0 0 0 0 0 0 0 0 0 0 0 0 0 0 0 0.12 0"/>
<feBlend mode="normal" in2="BackgroundImageFix" result="effect1_dropShadow_5_1257"/>
<feBlend mode="normal" in="SourceGraphic" in2="effect1_dropShadow_5_1257" result="shape"/>
</filter>
</defs>
</svg>
