<svg width="124" height="57" viewBox="0 0 124 57" fill="none" xmlns="http://www.w3.org/2000/svg">
<g filter="url(#filter0_d_1_6464)">
<rect x="14.0918" y="12" width="108" height="24" rx="6" transform="rotate(5 14.0918 12)" fill="#262728" shape-rendering="crispEdges"/>
<path d="M26.8838 21.8797L26.2499 29.1247L24.9374 29.0099L25.4596 23.0419L25.4171 23.0382L23.6279 23.9725L23.7331 22.7697L25.635 21.7704L26.8838 21.8797ZM30.7554 29.6579C30.1728 29.607 29.6857 29.4158 29.2941 29.0845C28.905 28.751 28.6229 28.295 28.4478 27.7165C28.2752 27.1358 28.2234 26.4504 28.2926 25.6603C28.364 24.8704 28.5349 24.2081 28.8051 23.6733C29.0778 23.1363 29.4345 22.7397 29.8752 22.4836C30.3182 22.2277 30.8298 22.1251 31.41 22.1759C31.9901 22.2266 32.4761 22.4165 32.868 22.7454C33.2599 23.0744 33.5423 23.5269 33.7153 24.1029C33.8906 24.679 33.9438 25.361 33.8749 26.1487C33.8056 26.9411 33.6344 27.6082 33.3612 28.1499C33.0906 28.6894 32.7337 29.0884 32.2905 29.3466C31.8496 29.6051 31.3379 29.7089 30.7554 29.6579ZM30.8522 28.5506C31.3051 28.5903 31.6819 28.3987 31.9826 27.9758C32.286 27.5508 32.4757 26.9032 32.5519 26.033C32.6022 25.4575 32.5844 24.9688 32.4983 24.5667C32.4123 24.1647 32.2683 23.8551 32.0663 23.6378C31.8645 23.4181 31.6138 23.2952 31.3143 23.269C30.8639 23.2296 30.4881 23.4225 30.1872 23.8477C29.8864 24.2705 29.697 24.9134 29.6192 25.7764C29.5663 26.354 29.5815 26.8449 29.665 27.249C29.7508 27.6534 29.8946 27.9654 30.0964 28.1851C30.2984 28.4024 30.5504 28.5242 30.8522 28.5506ZM37.3999 30.2392C36.8174 30.1883 36.3303 29.9971 35.9386 29.6658C35.5496 29.3323 35.2674 28.8763 35.0923 28.2978C34.9197 27.7171 34.868 27.0317 34.9371 26.2416C35.0086 25.4518 35.1794 24.7894 35.4496 24.2546C35.7223 23.7176 36.079 23.321 36.5197 23.0649C36.9627 22.809 37.4743 22.7064 38.0545 22.7572C38.6347 22.8079 39.1207 22.9978 39.5125 23.3268C39.9044 23.6557 40.1868 24.1082 40.3598 24.6842C40.5352 25.2604 40.5884 25.9423 40.5195 26.73C40.4501 27.5225 40.2789 28.1895 40.0057 28.7312C39.7352 29.2708 39.3782 29.6697 38.935 29.928C38.4941 30.1865 37.9824 30.2902 37.3999 30.2392ZM37.4968 29.132C37.9496 29.1716 38.3264 28.98 38.6272 28.5571C38.9305 28.1321 39.1203 27.4845 39.1964 26.6143C39.2467 26.0388 39.2289 25.5501 39.1429 25.1481C39.0569 24.746 38.9128 24.4364 38.7108 24.2191C38.509 23.9994 38.2584 23.8765 37.9589 23.8503C37.5084 23.8109 37.1327 24.0038 36.8317 24.429C36.5309 24.8518 36.3416 25.4947 36.2637 26.3577C36.2108 26.9353 36.2261 27.4262 36.3095 27.8304C36.3954 28.2347 36.5392 28.5468 36.741 28.7664C36.943 28.9837 37.1949 29.1056 37.4968 29.132ZM44.0444 30.8206C43.4619 30.7696 42.9748 30.5785 42.5832 30.2471C42.1941 29.9137 41.912 29.4577 41.7368 28.8791C41.5643 28.2984 41.5125 27.613 41.5816 26.823C41.6531 26.0331 41.824 25.3707 42.0941 24.8359C42.3669 24.2989 42.7236 23.9024 43.1643 23.6462C43.6073 23.3903 44.1189 23.2877 44.699 23.3385C45.2792 23.3893 45.7652 23.5791 46.1571 23.9081C46.5489 24.237 46.8314 24.6895 47.0044 25.2655C47.1797 25.8417 47.2329 26.5236 47.164 27.3113C47.0947 28.1038 46.9234 28.7708 46.6503 29.3125C46.3797 29.8521 46.0228 30.251 45.5795 30.5093C45.1387 30.7678 44.627 30.8715 44.0444 30.8206ZM44.1413 29.7133C44.5941 29.7529 44.9709 29.5613 45.2717 29.1385C45.5751 28.7135 45.7648 28.0658 45.8409 27.1956C45.8913 26.6201 45.8734 26.1314 45.7874 25.7294C45.7014 25.3274 45.5574 25.0177 45.3554 24.8004C45.1536 24.5808 44.9029 24.4578 44.6034 24.4316C44.153 24.3922 43.7772 24.5851 43.4762 25.0103C43.1755 25.4331 42.9861 26.076 42.9083 26.939C42.8553 27.5166 42.8706 28.0075 42.9541 28.4117C43.0399 28.8161 43.1837 29.1281 43.3855 29.3477C43.5875 29.565 43.8394 29.6869 44.1413 29.7133ZM50.2755 30.0575L50.7038 25.1614L51.8146 25.2586L51.3863 30.1547L50.2755 30.0575ZM48.5484 27.9993L48.6456 26.8884L53.5417 27.3168L53.4445 28.4276L48.5484 27.9993ZM59.5391 27.5528C59.3597 27.5394 59.1912 27.5639 59.0337 27.6262C58.8761 27.6884 58.7457 27.7804 58.6424 27.9021C58.5416 28.0216 58.4838 28.1662 58.4689 28.336L57.2909 28.233C57.3148 27.9594 57.3937 27.7096 57.5276 27.4837C57.6614 27.2578 57.835 27.0662 58.0484 26.909C58.2641 26.752 58.5071 26.6366 58.7773 26.5629C59.0502 26.4869 59.3351 26.4619 59.6323 26.4879C60.1606 26.5342 60.5956 26.6958 60.9373 26.9728C61.2814 27.2501 61.5285 27.6044 61.6785 28.0358C61.831 28.465 61.8853 28.9308 61.8414 29.4332L61.8281 29.5853C61.7841 30.0876 61.6509 30.5382 61.4282 30.937C61.2058 31.3334 60.9011 31.6382 60.5141 31.8515C60.1294 32.065 59.6718 32.1486 59.1411 32.1021C58.7166 32.065 58.348 31.946 58.0352 31.7452C57.725 31.5422 57.4904 31.2769 57.3313 30.9493C57.1746 30.6219 57.1144 30.2506 57.1507 29.8355L58.3287 29.9386C58.313 30.1178 58.3409 30.2878 58.4124 30.4485C58.4841 30.6069 58.5903 30.7386 58.7308 30.8436C58.8737 30.9487 59.0417 31.011 59.2349 31.0302C59.5252 31.0533 59.7662 30.9876 59.9579 30.8333C60.152 30.6792 60.3003 30.4782 60.4028 30.2306C60.5076 29.9831 60.5712 29.732 60.5935 29.4773L60.6068 29.3251C60.6307 29.0516 60.6124 28.785 60.552 28.5254C60.4941 28.2637 60.3826 28.0436 60.2176 27.8652C60.0552 27.6847 59.829 27.5805 59.5391 27.5528ZM61.0384 28.9957L60.9641 29.8448L58.8946 29.6637L58.9689 28.8147L61.0384 28.9957ZM62.3036 32.279L62.3887 31.2242L62.5762 31.2406C62.7177 31.253 62.8396 31.2315 62.9419 31.1763C63.0442 31.1211 63.1336 31.022 63.2103 30.879C63.2872 30.7336 63.3545 30.5351 63.4121 30.2835C63.4698 30.0319 63.5223 29.7169 63.5697 29.3384L63.8756 26.9412L67.8378 27.2878L67.3624 32.7216L66.1242 32.6133L66.5077 28.2302L64.9476 28.0937L64.7095 29.8374C64.6486 30.2883 64.5636 30.6766 64.4543 31.0021C64.3476 31.3255 64.2129 31.5882 64.0503 31.7902C63.89 31.9924 63.6979 32.1372 63.474 32.2246C63.2503 32.3096 62.9922 32.3393 62.6998 32.3137L62.3036 32.279ZM71.0481 33.151C70.5033 33.1033 70.0427 32.949 69.6663 32.6879C69.2925 32.4247 69.0177 32.0751 68.842 31.639C68.6664 31.2007 68.6035 30.6973 68.6533 30.1289C68.7022 29.57 68.8512 29.0887 69.1004 28.6851C69.3522 28.2794 69.6806 27.9754 70.0856 27.7732C70.4909 27.5686 70.9529 27.4891 71.4718 27.5345C71.8067 27.5638 72.118 27.6456 72.4056 27.7801C72.6959 27.9125 72.9456 28.1007 73.1547 28.3447C73.3663 28.589 73.5229 28.8903 73.6246 29.2485C73.7266 29.6044 73.7567 30.0205 73.715 30.4969L73.6807 30.8896L69.2268 30.4999L69.3023 29.6368L72.5286 29.919C72.5477 29.6735 72.5138 29.4507 72.4267 29.2506C72.3399 29.0482 72.2081 28.8834 72.0315 28.7562C71.8572 28.6293 71.6475 28.5551 71.4022 28.5336C71.1404 28.5107 70.9049 28.5543 70.6957 28.6643C70.4866 28.772 70.3177 28.9235 70.1889 29.119C70.0627 29.3123 69.9877 29.5304 69.9641 29.7731L69.8982 30.5266C69.8706 30.8426 69.9046 31.1189 70.0004 31.3554C70.0963 31.5896 70.2428 31.7759 70.4398 31.9143C70.6371 32.0504 70.8748 32.1306 71.1531 32.1549C71.3394 32.1712 71.5103 32.1601 71.6658 32.1214C71.8215 32.0803 71.9593 32.0128 72.0792 31.9187C72.1991 31.8246 72.2941 31.7034 72.3641 31.5551L73.5481 31.7941C73.445 32.1035 73.277 32.3669 73.0441 32.5842C72.8137 32.7993 72.529 32.9574 72.1898 33.0584C71.8509 33.1571 71.4703 33.1879 71.0481 33.151ZM77.8146 32.1353L79.7728 28.332L80.8058 28.4224L78.1336 33.664L77.2385 33.5857L75.5666 27.964L76.589 28.0534L77.8146 32.1353ZM76.267 28.0253L75.7916 33.4591L74.557 33.351L75.0324 27.9173L76.267 28.0253ZM79.63 33.7949L80.1054 28.3611L81.3294 28.4682L80.854 33.902L79.63 33.7949ZM84.5415 34.3315C83.9967 34.2839 83.5361 34.1295 83.1597 33.8684C82.7859 33.6052 82.5111 33.2556 82.3354 32.8196C82.1598 32.3812 82.0969 31.8778 82.1466 31.3094C82.1956 30.7505 82.3446 30.2692 82.5938 29.8657C82.8455 29.4599 83.174 29.1559 83.579 28.9537C83.9843 28.7492 84.4463 28.6696 84.9652 28.715C85.3001 28.7443 85.6114 28.8262 85.899 28.9606C86.1893 29.093 86.439 29.2812 86.6481 29.5252C86.8596 29.7695 87.0163 30.0708 87.118 30.429C87.22 30.7849 87.2501 31.201 87.2084 31.6774L87.1741 32.0701L82.7202 31.6804L82.7957 30.8173L86.022 31.0995C86.0411 30.8541 86.0071 30.6313 85.9201 30.4311C85.8332 30.2287 85.7015 30.0639 85.5249 29.9367C85.3506 29.8098 85.1409 29.7356 84.8956 29.7141C84.6338 29.6912 84.3983 29.7348 84.189 29.8448C83.98 29.9525 83.8111 30.104 83.6823 30.2995C83.556 30.4929 83.4811 30.7109 83.4575 30.9536L83.3916 31.7071C83.3639 32.0231 83.398 32.2994 83.4937 32.5359C83.5897 32.7701 83.7362 32.9564 83.9332 33.0948C84.1304 33.2309 84.3682 33.3111 84.6465 33.3355C84.8328 33.3518 85.0037 33.3406 85.1592 33.3019C85.3149 33.2609 85.4527 33.1933 85.5726 33.0992C85.6925 33.0052 85.7875 32.8839 85.8575 32.7356L87.0415 32.9746C86.9383 33.2841 86.7703 33.5474 86.5374 33.7647C86.3071 33.9798 86.0224 34.1379 85.6832 34.2389C85.3442 34.3376 84.9637 34.3685 84.5415 34.3315ZM92.0667 31.6106L91.9748 32.6612L89.081 32.4081L89.1729 31.3574L92.0667 31.6106ZM89.7604 29.2058L89.285 34.6396L88.0504 34.5316L88.5258 29.0978L89.7604 29.2058ZM93.0964 29.4977L92.621 34.9314L91.3899 34.8237L91.8653 29.3899L93.0964 29.4977ZM93.6917 30.6084L93.7836 29.5578L98.5382 29.9737L98.4462 31.0244L96.688 30.8706L96.3046 35.2537L95.0664 35.1454L95.4499 30.7623L93.6917 30.6084ZM101.22 35.7907C100.689 35.7442 100.239 35.5873 99.8706 35.3197C99.5019 35.0522 99.2286 34.6992 99.0507 34.2606C98.8752 33.8222 98.812 33.3224 98.8611 32.7611C98.9102 32.1998 99.0593 31.7173 99.3085 31.3137C99.5601 30.9104 99.8906 30.609 100.3 30.4095C100.71 30.2101 101.18 30.1336 101.711 30.18C102.241 30.2264 102.691 30.3834 103.06 30.6509C103.428 30.9185 103.7 31.2726 103.876 31.7133C104.053 32.1542 104.118 32.6554 104.068 33.2167C104.019 33.778 103.869 34.2591 103.618 34.6602C103.369 35.0614 103.04 35.3617 102.63 35.5611C102.22 35.7606 101.75 35.8371 101.22 35.7907ZM101.316 34.7654C101.604 34.7905 101.852 34.7326 102.059 34.5915C102.266 34.448 102.429 34.246 102.547 33.9854C102.667 33.725 102.742 33.4297 102.77 33.0995C102.8 32.767 102.778 32.4621 102.704 32.1848C102.634 31.9053 102.509 31.6769 102.329 31.4996C102.15 31.3223 101.916 31.2211 101.629 31.1959C101.334 31.1701 101.082 31.2289 100.872 31.3721C100.664 31.5155 100.501 31.7187 100.38 31.9814C100.262 32.242 100.189 32.5386 100.16 32.8711C100.131 33.2013 100.152 33.505 100.223 33.7821C100.296 34.0594 100.422 34.2867 100.601 34.464C100.783 34.6391 101.022 34.7396 101.316 34.7654ZM104.92 36.0074L105.395 30.5736L107.677 30.7733C108.321 30.8296 108.818 31.0026 109.168 31.2923C109.52 31.5821 109.676 31.957 109.636 32.4169C109.609 32.7211 109.482 32.9607 109.252 33.1355C109.026 33.3082 108.728 33.4116 108.359 33.4459C108.642 33.4944 108.886 33.5882 109.09 33.7273C109.297 33.8666 109.453 34.0394 109.558 34.2459C109.664 34.4524 109.705 34.683 109.683 34.9377C109.657 35.2372 109.555 35.4909 109.377 35.6988C109.203 35.9045 108.96 36.0556 108.65 36.152C108.342 36.2463 107.976 36.2748 107.552 36.2377L104.92 36.0074ZM106.207 35.1041L107.64 35.2295C107.876 35.2501 108.066 35.2109 108.21 35.1118C108.354 35.0104 108.435 34.8629 108.452 34.6695C108.471 34.4455 108.419 34.2639 108.296 34.1248C108.173 33.9833 107.994 33.9023 107.758 33.8816L106.325 33.7563L106.207 35.1041ZM106.397 32.9285L107.505 33.0254C107.679 33.0406 107.831 33.029 107.96 32.9904C108.09 32.9494 108.192 32.8859 108.266 32.7997C108.34 32.7111 108.383 32.602 108.394 32.4722C108.411 32.2859 108.347 32.133 108.203 32.0135C108.061 31.8941 107.856 31.8227 107.587 31.7992L106.504 31.7045L106.397 32.9285Z" fill="#FAFDFF"/>
</g>
<defs>
<filter id="filter0_d_1_6464" x="0" y="0" width="133.681" height="57.3215" filterUnits="userSpaceOnUse" color-interpolation-filters="sRGB">
<feFlood flood-opacity="0" result="BackgroundImageFix"/>
<feColorMatrix in="SourceAlpha" type="matrix" values="0 0 0 0 0 0 0 0 0 0 0 0 0 0 0 0 0 0 127 0" result="hardAlpha"/>
<feOffset/>
<feGaussianBlur stdDeviation="6"/>
<feComposite in2="hardAlpha" operator="out"/>
<feColorMatrix type="matrix" values="0 0 0 0 0 0 0 0 0 0 0 0 0 0 0 0 0 0 0.12 0"/>
<feBlend mode="normal" in2="BackgroundImageFix" result="effect1_dropShadow_1_6464"/>
<feBlend mode="normal" in="SourceGraphic" in2="effect1_dropShadow_1_6464" result="shape"/>
</filter>
</defs>
</svg>
