<svg width="232" height="175" viewBox="0 0 232 175" fill="none" xmlns="http://www.w3.org/2000/svg">
<g clip-path="url(#clip0_5_1197)">
<rect y="44.8713" width="252.818" height="150.364" rx="12" transform="rotate(-10.2233 0 44.8713)" fill="url(#paint0_linear_5_1197)"/>
<path d="M21.4804 61.4247L23.063 61.1392C23.7321 61.0186 24.352 61.0588 24.9226 61.26C25.4956 61.4578 25.9771 61.7946 26.367 62.2705C26.7593 62.743 27.0183 63.3281 27.1441 64.0257C27.2689 64.7177 27.2298 65.3521 27.0268 65.929C26.8267 66.5054 26.4929 66.9878 26.0257 67.3761C25.5607 67.7611 24.9937 68.014 24.3246 68.1346L22.742 68.4201C22.0729 68.5407 21.4521 68.5036 20.8796 68.3086C20.3066 68.1108 19.8245 67.7786 19.4333 67.3118C19.0449 66.8445 18.7881 66.2635 18.6628 65.5686C18.5364 64.8681 18.5742 64.2265 18.7762 63.6439C18.9782 63.0613 19.3114 62.5761 19.7758 62.1882C20.2431 61.7998 20.8113 61.5453 21.4804 61.4247ZM21.6869 62.5698C21.2294 62.6523 20.8564 62.8185 20.5678 63.0684C20.2787 63.3154 20.0804 63.6316 19.9728 64.0171C19.8652 64.4026 19.856 64.8427 19.9452 65.3373C20.0323 65.8206 20.1931 66.2211 20.4276 66.539C20.6644 66.8536 20.9614 67.0761 21.3185 67.2065C21.6752 67.3341 22.0808 67.3569 22.5354 67.2749L24.1224 66.9887C24.577 66.9067 24.9477 66.7439 25.2344 66.5003C25.5235 66.2533 25.7209 65.9402 25.8267 65.5609C25.9348 65.1783 25.9451 64.7439 25.8574 64.2578C25.7692 63.7689 25.6076 63.364 25.3727 63.0432C25.14 62.7191 24.8451 62.4918 24.488 62.3614C24.1332 62.2276 23.7285 62.2016 23.2738 62.2836L21.6869 62.5698ZM22.7154 59.9974L24.3923 69.296L23.0928 69.5303L21.4158 60.2318L22.7154 59.9974ZM32.2571 67.6429C31.6395 67.7543 31.075 67.7099 30.5636 67.5099C30.0521 67.3098 29.6233 66.9783 29.277 66.5152C28.9308 66.0521 28.6963 65.4803 28.5735 64.7998C28.4503 64.1164 28.4697 63.4959 28.6319 62.9381C28.7941 62.3804 29.0798 61.9185 29.4891 61.5524C29.8984 61.1863 30.4119 60.9476 31.0295 60.8362C31.6471 60.7248 32.2117 60.7691 32.7231 60.9692C33.2345 61.1692 33.6636 61.5022 34.0104 61.9682C34.3571 62.4341 34.5922 63.0087 34.7154 63.6921C34.8381 64.3727 34.8182 64.9903 34.6555 65.5452C34.4928 66.1001 34.2068 66.5605 33.7975 66.9266C33.3882 67.2927 32.8747 67.5315 32.2571 67.6429ZM32.0672 66.5656C32.4675 66.4934 32.7801 66.3277 33.005 66.0687C33.2299 65.8097 33.3736 65.493 33.436 65.1186C33.5012 64.7437 33.4957 64.3446 33.4193 63.9214C33.3435 63.5011 33.2096 63.1267 33.0175 62.7982C32.8277 62.4663 32.582 62.2169 32.2803 62.0499C31.9785 61.8829 31.6275 61.8355 31.2272 61.9077C30.824 61.9804 30.5088 62.1479 30.2816 62.4104C30.0572 62.6722 29.9126 62.9921 29.8479 63.3698C29.7855 63.7442 29.7922 64.1416 29.868 64.5619C29.9444 64.9851 30.0771 65.3612 30.2664 65.6902C30.4585 66.0187 30.7051 66.265 31.0064 66.4292C31.3104 66.5928 31.6641 66.6383 32.0672 66.5656ZM34.9535 61.3596L34.7539 60.2531L40.3125 59.2506L40.5121 60.3572L38.3633 60.7447L39.3518 66.2261L38.0994 66.4519L37.1109 60.9706L34.9535 61.3596ZM45.3493 65.2817C44.7317 65.3931 44.1672 65.3488 43.6558 65.1487C43.1444 64.9487 42.7155 64.6171 42.3693 64.154C42.023 63.691 41.7885 63.1192 41.6658 62.4386C41.5425 61.7553 41.562 61.1347 41.7242 60.577C41.8863 60.0193 42.1721 59.5574 42.5814 59.1913C42.9907 58.8252 43.5041 58.5864 44.1218 58.475C44.7394 58.3636 45.3039 58.408 45.8153 58.608C46.3267 58.8081 46.7558 59.1411 47.1026 59.607C47.4494 60.0729 47.6844 60.6476 47.8076 61.331C47.9304 62.0115 47.9104 62.6292 47.7477 63.184C47.585 63.7389 47.299 64.1994 46.8897 64.5655C46.4804 64.9316 45.9669 65.1703 45.3493 65.2817ZM45.1595 64.2044C45.5598 64.1322 45.8724 63.9666 46.0973 63.7075C46.3222 63.4485 46.4658 63.1318 46.5282 62.7574C46.5934 62.3825 46.5879 61.9835 46.5116 61.5603C46.4358 61.14 46.3018 60.7655 46.1097 60.4371C45.92 60.1052 45.6742 59.8557 45.3725 59.6887C45.0708 59.5217 44.7197 59.4743 44.3194 59.5465C43.9163 59.6192 43.601 59.7868 43.3738 60.0492C43.1494 60.3111 43.0049 60.6309 42.9401 61.0087C42.8778 61.3831 42.8845 61.7804 42.9603 62.2008C43.0366 62.6239 43.1694 63 43.3586 63.329C43.5507 63.6575 43.7974 63.9039 44.0986 64.068C44.4027 64.2316 44.7563 64.2771 45.1595 64.2044Z" fill="#FAFDFF"/>
<rect x="22.297" y="89.6245" width="223.636" height="27.6364" rx="4.09091" transform="rotate(-10.2233 22.297 89.6245)" fill="#2E2D2F"/>
<path opacity="0.6" d="M38.0397 96.8207L39.2718 103.653L38.4445 103.802L37.3448 97.7038L33.9021 98.3247L35.0019 104.423L34.1746 104.572L32.9425 97.74L38.0397 96.8207ZM42.9347 103.102C42.4722 103.186 42.0464 103.149 41.6576 102.992C41.2709 102.834 40.9441 102.575 40.677 102.214C40.4121 101.853 40.2319 101.408 40.1365 100.879C40.0402 100.345 40.0529 99.8619 40.1746 99.4289C40.2985 98.9955 40.5141 98.6375 40.8213 98.3547C41.1308 98.0716 41.5168 97.8883 41.9794 97.8049C42.4419 97.7215 42.8665 97.7585 43.2532 97.9161C43.6421 98.0733 43.9691 98.3335 44.2344 98.6967C44.5019 99.0595 44.6838 99.5078 44.78 100.042C44.8755 100.571 44.8611 101.051 44.7368 101.482C44.6147 101.913 44.3989 102.27 44.0894 102.553C43.7822 102.836 43.3973 103.019 42.9347 103.102ZM42.8072 102.395C43.1586 102.332 43.4314 102.19 43.6258 101.968C43.8201 101.747 43.9453 101.48 44.0014 101.167C44.0574 100.854 44.0545 100.526 43.9928 100.184C43.931 99.841 43.819 99.5317 43.6566 99.2556C43.4943 98.9795 43.2833 98.7707 43.0236 98.6292C42.7638 98.4878 42.4583 98.4487 42.1069 98.5121C41.7555 98.5755 41.4828 98.7188 41.2889 98.9421C41.0949 99.1653 40.9702 99.4347 40.9145 99.7501C40.8589 100.066 40.862 100.395 40.9237 100.737C40.9855 101.079 41.0973 101.388 41.2593 101.662C41.4212 101.936 41.6318 102.142 41.8911 102.281C42.1505 102.421 42.4558 102.458 42.8072 102.395ZM47.0169 101.057L48.7708 96.6489L49.6781 96.4853L50.6022 101.609L49.815 101.751L49.1002 97.7882L47.3597 102.194L46.439 102.36L45.5149 97.2361L46.3022 97.0941L47.0169 101.057ZM54.145 101.081C53.6647 101.167 53.2306 101.128 52.8427 100.964C52.4549 100.8 52.1316 100.535 51.873 100.171C51.6144 99.8067 51.439 99.3687 51.3468 98.8572C51.2529 98.3368 51.2657 97.8603 51.3852 97.4278C51.5065 96.9926 51.7192 96.6316 52.0234 96.3448C52.3294 96.0554 52.7137 95.869 53.1763 95.7855C53.5366 95.7206 53.8733 95.7287 54.1865 95.81C54.4997 95.8913 54.7702 96.0354 54.9981 96.2423C55.226 96.4492 55.3911 96.7088 55.4933 97.021L54.7061 97.163C54.6039 96.9403 54.4332 96.7575 54.1938 96.6147C53.9564 96.4692 53.6641 96.4278 53.3172 96.4903C53.0103 96.5457 52.7556 96.6743 52.5532 96.8761C52.3526 97.0753 52.2139 97.3311 52.1371 97.6435C52.0621 97.9532 52.0594 98.3016 52.1292 98.6886C52.2006 99.0844 52.3251 99.4179 52.5025 99.689C52.6822 99.9597 52.9013 100.156 53.1596 100.277C53.4202 100.397 53.7061 100.429 54.0175 100.373C54.2221 100.336 54.4014 100.267 54.5553 100.166C54.7093 100.065 54.8321 99.9371 54.9237 99.7828C55.0152 99.6285 55.0686 99.4535 55.0839 99.2579L55.8711 99.1159C55.8812 99.4264 55.8203 99.7187 55.6883 99.9928C55.5581 100.264 55.3625 100.497 55.1012 100.691C54.8418 100.883 54.5231 101.012 54.145 101.081ZM57.2916 100.403L56.3675 95.2789L57.1547 95.1369L57.5566 97.3653L58.077 97.2714L59.5166 94.711L60.5307 94.5281L58.9076 97.3696L61.4815 99.6472L60.4673 99.8301L58.3962 97.9717L57.689 98.0992L58.0788 100.261L57.2916 100.403Z" fill="#FAFDFF"/>
<path d="M64.8105 120.986C67.1081 120.571 69.3068 122.098 69.7212 124.396L72.206 138.174C72.6204 140.471 71.0935 142.67 68.7959 143.084L37.1252 148.796C34.8277 149.21 32.6288 147.684 32.2145 145.386L29.7297 131.608C29.3154 129.311 30.8423 127.112 33.1398 126.697L64.8105 120.986Z" fill="#262728"/>
<path d="M64.8105 120.986C67.1081 120.571 69.3068 122.098 69.7212 124.396L72.206 138.174C72.6204 140.471 71.0935 142.67 68.7959 143.084L37.1252 148.796C34.8277 149.21 32.6288 147.684 32.2145 145.386L29.7297 131.608C29.3154 129.311 30.8423 127.112 33.1398 126.697L64.8105 120.986Z" stroke="#A1D8EE" stroke-width="0.272727"/>
<path d="M41.7814 133.382L42.8623 133.187C43.3693 133.096 43.8401 133.128 44.2747 133.284C44.7092 133.44 45.0753 133.7 45.3729 134.064C45.6705 134.428 45.8675 134.877 45.9637 135.411C46.06 135.945 46.0325 136.436 45.8813 136.883C45.7301 137.331 45.4783 137.704 45.126 138.004C44.7736 138.304 44.344 138.5 43.8369 138.592L42.7561 138.787C42.249 138.878 41.7782 138.846 41.3437 138.69C40.9091 138.534 40.543 138.274 40.2454 137.91C39.9478 137.546 39.7509 137.097 39.6546 136.563C39.5583 136.029 39.5858 135.538 39.737 135.091C39.8883 134.643 40.14 134.27 40.4924 133.97C40.8447 133.67 41.2744 133.474 41.7814 133.382ZM41.9138 134.116C41.5268 134.186 41.2146 134.326 40.977 134.537C40.7416 134.747 40.5816 135.012 40.4971 135.333C40.4148 135.653 40.4097 136.013 40.4819 136.414C40.5533 136.809 40.6833 137.142 40.8719 137.411C41.0627 137.68 41.3051 137.871 41.599 137.986C41.8952 138.1 42.2367 138.122 42.6237 138.053L43.7045 137.858C44.0915 137.788 44.4027 137.648 44.638 137.438C44.8756 137.227 45.0356 136.962 45.1179 136.642C45.2024 136.321 45.2086 135.961 45.1364 135.56C45.065 135.165 44.9339 134.832 44.7431 134.564C44.5545 134.294 44.3121 134.103 44.016 133.989C43.722 133.874 43.3816 133.852 42.9946 133.921L41.9138 134.116ZM42.5737 132.275L43.878 139.507L43.0507 139.656L41.7464 132.424L42.5737 132.275ZM49.9431 138.234C49.4805 138.318 49.0548 138.281 48.666 138.124C48.2793 137.966 47.9524 137.707 47.6853 137.346C47.4205 136.985 47.2403 136.54 47.1448 136.011C47.0486 135.477 47.0613 134.994 47.183 134.561C47.3069 134.128 47.5225 133.77 47.8297 133.487C48.1392 133.204 48.5252 133.02 48.9877 132.937C49.4503 132.853 49.8749 132.891 50.2616 133.048C50.6504 133.205 50.9775 133.466 51.2428 133.829C51.5103 134.192 51.6922 134.64 51.7884 135.174C51.8839 135.703 51.8695 136.183 51.7451 136.614C51.6231 137.045 51.4073 137.402 51.0978 137.685C50.7906 137.968 50.4057 138.151 49.9431 138.234ZM49.8156 137.527C50.167 137.464 50.4398 137.322 50.6342 137.1C50.8285 136.879 50.9537 136.612 51.0098 136.299C51.0658 135.986 51.0629 135.658 51.0012 135.316C50.9394 134.973 50.8273 134.664 50.665 134.388C50.5027 134.112 50.2917 133.903 50.032 133.761C49.7722 133.62 49.4667 133.581 49.1153 133.644C48.7639 133.708 48.4912 133.851 48.2973 134.074C48.1033 134.297 47.9785 134.567 47.9229 134.882C47.8673 135.198 47.8704 135.527 47.9321 135.869C47.9939 136.212 48.1057 136.52 48.2676 136.794C48.4296 137.068 48.6402 137.274 48.8995 137.413C49.1588 137.553 49.4642 137.59 49.8156 137.527ZM51.986 133.223L51.8536 132.489L56.0169 131.738L56.1492 132.472L54.4679 132.775L55.2597 137.165L54.4724 137.307L53.6806 132.917L51.986 133.223ZM59.9242 136.434C59.4616 136.518 59.0359 136.481 58.647 136.324C58.2603 136.166 57.9335 135.907 57.6664 135.546C57.4015 135.185 57.2213 134.74 57.1259 134.211C57.0296 133.677 57.0423 133.194 57.164 132.761C57.2879 132.328 57.5035 131.969 57.8107 131.687C58.1202 131.404 58.5062 131.22 58.9688 131.137C59.4314 131.053 59.856 131.091 60.2426 131.248C60.6315 131.405 60.9585 131.666 61.2238 132.029C61.4913 132.392 61.6732 132.84 61.7695 133.374C61.8649 133.903 61.8505 134.383 61.7262 134.814C61.6041 135.245 61.3883 135.602 61.0789 135.885C60.7716 136.168 60.3867 136.351 59.9242 136.434ZM59.7966 135.727C60.148 135.664 60.4209 135.521 60.6152 135.3C60.8096 135.079 60.9348 134.812 60.9908 134.499C61.0468 134.186 61.0439 133.858 60.9822 133.515C60.9204 133.173 60.8084 132.864 60.6461 132.588C60.4837 132.311 60.2727 132.103 60.013 131.961C59.7533 131.82 59.4477 131.781 59.0963 131.844C58.7449 131.907 58.4723 132.051 58.2783 132.274C58.0844 132.497 57.9596 132.767 57.9039 133.082C57.8483 133.398 57.8514 133.727 57.9131 134.069C57.9749 134.411 58.0868 134.72 58.2487 134.994C58.4106 135.267 58.6212 135.474 58.8805 135.613C59.1399 135.753 59.4452 135.79 59.7966 135.727Z" fill="#FAFDFF"/>
<path d="M74.955 123.452C74.554 121.229 76.0314 119.101 78.2548 118.7L133.545 108.729C135.768 108.328 137.896 109.805 138.297 112.028L140.782 125.806C141.183 128.03 139.705 130.157 137.482 130.558L82.1918 140.53C79.9683 140.931 77.8407 139.453 77.4397 137.23L74.955 123.452Z" fill="#2E2D2F"/>
<path d="M89.1189 127.242L89.2513 127.976L86.4358 128.484L86.3034 127.75L89.1189 127.242ZM84.9571 129.605L85.8111 129.451C85.9711 129.918 86.2 130.258 86.4978 130.471C86.7957 130.683 87.2215 130.74 87.7752 130.64C88.1666 130.569 88.4737 130.4 88.6964 130.133C88.9214 129.865 89.0668 129.538 89.1326 129.152C89.2007 128.765 89.1962 128.358 89.1192 127.931L88.982 127.171C88.897 126.699 88.7477 126.298 88.5341 125.967C88.3223 125.633 88.0594 125.391 87.7453 125.241C87.4331 125.088 87.0834 125.047 86.6965 125.117C86.3584 125.178 86.0891 125.288 85.8883 125.448C85.6876 125.609 85.5452 125.812 85.4612 126.059C85.3771 126.306 85.3414 126.592 85.3538 126.916L84.4998 127.07C84.4657 126.626 84.5149 126.217 84.6474 125.844C84.7818 125.469 85.0061 125.153 85.3203 124.896C85.6364 124.637 86.0502 124.462 86.5617 124.369C87.1177 124.269 87.6215 124.313 88.0732 124.5C88.5245 124.685 88.9025 124.992 89.2073 125.422C89.5117 125.849 89.7205 126.376 89.8336 127.003L89.9756 127.791C90.0887 128.418 90.0784 128.984 89.9447 129.491C89.8105 129.995 89.5699 130.411 89.2228 130.74C88.8753 131.067 88.4369 131.278 87.9076 131.374C87.365 131.472 86.8958 131.455 86.5003 131.324C86.1065 131.191 85.7815 130.974 85.5252 130.674C85.2708 130.37 85.0814 130.014 84.9571 129.605ZM91.3509 130.656L91.2186 129.922L91.4054 129.889C91.5588 129.861 91.6813 129.808 91.7728 129.729C91.8638 129.649 91.9267 129.526 91.9613 129.361C91.9977 129.194 92.0077 128.969 91.9913 128.688C91.9768 128.403 91.9386 128.045 91.8767 127.613L91.561 125.328L94.977 124.712L95.9011 129.836L95.1138 129.978L94.3221 125.588L92.4406 125.927L92.6903 127.769C92.7483 128.193 92.7772 128.57 92.7772 128.901C92.7789 129.229 92.7414 129.511 92.6647 129.748C92.5902 129.984 92.4682 130.173 92.2989 130.317C92.1295 130.46 91.9024 130.557 91.6178 130.608L91.3509 130.656ZM99.5131 129.294C99.0194 129.383 98.5739 129.351 98.1765 129.198C97.781 129.042 97.451 128.785 97.1865 128.426C96.9238 128.064 96.7452 127.621 96.6505 127.096C96.5559 126.572 96.5681 126.092 96.6871 125.657C96.808 125.22 97.0206 124.857 97.3248 124.571C97.6308 124.281 98.0151 124.095 98.4777 124.011C98.7445 123.963 99.0161 123.96 99.2923 124.002C99.5686 124.044 99.8315 124.146 100.081 124.308C100.33 124.467 100.548 124.699 100.733 125.003C100.919 125.307 101.055 125.698 101.141 126.176L101.202 126.51L97.2519 127.222L97.1291 126.542L100.278 125.974C100.226 125.685 100.122 125.437 99.9652 125.231C99.8109 125.025 99.6162 124.875 99.3813 124.782C99.1486 124.688 98.8899 124.667 98.6052 124.719C98.2916 124.775 98.0344 124.902 97.8334 125.099C97.6342 125.293 97.4957 125.525 97.4179 125.794C97.3401 126.063 97.3267 126.338 97.3776 126.621L97.4595 127.075C97.5292 127.462 97.6551 127.778 97.8371 128.023C98.0209 128.265 98.2455 128.435 98.511 128.531C98.776 128.626 99.0675 128.645 99.3856 128.587C99.5924 128.55 99.774 128.487 99.9304 128.399C100.089 128.309 100.218 128.194 100.319 128.054C100.42 127.912 100.488 127.746 100.522 127.556L101.321 127.632C101.288 127.904 101.194 128.155 101.04 128.385C100.886 128.613 100.68 128.806 100.422 128.965C100.163 129.122 99.86 129.232 99.5131 129.294ZM105.423 127.016L106.479 122.637L107.226 122.503L105.935 128.026L105.295 128.141L102.196 123.41L102.93 123.277L105.423 127.016ZM102.676 123.323L103.6 128.447L102.813 128.589L101.889 123.465L102.676 123.323ZM107.63 127.72L106.706 122.596L107.493 122.454L108.417 127.578L107.63 127.72ZM112.026 127.038C111.532 127.127 111.087 127.095 110.689 126.941C110.294 126.785 109.964 126.528 109.699 126.169C109.437 125.808 109.258 125.365 109.164 124.84C109.069 124.315 109.081 123.835 109.2 123.4C109.321 122.963 109.534 122.601 109.838 122.314C110.144 122.025 110.528 121.838 110.991 121.755C111.258 121.707 111.529 121.704 111.805 121.746C112.082 121.788 112.344 121.889 112.594 122.051C112.843 122.211 113.061 122.442 113.246 122.746C113.432 123.05 113.568 123.442 113.654 123.92L113.715 124.253L109.765 124.966L109.642 124.285L112.791 123.717C112.739 123.428 112.635 123.18 112.478 122.974C112.324 122.768 112.129 122.618 111.894 122.525C111.662 122.432 111.403 122.411 111.118 122.462C110.805 122.519 110.547 122.645 110.346 122.842C110.147 123.037 110.009 123.268 109.931 123.537C109.853 123.806 109.84 124.082 109.891 124.364L109.972 124.818C110.042 125.205 110.168 125.521 110.35 125.766C110.534 126.008 110.758 126.178 111.024 126.275C111.289 126.369 111.581 126.388 111.899 126.331C112.105 126.293 112.287 126.231 112.443 126.143C112.602 126.052 112.731 125.937 112.832 125.797C112.933 125.655 113.001 125.489 113.035 125.299L113.834 125.375C113.801 125.648 113.707 125.899 113.553 126.129C113.399 126.356 113.193 126.549 112.935 126.709C112.676 126.865 112.373 126.975 112.026 127.038ZM118.228 122.792L118.361 123.526L115.532 124.036L115.399 123.302L118.228 122.792ZM115.189 121.066L116.113 126.19L115.326 126.332L114.402 121.208L115.189 121.066ZM118.432 120.482L119.356 125.606L118.569 125.748L117.644 120.624L118.432 120.482ZM119.305 121.082L119.172 120.348L123.336 119.597L123.468 120.331L121.787 120.634L122.578 125.024L121.791 125.166L120.999 120.776L119.305 121.082ZM125.499 121.122L126.967 120.857C127.567 120.749 128.054 120.819 128.427 121.066C128.8 121.313 129.028 121.671 129.113 122.138C129.168 122.444 129.147 122.736 129.05 123.013C128.953 123.288 128.78 123.525 128.531 123.724C128.281 123.92 127.957 124.054 127.556 124.127L125.408 124.514L124.484 119.39L125.271 119.248L126.063 123.638L127.424 123.393C127.735 123.337 127.976 123.208 128.147 123.008C128.317 122.807 128.379 122.578 128.333 122.32C128.284 122.048 128.144 121.845 127.913 121.71C127.682 121.575 127.41 121.535 127.099 121.591L125.631 121.856L125.499 121.122ZM130.225 123.645L129.301 118.521L130.088 118.379L131.012 123.503L130.225 123.645Z" fill="#FAFDFF"/>
<rect x="142.939" y="107.034" width="52.3636" height="22.1818" rx="4.09091" transform="rotate(-10.2233 142.939 107.034)" fill="#2E2D2F"/>
<path d="M155.582 112.859L156.663 112.664C157.17 112.572 157.641 112.605 158.075 112.76C158.51 112.916 158.876 113.176 159.173 113.54C159.471 113.905 159.668 114.354 159.764 114.887C159.86 115.421 159.833 115.912 159.682 116.359C159.53 116.807 159.279 117.181 158.926 117.481C158.574 117.781 158.144 117.976 157.637 118.068L156.556 118.263C156.049 118.354 155.579 118.322 155.144 118.166C154.71 118.01 154.343 117.75 154.046 117.386C153.748 117.022 153.551 116.573 153.455 116.039C153.359 115.505 153.386 115.015 153.537 114.567C153.689 114.12 153.94 113.746 154.293 113.446C154.645 113.146 155.075 112.95 155.582 112.859ZM155.714 113.593C155.327 113.662 155.015 113.802 154.777 114.013C154.542 114.223 154.382 114.488 154.298 114.809C154.215 115.129 154.21 115.49 154.282 115.89C154.354 116.286 154.484 116.618 154.672 116.887C154.863 117.156 155.106 117.348 155.399 117.462C155.696 117.577 156.037 117.599 156.424 117.529L157.505 117.334C157.892 117.264 158.203 117.124 158.438 116.914C158.676 116.704 158.836 116.438 158.918 116.118C159.003 115.797 159.009 115.437 158.937 115.037C158.865 114.641 158.734 114.309 158.544 114.04C158.355 113.771 158.113 113.579 157.816 113.465C157.522 113.35 157.182 113.328 156.795 113.398L155.714 113.593ZM156.374 111.751L157.678 118.984L156.851 119.133L155.547 111.901L156.374 111.751ZM162.221 116.676L163.974 112.268L164.882 112.105L165.806 117.228L165.019 117.37L164.304 113.407L162.563 117.813L161.643 117.979L160.719 112.855L161.506 112.713L162.221 116.676ZM169.486 111.274L169.619 112.008L167.243 112.436L168.035 116.826L167.248 116.968L166.324 111.844L169.486 111.274ZM172.413 118.021C172.28 118.045 172.159 118.055 172.05 118.052C171.942 118.051 171.866 118.044 171.822 118.031L171.897 117.301C172.098 117.315 172.27 117.303 172.414 117.263C172.559 117.223 172.677 117.134 172.769 116.996C172.864 116.859 172.936 116.652 172.984 116.375L173.059 115.948L170.235 111.139L171.089 110.985L173.24 114.813L173.293 114.804L173.971 110.465L174.825 110.311L173.709 116.575C173.659 116.857 173.577 117.098 173.464 117.297C173.351 117.499 173.207 117.66 173.031 117.779C172.857 117.897 172.651 117.978 172.413 118.021ZM177.135 117.169L175.864 110.124L176.625 109.987L176.772 110.801L176.865 110.784C176.907 110.684 176.967 110.557 177.044 110.4C177.123 110.241 177.25 110.09 177.424 109.946C177.599 109.799 177.854 109.696 178.188 109.636C178.619 109.558 179.019 109.597 179.387 109.754C179.755 109.91 180.067 110.17 180.323 110.532C180.579 110.895 180.755 111.345 180.852 111.883C180.95 112.426 180.943 112.913 180.83 113.344C180.717 113.774 180.516 114.127 180.229 114.403C179.941 114.678 179.583 114.854 179.156 114.931C178.827 114.99 178.554 114.983 178.336 114.91C178.118 114.835 177.943 114.736 177.811 114.616C177.679 114.493 177.575 114.389 177.501 114.307L177.434 114.319L177.922 117.027L177.135 117.169ZM177.1 112.546C177.17 112.933 177.288 113.264 177.455 113.54C177.622 113.813 177.829 114.013 178.077 114.141C178.324 114.266 178.606 114.3 178.922 114.243C179.251 114.184 179.51 114.047 179.699 113.834C179.89 113.618 180.014 113.353 180.072 113.037C180.132 112.718 180.128 112.377 180.063 112.012C179.998 111.652 179.884 111.337 179.72 111.068C179.559 110.796 179.352 110.596 179.099 110.467C178.848 110.336 178.555 110.3 178.222 110.36C177.901 110.418 177.647 110.548 177.458 110.749C177.269 110.949 177.145 111.203 177.086 111.512C177.027 111.819 177.031 112.164 177.1 112.546ZM182.604 110.823L184.072 110.559C184.672 110.45 185.159 110.52 185.532 110.767C185.905 111.015 186.133 111.372 186.218 111.839C186.273 112.146 186.252 112.438 186.155 112.715C186.058 112.989 185.885 113.226 185.636 113.425C185.386 113.621 185.062 113.756 184.661 113.828L182.513 114.215L181.589 109.091L182.376 108.949L183.168 113.34L184.529 113.094C184.84 113.038 185.081 112.91 185.252 112.709C185.422 112.508 185.484 112.279 185.438 112.021C185.389 111.75 185.249 111.546 185.018 111.411C184.787 111.276 184.515 111.237 184.204 111.293L182.736 111.557L182.604 110.823ZM187.33 113.347L186.406 108.223L187.193 108.081L188.117 113.205L187.33 113.347Z" fill="#FAFDFF"/>
<rect x="34.0432" y="154.756" width="51.3636" height="22.1818" rx="4.09091" transform="rotate(-10.2233 34.0432 154.756)" fill="#2E2D2F"/>
<path d="M44.1912 160.189L45.0052 160.043L45.975 165.42L46.0417 165.408L48.8081 159.357L49.6087 159.212L50.8408 166.044L50.0135 166.194L49.0461 160.829L48.9794 160.841L46.2239 166.877L45.4233 167.021L44.1912 160.189ZM52.3895 165.765L51.4654 160.641L52.2527 160.499L52.6546 162.727L53.175 162.634L54.6145 160.073L55.6286 159.89L54.0056 162.732L56.5794 165.009L55.5653 165.192L53.4942 163.334L52.7869 163.461L53.1768 165.623L52.3895 165.765ZM59.3249 164.624C58.8624 164.708 58.4366 164.671 58.0478 164.514C57.6611 164.356 57.3343 164.097 57.0672 163.737C56.8023 163.376 56.6221 162.93 56.5267 162.401C56.4304 161.867 56.4431 161.384 56.5648 160.951C56.6887 160.518 56.9043 160.16 57.2115 159.877C57.521 159.594 57.907 159.41 58.3696 159.327C58.8321 159.244 59.2567 159.281 59.6434 159.438C60.0323 159.596 60.3593 159.856 60.6246 160.219C60.8921 160.582 61.074 161.03 61.1702 161.564C61.2657 162.093 61.2513 162.573 61.127 163.004C61.0049 163.435 60.7891 163.792 60.4796 164.075C60.1724 164.358 59.7875 164.541 59.3249 164.624ZM59.1974 163.917C59.5488 163.854 59.8216 163.712 60.016 163.491C60.2104 163.27 60.3355 163.002 60.3916 162.689C60.4476 162.376 60.4447 162.048 60.383 161.706C60.3212 161.363 60.2092 161.054 60.0468 160.778C59.8845 160.502 59.6735 160.293 59.4138 160.151C59.154 160.01 58.8485 159.971 58.4971 160.034C58.1457 160.098 57.8731 160.241 57.6791 160.464C57.4851 160.688 57.3604 160.957 57.3047 161.272C57.2491 161.588 57.2522 161.917 57.3139 162.259C57.3757 162.602 57.4875 162.91 57.6495 163.184C57.8114 163.458 58.022 163.664 58.2813 163.803C58.5407 163.943 58.846 163.981 59.1974 163.917ZM65.7315 160.342L65.8639 161.075L63.035 161.586L62.9027 160.852L65.7315 160.342ZM62.6924 158.616L63.6165 163.74L62.8292 163.882L61.9051 158.758L62.6924 158.616ZM65.9349 158.032L66.859 163.155L66.0717 163.297L65.1476 158.174L65.9349 158.032ZM68.2968 162.896L67.3727 157.772L68.16 157.63L68.5618 159.859L69.0822 159.765L70.5218 157.204L71.5359 157.021L69.9128 159.863L72.4867 162.141L71.4726 162.323L69.4014 160.465L68.6942 160.593L69.0841 162.754L68.2968 162.896ZM73.9202 160.683L75.6741 156.275L76.5815 156.111L77.5055 161.235L76.7183 161.377L76.0035 157.414L74.263 161.82L73.3423 161.986L72.4182 156.862L73.2055 156.72L73.9202 160.683Z" fill="#FAFDFF"/>
<rect x="89.9594" y="144.671" width="52.3636" height="22.1818" rx="4.09091" transform="rotate(-10.2233 89.9594 144.671)" fill="#2E2D2F"/>
<path d="M104.849 152.488L104.982 153.222L102.166 153.729L102.034 152.996L104.849 152.488ZM100.688 154.85L101.542 154.696C101.702 155.163 101.93 155.503 102.228 155.716C102.526 155.929 102.952 155.985 103.506 155.885C103.897 155.815 104.204 155.646 104.427 155.378C104.652 155.11 104.797 154.783 104.863 154.397C104.931 154.01 104.927 153.604 104.85 153.177L104.712 152.416C104.627 151.945 104.478 151.543 104.265 151.212C104.053 150.878 103.79 150.636 103.476 150.486C103.164 150.334 102.814 150.292 102.427 150.362C102.089 150.423 101.82 150.534 101.619 150.694C101.418 150.854 101.276 151.058 101.192 151.305C101.108 151.552 101.072 151.837 101.084 152.161L100.23 152.315C100.196 151.871 100.245 151.463 100.378 151.09C100.512 150.714 100.737 150.398 101.051 150.142C101.367 149.883 101.781 149.707 102.292 149.615C102.848 149.514 103.352 149.558 103.804 149.745C104.255 149.93 104.633 150.237 104.938 150.667C105.242 151.094 105.451 151.621 105.564 152.249L105.706 153.036C105.819 153.663 105.809 154.23 105.675 154.736C105.541 155.24 105.3 155.657 104.953 155.986C104.606 156.312 104.167 156.524 103.638 156.619C103.095 156.717 102.626 156.7 102.231 156.57C101.837 156.436 101.512 156.219 101.256 155.919C101.001 155.616 100.812 155.26 100.688 154.85ZM110.145 154.247L111.201 149.868L111.948 149.733L110.657 155.257L110.017 155.372L106.918 150.64L107.652 150.508L110.145 154.247ZM107.398 150.554L108.322 155.678L107.535 155.82L106.611 150.696L107.398 150.554ZM112.352 154.951L111.428 149.827L112.215 149.685L113.139 154.809L112.352 154.951ZM116.681 154.28C116.219 154.364 115.793 154.327 115.404 154.17C115.018 154.012 114.691 153.753 114.424 153.393C114.159 153.032 113.979 152.586 113.883 152.057C113.787 151.523 113.8 151.04 113.921 150.607C114.045 150.174 114.261 149.816 114.568 149.533C114.877 149.25 115.263 149.066 115.726 148.983C116.189 148.9 116.613 148.937 117 149.094C117.389 149.252 117.716 149.512 117.981 149.875C118.249 150.238 118.43 150.686 118.527 151.22C118.622 151.749 118.608 152.229 118.483 152.66C118.361 153.091 118.146 153.448 117.836 153.731C117.529 154.014 117.144 154.197 116.681 154.28ZM116.554 153.573C116.905 153.51 117.178 153.368 117.372 153.147C117.567 152.926 117.692 152.658 117.748 152.345C117.804 152.032 117.801 151.704 117.739 151.362C117.678 151.019 117.566 150.71 117.403 150.434C117.241 150.158 117.03 149.949 116.77 149.807C116.51 149.666 116.205 149.627 115.854 149.69C115.502 149.754 115.229 149.897 115.036 150.12C114.842 150.344 114.717 150.613 114.661 150.928C114.606 151.244 114.609 151.573 114.67 151.915C114.732 152.258 114.844 152.566 115.006 152.84C115.168 153.114 115.378 153.32 115.638 153.459C115.897 153.599 116.202 153.637 116.554 153.573ZM119.903 155.105L119.506 152.903L119.933 152.826C120.018 152.698 120.087 152.564 120.14 152.424C120.192 152.283 120.231 152.121 120.255 151.938C120.281 151.752 120.292 151.529 120.287 151.271C120.281 151.01 120.261 150.698 120.228 150.334L120.035 148.275L123.291 147.688L124.083 152.078L124.87 151.936L125.267 154.137L124.48 154.279L124.215 152.812L120.426 153.495L120.691 154.963L119.903 155.105ZM120.827 152.665L123.296 152.22L122.636 148.563L120.902 148.876L121.002 150.195C121.043 150.741 121.058 151.221 121.048 151.636C121.038 152.052 120.964 152.394 120.827 152.665ZM125.492 151.231L126.332 151.08C126.392 151.308 126.528 151.464 126.741 151.55C126.956 151.635 127.218 151.65 127.527 151.594C127.843 151.537 128.102 151.424 128.303 151.255C128.504 151.083 128.578 150.851 128.526 150.56C128.495 150.389 128.426 150.247 128.318 150.136C128.21 150.022 128.073 149.943 127.907 149.9C127.741 149.856 127.553 149.854 127.344 149.891L126.463 150.05L126.336 149.343L127.217 149.184C127.53 149.128 127.749 149.015 127.872 148.845C127.998 148.676 128.041 148.484 128.003 148.271C127.961 148.042 127.847 147.873 127.66 147.764C127.472 147.653 127.229 147.625 126.931 147.679C126.631 147.733 126.393 147.846 126.217 148.018C126.041 148.187 125.967 148.378 125.994 148.592L125.166 148.741C125.126 148.464 125.166 148.205 125.288 147.965C125.41 147.722 125.598 147.516 125.852 147.346C126.106 147.174 126.41 147.056 126.766 146.992C127.126 146.927 127.45 146.934 127.738 147.013C128.027 147.09 128.264 147.223 128.447 147.412C128.632 147.599 128.749 147.828 128.798 148.1C128.85 148.389 128.811 148.637 128.681 148.844C128.551 149.051 128.37 149.215 128.139 149.335L128.149 149.388C128.345 149.366 128.524 149.398 128.686 149.484C128.851 149.567 128.989 149.69 129.101 149.853C129.213 150.015 129.288 150.202 129.326 150.416C129.382 150.727 129.348 151.013 129.223 151.275C129.097 151.534 128.9 151.753 128.632 151.932C128.363 152.109 128.042 152.232 127.668 152.299C127.306 152.364 126.97 152.364 126.662 152.298C126.354 152.23 126.096 152.105 125.889 151.924C125.683 151.741 125.551 151.51 125.492 151.231ZM131.267 150.341L133.021 145.933L133.929 145.769L134.853 150.893L134.066 151.035L133.351 147.072L131.61 151.478L130.69 151.644L129.765 146.52L130.553 146.378L131.267 150.341Z" fill="#FAFDFF"/>
</g>
<defs>
<linearGradient id="paint0_linear_5_1197" x1="0" y1="44.8713" x2="264.031" y2="171.937" gradientUnits="userSpaceOnUse">
<stop stop-opacity="0.2"/>
<stop offset="1" stop-opacity="0.1"/>
</linearGradient>
<clipPath id="clip0_5_1197">
<rect y="44.8713" width="252.818" height="150.364" rx="12" transform="rotate(-10.2233 0 44.8713)" fill="white"/>
</clipPath>
</defs>
</svg>
