<svg width="46" height="46" viewBox="0 0 46 46" fill="none" xmlns="http://www.w3.org/2000/svg">
<g filter="url(#filter0_f_5_1287)">
<rect x="10.3174" y="1" width="36" height="36" rx="5.625" transform="rotate(15 10.3174 1)" fill="#262728"/>
<rect x="10.5163" y="1.34446" width="35.4375" height="35.4375" rx="5.34375" transform="rotate(15 10.5163 1.34446)" stroke="#C2CCF6" stroke-opacity="0.12" stroke-width="0.5625"/>
<path d="M19.8452 28.2271L26.6067 30.0388" stroke="#A1D8EE" stroke-linecap="round" stroke-linejoin="round"/>
<path d="M17.0812 24.8171L18.529 27.3248C19.0116 28.1607 20.0878 28.4491 20.918 27.9649L28.3696 23.6628C29.2055 23.1802 29.4939 22.104 29.0098 21.2737L27.562 18.7661C27.0794 17.9302 26.0032 17.6418 25.1729 18.1259L17.7213 22.4281C16.887 22.905 16.5986 23.9813 17.0812 24.8171Z" stroke="#A1D8EE" stroke-linecap="round" stroke-linejoin="round"/>
<path d="M20.729 20.6914L23.9257 26.2283" stroke="#A1D8EE" stroke-linecap="round" stroke-linejoin="round"/>
<path d="M17.4128 24.9543L21.4508 22.6182" stroke="#A1D8EE" stroke-linecap="round" stroke-linejoin="round"/>
<path d="M18.5744 26.9746L22.6181 24.6399" stroke="#A1D8EE" stroke-linecap="round" stroke-linejoin="round"/>
</g>
<defs>
<filter id="filter0_f_5_1287" x="-0.8" y="-0.8" width="47.6908" height="47.6908" filterUnits="userSpaceOnUse" color-interpolation-filters="sRGB">
<feFlood flood-opacity="0" result="BackgroundImageFix"/>
<feBlend mode="normal" in="SourceGraphic" in2="BackgroundImageFix" result="shape"/>
<feGaussianBlur stdDeviation="0.9" result="effect1_foregroundBlur_5_1287"/>
</filter>
</defs>
</svg>
