<svg xmlns="http://www.w3.org/2000/svg" version="1.1" xmlns:xlink="http://www.w3.org/1999/xlink" width="16" height="16"><svg width="16" height="16" viewBox="0 0 16 16" fill="none" xmlns="http://www.w3.org/2000/svg">
<g clip-path="url(#clip0_1_2)">
<rect width="16" height="16" rx="2" fill="#1B1C1F"></rect>
<g clip-path="url(#clip1_1_2)">
<path d="M7.71732 7.18482C7.69925 7.01575 7.6231 6.8841 7.48888 6.78989C7.35594 6.69567 7.183 6.64856 6.97004 6.64856C6.82033 6.64856 6.69191 6.67115 6.58479 6.71632C6.47767 6.76149 6.39572 6.8228 6.33893 6.90024C6.28214 6.97767 6.2531 7.06608 6.25181 7.16546C6.25181 7.24806 6.27052 7.31969 6.30795 7.38035C6.34667 7.44101 6.39894 7.49263 6.46476 7.53523C6.53059 7.57653 6.60351 7.61137 6.68353 7.63977C6.76354 7.66816 6.84421 7.69204 6.92552 7.7114L7.29722 7.80432C7.44693 7.83917 7.59084 7.88628 7.72893 7.94564C7.86832 8.00501 7.99287 8.07987 8.10257 8.17021C8.21356 8.26056 8.30133 8.36962 8.36586 8.49739C8.43039 8.62516 8.46266 8.77487 8.46266 8.94653C8.46266 9.17884 8.40329 9.3834 8.28455 9.56022C8.16581 9.73575 7.99416 9.8732 7.76959 9.97258C7.54631 10.0707 7.27592 10.1197 6.95843 10.1197C6.64997 10.1197 6.38216 10.072 6.15501 9.97645C5.92915 9.88094 5.75234 9.74155 5.62456 9.55828C5.49808 9.37502 5.42968 9.15174 5.41935 8.88845H6.12597C6.1363 9.02655 6.17889 9.14141 6.25375 9.23305C6.3286 9.32468 6.42604 9.39308 6.54607 9.43826C6.66739 9.48343 6.80291 9.50601 6.95262 9.50601C7.10879 9.50601 7.24559 9.48278 7.36304 9.43632C7.48178 9.38857 7.5747 9.32275 7.64182 9.23885C7.70893 9.15367 7.74313 9.05429 7.74442 8.94072C7.74313 8.83747 7.7128 8.75229 7.65343 8.68517C7.59406 8.61677 7.51082 8.55998 7.4037 8.51481C7.29786 8.46835 7.17396 8.42705 7.03199 8.39091L6.58092 8.27475C6.25439 8.19086 5.99627 8.06374 5.80654 7.89337C5.61811 7.72172 5.5239 7.49392 5.5239 7.20999C5.5239 6.97638 5.58714 6.77182 5.71362 6.59629C5.84139 6.42077 6.01498 6.28461 6.23439 6.18781C6.45379 6.08972 6.70224 6.04068 6.97972 6.04068C7.26108 6.04068 7.50759 6.08972 7.71925 6.18781C7.93221 6.28461 8.09934 6.41948 8.22066 6.59242C8.34198 6.76407 8.40458 6.96154 8.40845 7.18482H7.71732Z" fill="#A1D8EE"></path>
<path d="M9.82732 6.09488V10.0597H9.12651V6.09488H9.82732Z" fill="#A1D8EE"></path>
<path d="M10.6025 10.0597V7.08609H11.3033V10.0597H10.6025ZM10.9548 6.66405C10.8438 6.66405 10.7483 6.62727 10.6683 6.5537C10.5883 6.47885 10.5483 6.38915 10.5483 6.28461C10.5483 6.17877 10.5883 6.08908 10.6683 6.01551C10.7483 5.94065 10.8438 5.90323 10.9548 5.90323C11.0671 5.90323 11.1626 5.94065 11.2414 6.01551C11.3214 6.08908 11.3614 6.17877 11.3614 6.28461C11.3614 6.38915 11.3214 6.47885 11.2414 6.5537C11.1626 6.62727 11.0671 6.66405 10.9548 6.66405Z" fill="#A1D8EE"></path>
<path d="M13.182 10.112C12.9484 10.112 12.7393 10.0519 12.5547 9.93192C12.3702 9.81189 12.2243 9.63766 12.1172 9.40922C12.0101 9.18078 11.9565 8.90329 11.9565 8.57676C11.9565 8.24636 12.0107 7.96759 12.1191 7.74043C12.2288 7.51199 12.3766 7.33969 12.5625 7.22354C12.7483 7.10609 12.9555 7.04737 13.1839 7.04737C13.3581 7.04737 13.5014 7.07705 13.6137 7.13642C13.726 7.1945 13.815 7.26484 13.8808 7.34744C13.9467 7.42875 13.9976 7.50554 14.0338 7.57782H14.0628V6.09488H14.7656V10.0597H14.0764V9.5912H14.0338C13.9976 9.66347 13.9454 9.74026 13.877 9.82157C13.8086 9.90159 13.7182 9.96999 13.6059 10.0268C13.4936 10.0836 13.3523 10.112 13.182 10.112ZM13.3775 9.53699C13.5259 9.53699 13.6524 9.49698 13.7569 9.41696C13.8615 9.33565 13.9408 9.22272 13.9951 9.07817C14.0493 8.93362 14.0764 8.76519 14.0764 8.57289C14.0764 8.38059 14.0493 8.21345 13.9951 8.07148C13.9421 7.92951 13.8634 7.81916 13.7589 7.74043C13.6556 7.66171 13.5285 7.62234 13.3775 7.62234C13.2213 7.62234 13.091 7.663 12.9864 7.74431C12.8819 7.82562 12.8032 7.9379 12.7502 8.08116C12.6973 8.22442 12.6709 8.38833 12.6709 8.57289C12.6709 8.75874 12.6973 8.92459 12.7502 9.07043C12.8045 9.21498 12.8838 9.3292 12.9884 9.41309C13.0942 9.49569 13.2239 9.53699 13.3775 9.53699Z" fill="#A1D8EE"></path>
<path d="M16.8833 10.1178C16.5852 10.1178 16.3277 10.0558 16.1109 9.93192C15.8953 9.80673 15.7295 9.62991 15.6133 9.40147C15.4972 9.17174 15.4391 8.90135 15.4391 8.59031C15.4391 8.28443 15.4972 8.01598 15.6133 7.78496C15.7308 7.55265 15.8947 7.37196 16.1051 7.2429C16.3154 7.11254 16.5626 7.04737 16.8465 7.04737C17.0298 7.04737 17.2027 7.07705 17.3654 7.13642C17.5293 7.1945 17.6738 7.28484 17.799 7.40745C17.9255 7.53006 18.0249 7.68623 18.0971 7.87595C18.1694 8.06438 18.2056 8.28895 18.2056 8.54966V8.76455H15.7682V8.29218H17.5338C17.5325 8.15795 17.5035 8.03857 17.4467 7.93403C17.3899 7.8282 17.3105 7.74495 17.2085 7.68429C17.1079 7.62363 16.9904 7.5933 16.8562 7.5933C16.7129 7.5933 16.5871 7.62815 16.4787 7.69784C16.3703 7.76625 16.2857 7.85659 16.2251 7.96888C16.1657 8.07987 16.1354 8.20183 16.1341 8.33477V8.74712C16.1341 8.92007 16.1657 9.06849 16.229 9.19239C16.2922 9.315 16.3806 9.40922 16.4942 9.47504C16.6078 9.53957 16.7407 9.57184 16.893 9.57184C16.9949 9.57184 17.0872 9.55764 17.1698 9.52925C17.2524 9.49956 17.3241 9.45633 17.3847 9.39954C17.4454 9.34275 17.4912 9.27241 17.5222 9.18852L18.1765 9.26209C18.1352 9.43503 18.0565 9.58603 17.9403 9.7151C17.8255 9.84287 17.6783 9.94225 17.4989 10.0132C17.3195 10.0829 17.1143 10.1178 16.8833 10.1178Z" fill="#A1D8EE"></path>
<path d="M18.853 10.0597V7.08609H19.5325V7.58169H19.5634C19.6177 7.41003 19.7106 7.27774 19.8422 7.18482C19.9752 7.0906 20.1268 7.0435 20.2972 7.0435C20.3359 7.0435 20.3791 7.04543 20.4269 7.0493C20.4759 7.05188 20.5166 7.0564 20.5488 7.06286V7.70752C20.5192 7.6972 20.472 7.68816 20.4075 7.68042C20.3443 7.67139 20.283 7.66687 20.2236 7.66687C20.0958 7.66687 19.981 7.69462 19.879 7.75011C19.7783 7.80432 19.699 7.87982 19.6409 7.97662C19.5828 8.07342 19.5538 8.18506 19.5538 8.31154V10.0597H18.853Z" fill="#A1D8EE"></path>
<path d="M21.595 11.1748C21.4995 11.1748 21.4111 11.1671 21.3298 11.1516C21.2498 11.1374 21.1859 11.1206 21.1382 11.1012L21.3008 10.5553C21.4027 10.585 21.4937 10.5992 21.5737 10.5979C21.6538 10.5966 21.7241 10.5714 21.7848 10.5224C21.8467 10.4746 21.899 10.3946 21.9416 10.2823L22.0016 10.1216L20.9233 7.08609H21.6667L22.352 9.33178H22.383L23.0702 7.08609H23.8156L22.625 10.4198C22.5695 10.5772 22.4959 10.7121 22.4043 10.8244C22.3126 10.938 22.2003 11.0244 22.0674 11.0838C21.9358 11.1445 21.7783 11.1748 21.595 11.1748Z" fill="#A1D8EE"></path>
<path d="M26.3019 10.0597H25.5353L26.9311 6.09488H27.8178L29.2155 10.0597H28.4489L27.3899 6.90798H27.359L26.3019 10.0597ZM26.3271 8.50513H28.4179V9.08204H26.3271V8.50513Z" fill="white"></path>
<path d="M30.5105 6.09488V10.0597H29.7923V6.09488H30.5105Z" fill="white"></path>
</g>
<rect x="-1" y="-1" width="15" height="15" rx="7.5" fill="#1B1C1F"></rect>
<g filter="url(#filter0_d_1_2)">
<path d="M8.36861 2.87401C8.42303 2.72696 8.63102 2.72696 8.68545 2.87401L9.0476 3.85261C9.06471 3.89884 9.10116 3.93529 9.14739 3.9524L10.126 4.31456C10.273 4.36898 10.273 4.57697 10.126 4.63139L9.14739 4.99355C9.10116 5.01066 9.06471 5.04711 9.0476 5.09334L8.68545 6.07193C8.63102 6.21899 8.42303 6.21899 8.36861 6.07193L8.00645 5.09334C7.98934 5.04711 7.95289 5.01066 7.90666 4.99355L6.92807 4.63139C6.78101 4.57697 6.78101 4.36898 6.92807 4.31456L7.90666 3.9524C7.95289 3.93529 7.98934 3.89884 8.00645 3.85261L8.36861 2.87401Z" fill="#A1D8EE"></path>
</g>
<g filter="url(#filter1_d_1_2)">
<path d="M5.24886 5.11508C5.33049 4.89449 5.64248 4.89449 5.72411 5.11508L6.26735 6.58297C6.29301 6.65231 6.34769 6.70699 6.41704 6.73265L7.88493 7.27589C8.10551 7.35752 8.10551 7.66951 7.88493 7.75114L6.41704 8.29438C6.34769 8.32004 6.29301 8.37472 6.26735 8.44406L5.72412 9.91195C5.64248 10.1325 5.33049 10.1325 5.24886 9.91195L4.70562 8.44406C4.67996 8.37472 4.62528 8.32004 4.55594 8.29438L3.08805 7.75114C2.86746 7.66951 2.86746 7.35752 3.08805 7.27589L4.55594 6.73265C4.62528 6.70699 4.67996 6.65231 4.70562 6.58297L5.24886 5.11508Z" fill="#A1D8EE"></path>
</g>
<g clip-path="url(#clip2_1_2)">
<path d="M10.7173 9.18482C10.6992 9.01575 10.6231 8.8841 10.4889 8.78989C10.3559 8.69567 10.183 8.64856 9.97004 8.64856C9.82033 8.64856 9.69191 8.67115 9.58479 8.71632C9.47767 8.76149 9.39571 8.8228 9.33893 8.90024C9.28214 8.97767 9.2531 9.06608 9.25181 9.16546C9.25181 9.24806 9.27052 9.31969 9.30795 9.38035C9.34667 9.44101 9.39894 9.49263 9.46476 9.53523C9.53059 9.57653 9.60351 9.61137 9.68352 9.63977C9.76354 9.66816 9.84421 9.69204 9.92552 9.7114L10.2972 9.80432C10.4469 9.83917 10.5908 9.88628 10.7289 9.94564C10.8683 10.005 10.9929 10.0799 11.1026 10.1702C11.2136 10.2606 11.3013 10.3696 11.3659 10.4974C11.4304 10.6252 11.4627 10.7749 11.4627 10.9465C11.4627 11.1788 11.4033 11.3834 11.2845 11.5602C11.1658 11.7357 10.9942 11.8732 10.7696 11.9726C10.5463 12.0707 10.2759 12.1197 9.95843 12.1197C9.64997 12.1197 9.38216 12.072 9.15501 11.9764C8.92915 11.8809 8.75234 11.7416 8.62456 11.5583C8.49808 11.375 8.42968 11.1517 8.41935 10.8884H9.12597C9.1363 11.0265 9.17889 11.1414 9.25375 11.233C9.3286 11.3247 9.42604 11.3931 9.54607 11.4383C9.66739 11.4834 9.80291 11.506 9.95262 11.506C10.1088 11.506 10.2456 11.4828 10.363 11.4363C10.4818 11.3886 10.5747 11.3227 10.6418 11.2389C10.7089 11.1537 10.7431 11.0543 10.7444 10.9407C10.7431 10.8375 10.7128 10.7523 10.6534 10.6852C10.5941 10.6168 10.5108 10.56 10.4037 10.5148C10.2979 10.4683 10.174 10.427 10.032 10.3909L9.58092 10.2748C9.25439 10.1909 8.99627 10.0637 8.80654 9.89337C8.61811 9.72172 8.5239 9.49392 8.5239 9.20999C8.5239 8.97638 8.58714 8.77182 8.71362 8.59629C8.84139 8.42077 9.01498 8.28461 9.23439 8.18781C9.45379 8.08972 9.70224 8.04068 9.97972 8.04068C10.2611 8.04068 10.5076 8.08972 10.7193 8.18781C10.9322 8.28461 11.0993 8.41948 11.2207 8.59242C11.342 8.76407 11.4046 8.96154 11.4084 9.18482H10.7173Z" fill="#A1D8EE"></path>
<path d="M12.8273 8.09488V12.0597H12.1265V8.09488H12.8273Z" fill="#A1D8EE"></path>
<path d="M13.6025 12.0597V9.08609H14.3033V12.0597H13.6025ZM13.9548 8.66405C13.8438 8.66405 13.7483 8.62727 13.6683 8.5537C13.5883 8.47885 13.5483 8.38915 13.5483 8.28461C13.5483 8.17877 13.5883 8.08908 13.6683 8.01551C13.7483 7.94065 13.8438 7.90323 13.9548 7.90323C14.0671 7.90323 14.1626 7.94065 14.2414 8.01551C14.3214 8.08908 14.3614 8.17877 14.3614 8.28461C14.3614 8.38915 14.3214 8.47885 14.2414 8.5537C14.1626 8.62727 14.0671 8.66405 13.9548 8.66405Z" fill="#A1D8EE"></path>
<path d="M16.182 12.112C15.9484 12.112 15.7393 12.0519 15.5547 11.9319C15.3702 11.8119 15.2243 11.6377 15.1172 11.4092C15.0101 11.1808 14.9565 10.9033 14.9565 10.5768C14.9565 10.2464 15.0107 9.96759 15.1191 9.74043C15.2288 9.51199 15.3766 9.33969 15.5625 9.22354C15.7483 9.10609 15.9555 9.04737 16.1839 9.04737C16.3581 9.04737 16.5014 9.07705 16.6137 9.13642C16.726 9.1945 16.815 9.26484 16.8808 9.34744C16.9467 9.42875 16.9976 9.50554 17.0338 9.57782H17.0628V8.09488H17.7656V12.0597H17.0764V11.5912H17.0338C16.9976 11.6635 16.9454 11.7403 16.877 11.8216C16.8086 11.9016 16.7182 11.97 16.6059 12.0268C16.4936 12.0836 16.3523 12.112 16.182 12.112ZM16.3775 11.537C16.5259 11.537 16.6524 11.497 16.7569 11.417C16.8615 11.3357 16.9408 11.2227 16.9951 11.0782C17.0493 10.9336 17.0764 10.7652 17.0764 10.5729C17.0764 10.3806 17.0493 10.2135 16.9951 10.0715C16.9421 9.92951 16.8634 9.81916 16.7589 9.74043C16.6556 9.66171 16.5285 9.62234 16.3775 9.62234C16.2213 9.62234 16.091 9.663 15.9864 9.74431C15.8819 9.82562 15.8032 9.9379 15.7502 10.0812C15.6973 10.2244 15.6709 10.3883 15.6709 10.5729C15.6709 10.7587 15.6973 10.9246 15.7502 11.0704C15.8045 11.215 15.8838 11.3292 15.9884 11.4131C16.0942 11.4957 16.2239 11.537 16.3775 11.537Z" fill="#A1D8EE"></path>
<path d="M19.8833 12.1178C19.5852 12.1178 19.3277 12.0558 19.1109 11.9319C18.8953 11.8067 18.7295 11.6299 18.6133 11.4015C18.4972 11.1717 18.4391 10.9014 18.4391 10.5903C18.4391 10.2844 18.4972 10.016 18.6133 9.78496C18.7308 9.55265 18.8947 9.37196 19.1051 9.2429C19.3154 9.11254 19.5626 9.04737 19.8465 9.04737C20.0298 9.04737 20.2027 9.07705 20.3654 9.13642C20.5293 9.1945 20.6738 9.28484 20.799 9.40745C20.9255 9.53006 21.0249 9.68623 21.0971 9.87595C21.1694 10.0644 21.2056 10.289 21.2056 10.5497V10.7645H18.7682V10.2922H20.5338C20.5325 10.158 20.5035 10.0386 20.4467 9.93403C20.3899 9.8282 20.3105 9.74495 20.2085 9.68429C20.1079 9.62363 19.9904 9.5933 19.8562 9.5933C19.7129 9.5933 19.5871 9.62815 19.4787 9.69784C19.3703 9.76625 19.2857 9.85659 19.2251 9.96888C19.1657 10.0799 19.1354 10.2018 19.1341 10.3348V10.7471C19.1341 10.9201 19.1657 11.0685 19.229 11.1924C19.2922 11.315 19.3806 11.4092 19.4942 11.475C19.6078 11.5396 19.7407 11.5718 19.893 11.5718C19.9949 11.5718 20.0872 11.5576 20.1698 11.5292C20.2524 11.4996 20.3241 11.4563 20.3847 11.3995C20.4454 11.3427 20.4912 11.2724 20.5222 11.1885L21.1765 11.2621C21.1352 11.435 21.0565 11.586 20.9403 11.7151C20.8255 11.8429 20.6783 11.9422 20.4989 12.0132C20.3195 12.0829 20.1143 12.1178 19.8833 12.1178Z" fill="#A1D8EE"></path>
<path d="M21.853 12.0597V9.08609H22.5325V9.58169H22.5634C22.6177 9.41003 22.7106 9.27774 22.8422 9.18482C22.9752 9.0906 23.1268 9.0435 23.2972 9.0435C23.3359 9.0435 23.3791 9.04543 23.4269 9.0493C23.4759 9.05188 23.5166 9.0564 23.5488 9.06286V9.70752C23.5192 9.6972 23.472 9.68816 23.4075 9.68042C23.3443 9.67139 23.283 9.66687 23.2236 9.66687C23.0958 9.66687 22.981 9.69462 22.879 9.75011C22.7783 9.80432 22.699 9.87982 22.6409 9.97662C22.5828 10.0734 22.5538 10.1851 22.5538 10.3115V12.0597H21.853Z" fill="#A1D8EE"></path>
<path d="M24.595 13.1748C24.4995 13.1748 24.4111 13.1671 24.3298 13.1516C24.2498 13.1374 24.1859 13.1206 24.1382 13.1012L24.3008 12.5553C24.4027 12.585 24.4937 12.5992 24.5737 12.5979C24.6538 12.5966 24.7241 12.5714 24.7848 12.5224C24.8467 12.4746 24.899 12.3946 24.9416 12.2823L25.0016 12.1216L23.9233 9.08609H24.6667L25.352 11.3318H25.383L26.0702 9.08609H26.8156L25.625 12.4198C25.5695 12.5772 25.4959 12.7121 25.4043 12.8244C25.3126 12.938 25.2003 13.0244 25.0674 13.0838C24.9358 13.1445 24.7783 13.1748 24.595 13.1748Z" fill="#A1D8EE"></path>
<path d="M29.3019 12.0597H28.5353L29.9311 8.09488H30.8178L32.2155 12.0597H31.4489L30.3899 8.90798H30.359L29.3019 12.0597ZM29.3271 10.5051H31.4179V11.082H29.3271V10.5051Z" fill="white"></path>
<path d="M33.5105 8.09488V12.0597H32.7923V8.09488H33.5105Z" fill="white"></path>
</g>
</g>
<defs>
<filter id="SvgjsFilter1009" x="5.80426" y="1.75021" width="5.44553" height="5.44553" filterUnits="userSpaceOnUse" color-interpolation-filters="sRGB">
<feFlood flood-opacity="0" result="BackgroundImageFix"></feFlood>
<feColorMatrix in="SourceAlpha" type="matrix" values="0 0 0 0 0 0 0 0 0 0 0 0 0 0 0 0 0 0 127 0" result="hardAlpha"></feColorMatrix>
<feOffset></feOffset>
<feGaussianBlur stdDeviation="0.506757"></feGaussianBlur>
<feComposite in2="hardAlpha" operator="out"></feComposite>
<feColorMatrix type="matrix" values="0 0 0 0 0.247059 0 0 0 0 0.741176 0 0 0 0 0.945098 0 0 0 0.5 0"></feColorMatrix>
<feBlend mode="normal" in2="BackgroundImageFix" result="effect1_dropShadow_1_2"></feBlend>
<feBlend mode="normal" in="SourceGraphic" in2="effect1_dropShadow_1_2" result="shape"></feBlend>
</filter>
<filter id="SvgjsFilter1008" x="1.9091" y="3.93612" width="7.15478" height="7.15478" filterUnits="userSpaceOnUse" color-interpolation-filters="sRGB">
<feFlood flood-opacity="0" result="BackgroundImageFix"></feFlood>
<feColorMatrix in="SourceAlpha" type="matrix" values="0 0 0 0 0 0 0 0 0 0 0 0 0 0 0 0 0 0 127 0" result="hardAlpha"></feColorMatrix>
<feOffset></feOffset>
<feGaussianBlur stdDeviation="0.506757"></feGaussianBlur>
<feComposite in2="hardAlpha" operator="out"></feComposite>
<feColorMatrix type="matrix" values="0 0 0 0 0.247059 0 0 0 0 0.741176 0 0 0 0 0.945098 0 0 0 0.5 0"></feColorMatrix>
<feBlend mode="normal" in2="BackgroundImageFix" result="effect1_dropShadow_1_2"></feBlend>
<feBlend mode="normal" in="SourceGraphic" in2="effect1_dropShadow_1_2" result="shape"></feBlend>
</filter>
<clipPath id="SvgjsClipPath1007">
<rect width="16" height="16" rx="2" fill="white"></rect>
</clipPath>
<clipPath id="SvgjsClipPath1006">
<rect width="4" height="8" fill="white" transform="translate(5 4)"></rect>
</clipPath>
<clipPath id="SvgjsClipPath1005">
<rect width="4" height="9" fill="white" transform="translate(8 6)"></rect>
</clipPath>
</defs>
</svg><style>@media (prefers-color-scheme: light) { :root { filter: none; } }
@media (prefers-color-scheme: dark) { :root { filter: none; } }
</style></svg>