<svg width="47" height="48" viewBox="0 0 47 48" fill="none" xmlns="http://www.w3.org/2000/svg">
<g clip-path="url(#clip0_2001_4817)">
<path d="M44.6661 16.2459C43.6735 13.8576 41.6601 11.2789 40.0834 10.4638C41.2077 12.641 41.9881 14.9792 42.3968 17.3952L42.401 17.4336C39.8182 10.9972 35.44 8.39788 31.8623 2.74542C31.6813 2.45955 31.5004 2.1731 31.3241 1.87073C31.2234 1.69803 31.1426 1.54243 31.0725 1.3992C30.9241 1.1119 30.8098 0.80826 30.7318 0.494455C30.7319 0.479974 30.7267 0.465962 30.7171 0.455091C30.7075 0.44422 30.6943 0.437251 30.6799 0.435514C30.6658 0.431652 30.651 0.431652 30.6369 0.435514C30.6339 0.435514 30.6292 0.440819 30.6257 0.441997C30.6221 0.443176 30.6145 0.448481 30.6092 0.450839L30.618 0.435514C24.8801 3.79516 22.9321 10.0135 22.7553 13.1255C20.463 13.2827 18.2714 14.1271 16.4663 15.5486C16.278 15.3892 16.0812 15.24 15.8768 15.1018C15.3564 13.2799 15.3342 11.3518 15.8126 9.51835C13.7054 10.5391 11.833 11.9862 10.314 13.768H10.3034C9.39803 12.6204 9.46168 8.8364 9.51355 8.046C9.24572 8.15364 8.99006 8.28937 8.75085 8.45092C7.95163 9.02132 7.20448 9.66137 6.51816 10.3636C5.73606 11.1565 5.02175 12.0136 4.38272 12.9257V12.9293V12.9251C2.91422 15.0067 1.87254 17.3585 1.31778 19.8448L1.28713 19.9957C1.24411 20.1967 1.08909 21.2034 1.06257 21.4221C1.06257 21.4392 1.05903 21.4551 1.05726 21.4722C0.857304 22.5115 0.733396 23.5641 0.686523 24.6214V24.7393C0.696619 30.4557 2.84942 35.9607 6.71995 40.1674C10.5905 44.3742 15.8975 46.977 21.5933 47.4621C27.2891 47.9473 32.9598 46.2794 37.4861 42.7878C42.0123 39.2963 45.0651 34.2347 46.0418 28.6023C46.0801 28.3076 46.1113 28.0159 46.1455 27.7182C46.616 23.8292 46.1066 19.8843 44.6637 16.2424L44.6661 16.2459ZM18.337 34.1286C18.4437 34.1799 18.5439 34.2353 18.6536 34.2842L18.6695 34.2943C18.5587 34.2412 18.4479 34.186 18.337 34.1286ZM42.4015 17.44V17.4182L42.4057 17.4424L42.4015 17.44Z" fill="url(#paint0_linear_2001_4817)"/>
<path d="M44.6662 16.246C43.6737 13.8577 41.6602 11.279 40.0836 10.4639C41.2079 12.6411 41.9883 14.9793 42.397 17.3953V17.4172L42.4011 17.4413C44.1622 22.4802 43.9075 28.0048 41.6903 32.8603C39.0721 38.478 32.7371 44.236 22.8173 43.9531C12.1018 43.6495 2.65945 35.6954 0.897111 25.2805C0.575882 23.6378 0.897111 22.805 1.05861 21.47C0.838317 22.5069 0.715382 23.5623 0.691406 24.6221V24.74C0.701502 30.4564 2.8543 35.9614 6.72483 40.1681C10.5954 44.3749 15.9024 46.9777 21.5982 47.4628C27.294 47.948 32.9647 46.2801 37.4909 42.7885C42.0172 39.297 45.0699 34.2354 46.0466 28.603C46.0849 28.3083 46.1162 28.0165 46.1504 27.7189C46.6209 23.8299 46.1115 19.885 44.6686 16.243L44.6662 16.246Z" fill="url(#paint1_radial_2001_4817)"/>
<path d="M44.6662 16.246C43.6737 13.8577 41.6602 11.279 40.0836 10.4639C41.2079 12.6411 41.9883 14.9793 42.397 17.3953V17.4172L42.4011 17.4413C44.1622 22.4802 43.9075 28.0048 41.6903 32.8603C39.0721 38.478 32.7371 44.236 22.8173 43.9531C12.1018 43.6495 2.65945 35.6954 0.897111 25.2805C0.575882 23.6378 0.897111 22.805 1.05861 21.47C0.838317 22.5069 0.715382 23.5623 0.691406 24.6221V24.74C0.701502 30.4564 2.8543 35.9614 6.72483 40.1681C10.5954 44.3749 15.9024 46.9777 21.5982 47.4628C27.294 47.948 32.9647 46.2801 37.4909 42.7885C42.0172 39.297 45.0699 34.2354 46.0466 28.603C46.0849 28.3083 46.1162 28.0165 46.1504 27.7189C46.6209 23.8299 46.1115 19.885 44.6686 16.243L44.6662 16.246Z" fill="url(#paint2_radial_2001_4817)"/>
<path d="M33.562 18.9274C33.6115 18.9622 33.6574 18.9969 33.704 19.0317C33.1302 18.0142 32.4159 17.0826 31.5821 16.2644C24.4797 9.16201 29.7214 0.868984 30.6049 0.444608L30.6137 0.431641C24.8758 3.79129 22.9278 10.0096 22.751 13.1217C23.0174 13.1034 23.2814 13.081 23.5538 13.081C25.5895 13.0849 27.5879 13.6278 29.3458 14.6545C31.1037 15.6812 32.5584 17.155 33.562 18.9262V18.9274Z" fill="url(#paint3_radial_2001_4817)"/>
<path d="M23.5652 20.3481C23.5275 20.9163 21.5199 22.8761 20.8179 22.8761C14.3226 22.8761 13.2676 26.8057 13.2676 26.8057C13.5552 30.1147 15.861 32.8413 18.6483 34.2794C18.7756 34.3455 18.9047 34.405 19.0338 34.4633C19.2574 34.5624 19.481 34.6539 19.7045 34.738C20.6612 35.0765 21.6631 35.2698 22.6769 35.3115C34.0644 35.8455 36.2688 21.6961 28.0518 17.5879C29.9901 17.3357 31.953 17.8123 33.5598 18.9253C32.5562 17.1541 31.1015 15.6803 29.3437 14.6536C27.5858 13.6269 25.5874 13.084 23.5516 13.0801C23.2805 13.0801 23.0153 13.1025 22.7489 13.1207C20.4566 13.2779 18.2649 14.1223 16.4598 15.5438C16.8082 15.8385 17.2013 16.2323 18.0294 17.0486C19.5796 18.5758 23.5552 20.1577 23.564 20.3434L23.5652 20.3481Z" fill="url(#paint4_radial_2001_4817)"/>
<path d="M23.5652 20.3481C23.5275 20.9163 21.5199 22.8761 20.8179 22.8761C14.3226 22.8761 13.2676 26.8057 13.2676 26.8057C13.5552 30.1147 15.861 32.8413 18.6483 34.2794C18.7756 34.3455 18.9047 34.405 19.0338 34.4633C19.2574 34.5624 19.481 34.6539 19.7045 34.738C20.6612 35.0765 21.6631 35.2698 22.6769 35.3115C34.0644 35.8455 36.2688 21.6961 28.0518 17.5879C29.9901 17.3357 31.953 17.8123 33.5598 18.9253C32.5562 17.1541 31.1015 15.6803 29.3437 14.6536C27.5858 13.6269 25.5874 13.084 23.5516 13.0801C23.2805 13.0801 23.0153 13.1025 22.7489 13.1207C20.4566 13.2779 18.2649 14.1223 16.4598 15.5438C16.8082 15.8385 17.2013 16.2323 18.0294 17.0486C19.5796 18.5758 23.5552 20.1577 23.564 20.3434L23.5652 20.3481Z" fill="url(#paint5_radial_2001_4817)"/>
<path d="M15.396 14.79C15.5811 14.9079 15.7338 15.0105 15.8676 15.103C15.3471 13.2811 15.3249 11.3529 15.8033 9.51953C13.6961 10.5403 11.8237 11.9874 10.3047 13.7692C10.4161 13.7662 13.7298 13.7067 15.396 14.79Z" fill="url(#paint6_radial_2001_4817)"/>
<path d="M0.892289 25.2814C2.65522 35.6963 12.097 43.6534 22.8125 43.954C32.7323 44.2345 39.0685 38.476 41.6855 32.8613C43.9027 28.0057 44.1574 22.4812 42.3963 17.4422V17.4204C42.3963 17.4033 42.3928 17.3933 42.3963 17.3986L42.4004 17.4369C43.2109 22.7281 40.5196 27.8518 36.3118 31.3235L36.2988 31.3529C28.1001 38.031 20.2551 35.381 18.6695 34.3C18.5587 34.247 18.4479 34.1918 18.3371 34.1344C13.5576 31.8498 11.5824 27.4976 12.0068 23.7607C10.8723 23.7775 9.75721 23.4648 8.79674 22.8607C7.83627 22.2565 7.07162 21.3868 6.59544 20.3569C7.85018 19.5883 9.28084 19.1537 10.7511 19.0947C12.2214 19.0357 13.6822 19.3542 14.9946 20.0197C17.6995 21.2476 20.7775 21.3686 23.5705 20.3569C23.5617 20.1712 19.5861 18.5887 18.0359 17.0621C17.2078 16.2457 16.8147 15.8526 16.4663 15.5573C16.2781 15.3978 16.0813 15.2487 15.8769 15.1105C15.7413 15.018 15.5887 14.9178 15.4054 14.7976C13.7391 13.7142 10.4254 13.7737 10.3158 13.7767H10.3052C9.39986 12.6291 9.46351 8.84509 9.51538 8.05469C9.24755 8.16233 8.99189 8.29806 8.75268 8.45961C7.95346 9.03001 7.20631 9.67006 6.51999 10.3723C5.73509 11.163 5.01782 12.018 4.37571 12.9285C2.90721 15.0101 1.86552 17.3613 1.31077 19.8476C1.29957 19.8942 0.487953 23.4425 0.888163 25.2826L0.892289 25.2814Z" fill="url(#paint7_radial_2001_4817)"/>
<path d="M31.5815 16.2631C32.4155 17.0822 33.1298 18.0147 33.7034 19.0333C33.8289 19.1282 33.9462 19.2225 34.0458 19.3138C39.225 24.0881 36.5113 30.8368 36.3092 31.3143C40.5164 27.8479 43.2053 22.7206 42.3978 17.4277C39.8138 10.9855 35.4309 8.38616 31.8591 2.7337C31.6781 2.44783 31.4972 2.16138 31.321 1.85901C31.2202 1.68631 31.1394 1.53071 31.0693 1.38748C30.9209 1.10018 30.8066 0.796542 30.7286 0.482736C30.7287 0.468256 30.7235 0.454243 30.7139 0.443372C30.7043 0.432501 30.6911 0.425532 30.6767 0.423795C30.6627 0.419933 30.6478 0.419933 30.6337 0.423795C30.6308 0.423795 30.626 0.4291 30.6225 0.430279C30.619 0.431457 30.6113 0.436762 30.606 0.43912C29.7225 0.858191 24.482 9.15652 31.5844 16.253L31.5815 16.2631Z" fill="url(#paint8_radial_2001_4817)"/>
<path d="M34.0445 19.3165C33.9448 19.2252 33.8276 19.1309 33.702 19.036C33.6554 19.0012 33.6095 18.9664 33.56 18.9316C31.9531 17.8187 29.9902 17.3421 28.0519 17.5943C36.2683 21.7025 34.0639 35.8483 22.6771 35.3179C21.6632 35.2762 20.6613 35.0829 19.7047 34.7444C19.4811 34.6607 19.2575 34.5691 19.0339 34.4697C18.9048 34.4108 18.7758 34.3518 18.6484 34.2858L18.6644 34.2958C20.2522 35.3798 28.0949 38.028 36.2937 31.3488L36.3066 31.3193C36.5111 30.8419 39.2248 24.0931 34.0433 19.3189L34.0445 19.3165Z" fill="url(#paint9_radial_2001_4817)"/>
<path d="M13.2683 26.8019C13.2683 26.8019 14.3227 22.8723 20.8186 22.8723C21.5206 22.8723 23.5299 20.9125 23.5659 20.3443C20.7729 21.356 17.6949 21.235 14.9899 20.0072C13.6776 19.3416 12.2167 19.0231 10.7465 19.0821C9.27622 19.1411 7.84556 19.5757 6.59082 20.3443C7.067 21.3742 7.83165 22.2439 8.79212 22.8481C9.75259 23.4522 10.8677 23.7649 12.0022 23.7481C11.579 27.4832 13.5535 31.8349 18.3325 34.1218C18.4392 34.1731 18.5394 34.2285 18.649 34.2774C15.8593 32.8363 13.5559 30.1108 13.2683 26.8037V26.8019Z" fill="url(#paint10_radial_2001_4817)"/>
<path d="M44.6659 16.2459C43.6733 13.8576 41.6599 11.2789 40.0832 10.4638C41.2075 12.641 41.9879 14.9792 42.3966 17.3952L42.4008 17.4336C39.818 10.9972 35.4398 8.39788 31.8621 2.74542C31.6811 2.45955 31.5002 2.1731 31.3239 1.87073C31.2231 1.69803 31.1424 1.54243 31.0723 1.3992C30.9239 1.1119 30.8096 0.80826 30.7316 0.494455C30.7317 0.479974 30.7265 0.465962 30.7169 0.455091C30.7073 0.44422 30.6941 0.437251 30.6797 0.435514C30.6656 0.431652 30.6508 0.431652 30.6367 0.435514C30.6337 0.435514 30.629 0.440819 30.6255 0.441997C30.6219 0.443176 30.6143 0.448481 30.609 0.450839L30.6178 0.435514C24.8799 3.79516 22.9319 10.0135 22.7551 13.1255C23.0215 13.1073 23.2855 13.0849 23.5578 13.0849C25.5936 13.0888 27.592 13.6317 29.3499 14.6584C31.1078 15.6851 32.5625 17.1589 33.5661 18.9301C31.9592 17.8171 29.9963 17.3405 28.058 17.5927C36.2744 21.7009 34.07 35.8468 22.6832 35.3163C21.6693 35.2746 20.6674 35.0813 19.7108 34.7428C19.4872 34.6591 19.2636 34.5676 19.04 34.4681C18.9109 34.4092 18.7818 34.3503 18.6545 34.2842L18.6704 34.2943C18.5596 34.2412 18.4488 34.186 18.338 34.1286C18.4447 34.1799 18.5449 34.2353 18.6545 34.2842C15.8648 32.8425 13.5614 30.1171 13.2738 26.8105C13.2738 26.8105 14.3283 22.8809 20.8242 22.8809C21.5261 22.8809 23.5355 20.9211 23.5714 20.3529C23.5626 20.1672 19.587 18.5847 18.0368 17.0581C17.2087 16.2418 16.8156 15.8486 16.4672 15.5533C16.279 15.3939 16.0822 15.2447 15.8778 15.1066C15.3574 13.2846 15.3352 11.3565 15.8136 9.52306C13.7063 10.5438 11.834 11.9909 10.3149 13.7727H10.3043C9.399 12.6251 9.46266 8.84111 9.51453 8.05071C9.2467 8.15835 8.99104 8.29409 8.75183 8.45564C7.9526 9.02603 7.20546 9.66608 6.51914 10.3683C5.73704 11.1612 5.02273 12.0183 4.3837 12.9305C2.9152 15.012 1.87351 17.3632 1.31876 19.8496L1.28811 20.0004C1.24508 20.2014 1.05235 21.2223 1.02464 21.4416C0.848351 22.4953 0.735765 23.5588 0.6875 24.6261V24.744C0.697596 30.4605 2.8504 35.9654 6.72093 40.1721C10.5915 44.3789 15.8984 46.9817 21.5943 47.4669C27.2901 47.952 32.9608 46.2841 37.487 42.7926C42.0133 39.301 45.066 34.2394 46.0427 28.607C46.081 28.3123 46.1123 28.0206 46.1465 27.7229C46.617 23.8339 46.1076 19.889 44.6647 16.2471L44.6659 16.2459Z" fill="url(#paint11_linear_2001_4817)"/>
</g>
<defs>
<linearGradient id="paint0_linear_2001_4817" x1="41.6424" y1="7.73238" x2="3.71787" y2="44.3231" gradientUnits="userSpaceOnUse">
<stop offset="0.048" stop-color="#FFF44F"/>
<stop offset="0.111" stop-color="#FFE847"/>
<stop offset="0.225" stop-color="#FFC830"/>
<stop offset="0.368" stop-color="#FF980E"/>
<stop offset="0.401" stop-color="#FF8B16"/>
<stop offset="0.462" stop-color="#FF672A"/>
<stop offset="0.534" stop-color="#FF3647"/>
<stop offset="0.705" stop-color="#E31587"/>
</linearGradient>
<radialGradient id="paint1_radial_2001_4817" cx="0" cy="0" r="1" gradientUnits="userSpaceOnUse" gradientTransform="translate(40.1749 5.73678) scale(47.6245 47.6245)">
<stop offset="0.129" stop-color="#FFBD4F"/>
<stop offset="0.186" stop-color="#FFAC31"/>
<stop offset="0.247" stop-color="#FF9D17"/>
<stop offset="0.283" stop-color="#FF980E"/>
<stop offset="0.403" stop-color="#FF563B"/>
<stop offset="0.467" stop-color="#FF3750"/>
<stop offset="0.71" stop-color="#F5156C"/>
<stop offset="0.782" stop-color="#EB0878"/>
<stop offset="0.86" stop-color="#E50080"/>
</radialGradient>
<radialGradient id="paint2_radial_2001_4817" cx="0" cy="0" r="1" gradientUnits="userSpaceOnUse" gradientTransform="translate(22.4926 25.1874) scale(47.6245 47.6245)">
<stop offset="0.3" stop-color="#960E18"/>
<stop offset="0.351" stop-color="#B11927" stop-opacity="0.74"/>
<stop offset="0.435" stop-color="#DB293D" stop-opacity="0.343"/>
<stop offset="0.497" stop-color="#F5334B" stop-opacity="0.094"/>
<stop offset="0.53" stop-color="#FF3750" stop-opacity="0"/>
</radialGradient>
<radialGradient id="paint3_radial_2001_4817" cx="0" cy="0" r="1" gradientUnits="userSpaceOnUse" gradientTransform="translate(28.3869 -4.87307) scale(34.4983 34.4983)">
<stop offset="0.132" stop-color="#FFF44F"/>
<stop offset="0.252" stop-color="#FFDC3E"/>
<stop offset="0.506" stop-color="#FF9D12"/>
<stop offset="0.526" stop-color="#FF980E"/>
</radialGradient>
<radialGradient id="paint4_radial_2001_4817" cx="0" cy="0" r="1" gradientUnits="userSpaceOnUse" gradientTransform="translate(17.1878 37.5648) scale(22.6747 22.6747)">
<stop offset="0.353" stop-color="#3A8EE6"/>
<stop offset="0.472" stop-color="#5C79F0"/>
<stop offset="0.669" stop-color="#9059FF"/>
<stop offset="1" stop-color="#C139E6"/>
</radialGradient>
<radialGradient id="paint5_radial_2001_4817" cx="0" cy="0" r="1" gradientUnits="userSpaceOnUse" gradientTransform="translate(24.7959 21.099) rotate(-13.5916) scale(12.0241 14.0772)">
<stop offset="0.206" stop-color="#9059FF" stop-opacity="0"/>
<stop offset="0.278" stop-color="#8C4FF3" stop-opacity="0.064"/>
<stop offset="0.747" stop-color="#7716A8" stop-opacity="0.45"/>
<stop offset="0.975" stop-color="#6E008B" stop-opacity="0.6"/>
</radialGradient>
<radialGradient id="paint6_radial_2001_4817" cx="0" cy="0" r="1" gradientUnits="userSpaceOnUse" gradientTransform="translate(21.9031 3.96845) scale(16.3149 16.3149)">
<stop stop-color="#FFE226"/>
<stop offset="0.121" stop-color="#FFDB27"/>
<stop offset="0.295" stop-color="#FFC82A"/>
<stop offset="0.502" stop-color="#FFA930"/>
<stop offset="0.732" stop-color="#FF7E37"/>
<stop offset="0.792" stop-color="#FF7139"/>
</radialGradient>
<radialGradient id="paint7_radial_2001_4817" cx="0" cy="0" r="1" gradientUnits="userSpaceOnUse" gradientTransform="translate(34.8695 -6.64112) scale(69.6095 69.6095)">
<stop offset="0.113" stop-color="#FFF44F"/>
<stop offset="0.456" stop-color="#FF980E"/>
<stop offset="0.622" stop-color="#FF5634"/>
<stop offset="0.716" stop-color="#FF3647"/>
<stop offset="0.904" stop-color="#E31587"/>
</radialGradient>
<radialGradient id="paint8_radial_2001_4817" cx="0" cy="0" r="1" gradientUnits="userSpaceOnUse" gradientTransform="translate(29.0847 -2.78201) rotate(83.976) scale(51.0109 33.478)">
<stop stop-color="#FFF44F"/>
<stop offset="0.06" stop-color="#FFE847"/>
<stop offset="0.168" stop-color="#FFC830"/>
<stop offset="0.304" stop-color="#FF980E"/>
<stop offset="0.356" stop-color="#FF8B16"/>
<stop offset="0.455" stop-color="#FF672A"/>
<stop offset="0.57" stop-color="#FF3647"/>
<stop offset="0.737" stop-color="#E31587"/>
</radialGradient>
<radialGradient id="paint9_radial_2001_4817" cx="0" cy="0" r="1" gradientUnits="userSpaceOnUse" gradientTransform="translate(21.9026 9.86236) scale(43.4514 43.4514)">
<stop offset="0.137" stop-color="#FFF44F"/>
<stop offset="0.48" stop-color="#FF980E"/>
<stop offset="0.592" stop-color="#FF5634"/>
<stop offset="0.655" stop-color="#FF3647"/>
<stop offset="0.904" stop-color="#E31587"/>
</radialGradient>
<radialGradient id="paint10_radial_2001_4817" cx="0" cy="0" r="1" gradientUnits="userSpaceOnUse" gradientTransform="translate(33.102 12.2198) scale(47.5596)">
<stop offset="0.094" stop-color="#FFF44F"/>
<stop offset="0.231" stop-color="#FFE141"/>
<stop offset="0.509" stop-color="#FFAF1E"/>
<stop offset="0.626" stop-color="#FF980E"/>
</radialGradient>
<linearGradient id="paint11_linear_2001_4817" x1="41.1824" y1="7.53787" x2="8.91804" y2="39.8082" gradientUnits="userSpaceOnUse">
<stop offset="0.167" stop-color="#FFF44F" stop-opacity="0.8"/>
<stop offset="0.266" stop-color="#FFF44F" stop-opacity="0.634"/>
<stop offset="0.489" stop-color="#FFF44F" stop-opacity="0.217"/>
<stop offset="0.6" stop-color="#FFF44F" stop-opacity="0"/>
</linearGradient>
<clipPath id="clip0_2001_4817">
<rect width="46.4694" height="48" fill="white" transform="translate(0.265625)"/>
</clipPath>
</defs>
</svg>
