<svg width="114" height="60" viewBox="0 0 114 60" fill="none" xmlns="http://www.w3.org/2000/svg">
<g filter="url(#filter0_d_1_6442)">
<rect x="12" y="24.2473" width="88" height="24" rx="6" transform="rotate(-8 12 24.2473)" fill="#404142" shape-rendering="crispEdges"/>
<path d="M27.2871 38.3564C26.8182 38.4223 26.3862 38.3934 25.9911 38.2696C25.5956 38.1435 25.2671 37.941 25.0056 37.6622C24.7464 37.3831 24.5818 37.0452 24.5117 36.6486L25.7777 36.4707C25.8426 36.7628 26.0044 36.9863 26.2628 37.1413C26.5209 37.2939 26.8129 37.3473 27.1388 37.3015C27.3943 37.2655 27.6135 37.175 27.7963 37.0297C27.9791 36.8845 28.1133 36.6995 28.1988 36.4747C28.2844 36.2499 28.3072 36.0041 28.2673 35.7371C28.2314 35.4649 28.14 35.2315 27.9932 35.0369C27.8463 34.8424 27.6625 34.6997 27.4417 34.6088C27.2206 34.5156 26.9776 34.4876 26.7127 34.5248C26.4967 34.5528 26.2901 34.6224 26.093 34.7338C25.8959 34.8452 25.7458 34.9763 25.6426 35.127L24.4374 35.0992L24.2918 31.3328L28.4695 30.7456L28.6227 31.8358L25.5246 32.2712L25.5855 34.2099L25.6277 34.2039C25.7392 34.0281 25.9096 33.8714 26.139 33.734C26.368 33.5942 26.6278 33.5039 26.9185 33.4631C27.3546 33.4018 27.7582 33.4503 28.1295 33.6085C28.5004 33.7643 28.8096 34.0078 29.0569 34.3388C29.3043 34.6698 29.4604 35.0662 29.5253 35.5281C29.5922 36.004 29.5416 36.4438 29.3736 36.8475C29.2077 37.2486 28.9451 37.5831 28.5859 37.8511C28.2287 38.1165 27.7958 38.2849 27.2871 38.3564ZM33.7173 37.4922C33.1382 37.5735 32.6206 37.4969 32.1645 37.2621C31.7103 37.0247 31.3329 36.6439 31.0321 36.1196C30.7333 35.5926 30.5287 34.9364 30.4183 34.151C30.3103 33.3653 30.3278 32.6815 30.4707 32.0996C30.6157 31.515 30.874 31.0484 31.2458 30.6997C31.6199 30.3507 32.0953 30.1357 32.672 30.0546C33.2487 29.9736 33.765 30.0492 34.2208 30.2816C34.6766 30.514 35.0536 30.8913 35.3517 31.4136C35.6522 31.9356 35.8574 32.5881 35.9675 33.3711C36.0782 34.1588 36.0614 34.8473 35.9171 35.4366C35.7748 36.0232 35.5168 36.4922 35.143 36.8435C34.7716 37.1946 34.2963 37.4108 33.7173 37.4922ZM33.5626 36.3915C34.0127 36.3282 34.3368 36.0568 34.5347 35.5771C34.7347 35.0948 34.7739 34.4211 34.6523 33.556C34.5719 32.9839 34.4446 32.5117 34.2703 32.1394C34.0961 31.767 33.8861 31.4977 33.6404 31.3314C33.3943 31.1628 33.1225 31.0994 32.8247 31.1412C32.3769 31.2042 32.0542 31.4766 31.8566 31.9586C31.6587 32.4383 31.6188 33.1073 31.737 33.9657C31.8154 34.5404 31.9407 35.0153 32.113 35.3903C32.2876 35.765 32.4979 36.0367 32.7439 36.2053C32.9896 36.3716 33.2625 36.4337 33.5626 36.3915ZM39.6169 35.3469L38.9329 30.48L40.0371 30.3248L40.7211 35.1918L39.6169 35.3469ZM37.4712 33.73L37.316 32.6258L42.1829 31.9418L42.3381 33.046L37.4712 33.73ZM46.0153 30.1158L47.2426 29.9433L47.8544 34.2968L49.5529 34.0581L48.9411 29.7046L50.1684 29.5321L50.7802 33.8856L52.4787 33.6469L51.8669 29.2934L53.0941 29.1209L53.8533 34.5224L46.7744 35.5173L46.0153 30.1158ZM55.4241 36.3672L54.3803 28.9402L55.6322 28.7642L55.7578 29.6574L55.8316 29.647C55.8788 29.5065 55.9518 29.354 56.0506 29.1895C56.1491 29.0227 56.2929 28.8722 56.482 28.738C56.6708 28.6015 56.9235 28.511 57.24 28.4665C57.6573 28.4079 58.0485 28.4617 58.4138 28.6279C58.781 28.7915 59.0923 29.0669 59.3475 29.4541C59.6048 29.8388 59.7756 30.3311 59.8599 30.9313C59.9433 31.5244 59.9168 32.0421 59.7806 32.4844C59.6443 32.9268 59.4239 33.2805 59.1193 33.5456C58.8146 33.8108 58.4502 33.9732 58.0258 34.0328C57.7164 34.0763 57.4524 34.0608 57.234 33.9863C57.0155 33.9118 56.8339 33.8106 56.6893 33.6827C56.5466 33.5522 56.432 33.426 56.3456 33.3043L56.2929 33.3117L56.6971 36.1883L55.4241 36.3672ZM56.0083 31.4654C56.0574 31.8148 56.1496 32.1138 56.285 32.3625C56.4227 32.6109 56.5957 32.7958 56.804 32.9171C57.0143 33.0358 57.2543 33.0762 57.5239 33.0383C57.8052 32.9987 58.0303 32.8906 58.1991 32.7139C58.3676 32.5348 58.4814 32.3072 58.5406 32.0312C58.6019 31.7524 58.6088 31.4442 58.5613 31.1066C58.5142 30.7714 58.4243 30.4804 58.2916 30.2337C58.1589 29.987 57.9872 29.8031 57.7766 29.6821C57.5659 29.5611 57.3188 29.5205 57.0351 29.5604C56.7632 29.5986 56.5423 29.7026 56.3725 29.8723C56.2027 30.042 56.0867 30.2627 56.0245 30.5344C55.9646 30.8058 55.9592 31.1161 56.0083 31.4654ZM62.3137 31.5762L63.9595 27.5939L65.2677 27.41L66.0268 32.8115L64.796 32.9845L64.2785 29.3026L62.6403 33.2874L61.3286 33.4718L60.5695 28.0703L61.7968 27.8978L62.3137 31.5762ZM70.0431 34.119L68.773 25.0814L70.0495 24.902L71.3196 33.9396L70.0431 34.119ZM69.7999 32.3888C69.4037 32.4445 69.0321 32.4286 68.6852 32.3411C68.3382 32.2536 68.0278 32.1035 67.7541 31.891C67.4827 31.6781 67.2575 31.4109 67.0784 31.0894C66.9014 30.7653 66.7837 30.3957 66.7254 29.9808C66.6671 29.5658 66.6783 29.1781 66.7592 28.8177C66.8423 28.457 66.985 28.1369 67.1872 27.8575C67.3914 27.5754 67.6482 27.3444 67.9577 27.1647C68.2671 26.9849 68.6199 26.8672 69.0161 26.8115L69.2869 26.7735L70.0707 32.3507L69.7999 32.3888ZM69.6556 31.362L69.8139 31.3397L69.3187 27.8161L69.1604 27.8384C68.9354 27.87 68.7427 27.9449 68.5824 28.063C68.4241 28.1785 68.2979 28.3265 68.2037 28.5071C68.1116 28.685 68.05 28.8849 68.019 29.1068C67.9901 29.3261 67.9926 29.5564 68.0265 29.7979C68.0716 30.1191 68.1657 30.4059 68.3088 30.6583C68.4515 30.9084 68.6361 31.0988 68.8624 31.2296C69.0912 31.36 69.3556 31.4041 69.6556 31.362ZM71.0765 32.2094L70.8057 32.2475L70.0219 26.6702L70.2926 26.6321C70.6888 26.5764 71.0604 26.5923 71.4074 26.6798C71.7544 26.7673 72.0638 26.9187 72.3355 27.1339C72.6092 27.3465 72.8346 27.6148 73.0116 27.939C73.191 28.2628 73.3099 28.6322 73.3682 29.0472C73.4265 29.4621 73.4141 29.85 73.3309 30.2107C73.2497 30.5688 73.1069 30.8877 72.9023 31.1674C72.7002 31.4469 72.4443 31.6765 72.1349 31.8562C71.8255 32.036 71.4727 32.1537 71.0765 32.2094ZM70.9322 31.1826C71.1596 31.1506 71.3524 31.0769 71.5107 30.9614C71.669 30.8459 71.7942 30.6992 71.8863 30.5213C71.9808 30.3431 72.0425 30.1443 72.0715 29.9251C72.1001 29.7035 72.0975 29.472 72.0635 29.2305C72.0184 28.9094 71.9255 28.6224 71.7848 28.3696C71.644 28.1169 71.4593 27.9253 71.2306 27.7948C71.0039 27.6617 70.7394 27.6164 70.4369 27.659L70.2787 27.6812L70.7739 31.2048L70.9322 31.1826ZM73.6116 27.3024L73.4648 26.258L78.1911 25.5938L78.3379 26.6382L76.5901 26.8838L77.2025 31.2409L75.9717 31.4138L75.3593 27.0568L73.6116 27.3024ZM82.1124 30.6584C81.5849 30.7325 81.1114 30.6807 80.692 30.503C80.2725 30.3253 79.9268 30.0428 79.6548 29.6554C79.3852 29.2678 79.2112 28.795 79.1327 28.237C79.0543 27.6791 79.0911 27.1754 79.2431 26.7261C79.3975 26.2765 79.6518 25.9085 80.006 25.622C80.3602 25.3355 80.801 25.1552 81.3285 25.0811C81.856 25.007 82.3295 25.0588 82.7489 25.2365C83.1684 25.4142 83.5131 25.6981 83.783 26.0881C84.0554 26.4778 84.2307 26.9516 84.3091 27.5095C84.3876 28.0675 84.3494 28.5701 84.1947 29.0174C84.0424 29.4644 83.7891 29.8311 83.4349 30.1175C83.0807 30.404 82.6398 30.5843 82.1124 30.6584ZM81.9761 29.6376C82.2621 29.5974 82.4902 29.4853 82.6603 29.3012C82.8302 29.1147 82.9432 28.8813 82.9994 28.6009C83.058 28.3201 83.0642 28.0156 83.0181 27.6874C82.9716 27.3568 82.8815 27.0647 82.7479 26.8109C82.6162 26.5545 82.443 26.3601 82.2284 26.2277C82.0137 26.0953 81.7634 26.0492 81.4774 26.0894C81.1844 26.1306 80.9517 26.2445 80.7796 26.4313C80.6097 26.6177 80.4957 26.8525 80.4375 27.1356C80.3812 27.4161 80.3764 27.7216 80.4228 28.0521C80.469 28.3803 80.5577 28.6715 80.689 28.9256C80.8227 29.1793 80.9969 29.3724 81.2115 29.5048C81.4282 29.6345 81.683 29.6788 81.9761 29.6376ZM85.7662 30.0373L85.0071 24.6358L87.2753 24.3171C87.9153 24.2271 88.4385 24.2839 88.8448 24.4874C89.2535 24.6905 89.4899 25.0207 89.5542 25.4778C89.5967 25.7803 89.5259 26.0424 89.342 26.2643C89.16 26.4835 88.8931 26.6513 88.5413 26.7677C88.8283 26.7513 89.0868 26.7879 89.317 26.8774C89.5494 26.9667 89.7403 27.1 89.8896 27.2775C90.0388 27.455 90.1312 27.6703 90.1668 27.9235C90.2087 28.2212 90.1665 28.4913 90.0404 28.7337C89.9164 28.9735 89.714 29.1753 89.4334 29.339C89.1548 29.5001 88.8045 29.6103 88.3825 29.6696L85.7662 30.0373ZM86.8175 28.8675L88.2417 28.6674C88.4761 28.6344 88.6524 28.5535 88.7706 28.4245C88.8884 28.2932 88.9338 28.1314 88.9068 27.9392C88.8755 27.7165 88.7841 27.5512 88.6327 27.4434C88.4809 27.3332 88.2878 27.2946 88.0534 27.3276L86.6292 27.5277L86.8175 28.8675ZM86.5135 26.7049L87.6142 26.5502C87.7877 26.5258 87.9331 26.4802 88.0504 26.4135C88.1674 26.3445 88.2523 26.2597 88.3051 26.159C88.3576 26.056 88.3748 25.94 88.3566 25.8111C88.3306 25.6259 88.234 25.4912 88.0668 25.4072C87.9019 25.3227 87.6859 25.2993 87.4186 25.3369L86.3425 25.4881L86.5135 26.7049Z" fill="#FAFDFF"/>
</g>
<defs>
<filter id="filter0_d_1_6442" x="0" y="0" width="114.484" height="60.0137" filterUnits="userSpaceOnUse" color-interpolation-filters="sRGB">
<feFlood flood-opacity="0" result="BackgroundImageFix"/>
<feColorMatrix in="SourceAlpha" type="matrix" values="0 0 0 0 0 0 0 0 0 0 0 0 0 0 0 0 0 0 127 0" result="hardAlpha"/>
<feOffset/>
<feGaussianBlur stdDeviation="6"/>
<feComposite in2="hardAlpha" operator="out"/>
<feColorMatrix type="matrix" values="0 0 0 0 0 0 0 0 0 0 0 0 0 0 0 0 0 0 0.12 0"/>
<feBlend mode="normal" in2="BackgroundImageFix" result="effect1_dropShadow_1_6442"/>
<feBlend mode="normal" in="SourceGraphic" in2="effect1_dropShadow_1_6442" result="shape"/>
</filter>
</defs>
</svg>
