<svg width="229" height="207" viewBox="0 0 229 207" fill="none" xmlns="http://www.w3.org/2000/svg">
<path d="M114 142.31V170.772L139.875 178.535" stroke="black" stroke-width="1.4375" stroke-linecap="round" stroke-linejoin="round"/>
<path d="M114 170.773L88.125 178.536" stroke="black" stroke-width="1.4375" stroke-linecap="round" stroke-linejoin="round"/>
<path d="M186.45 28.4609H148.725C146.31 28.4658 143.929 29.0234 141.764 30.0911L137.987 32.0058C135.821 33.0735 133.44 33.6311 131.026 33.6359H96.9746C94.5605 33.6311 92.1795 33.0735 90.0143 32.0058L86.2365 30.0911C84.0713 29.0234 81.6903 28.4658 79.2761 28.4609H41.5504C37.4329 28.4609 33.4841 30.0966 30.5726 33.0081C27.6611 35.9196 26.0254 39.8685 26.0254 43.9859V126.786C26.0254 130.903 27.6611 134.852 30.5726 137.764C33.4841 140.675 37.4329 142.311 41.5504 142.311H186.45C190.568 142.311 194.517 140.675 197.428 137.764C200.34 134.852 201.975 130.903 201.975 126.786V43.9859C201.975 39.8685 200.34 35.9196 197.428 33.0081C194.517 30.0966 190.568 28.4609 186.45 28.4609Z" stroke="black" stroke-width="1.4375" stroke-linecap="round" stroke-linejoin="round"/>
<rect x="51.4688" y="43.8418" width="125.062" height="8.625" rx="4.3125" fill="black"/>
<path d="M51.4688 48.1543H176.531V116.436C176.531 122.787 171.383 127.936 165.031 127.936H62.9688C56.6175 127.936 51.4688 122.787 51.4688 116.436V48.1543Z" fill="black" fill-opacity="0.05"/>
<g clip-path="url(#clip0_2001_4950)">
<path d="M151.493 62.5596L134.067 75.7611L115.408 71.1846L105.551 95.4754L90.5896 89.4907L81.4365 111.669L96.5743 102.164L116.465 106.565L131.778 87.2024L149.38 81.2177" stroke="black" stroke-width="0.598958" stroke-miterlimit="10"/>
</g>
<g clip-path="url(#clip1_2001_4950)">
<path d="M202.73 143.823L210.816 167.272C211.085 168.135 212.325 168.135 212.595 167.272L216.314 156.275L227.365 152.556C228.227 152.286 228.227 151.046 227.365 150.777L203.916 142.637C203.215 142.367 202.46 143.122 202.73 143.823Z" fill="black" fill-opacity="0.5"/>
</g>
<defs>
<clipPath id="clip0_2001_4950">
<rect width="86.25" height="86.25" fill="white" transform="translate(70.875 43.8438)"/>
</clipPath>
<clipPath id="clip1_2001_4950">
<rect width="25.875" height="25.875" fill="white" transform="translate(202.406 142.312)"/>
</clipPath>
</defs>
</svg>
