<svg width="828" height="202" viewBox="0 0 828 202" fill="none" xmlns="http://www.w3.org/2000/svg">
<g filter="url(#filter0_f_4014_5160)">
<rect x="87.6055" y="155.028" width="48" height="48" rx="7.5" transform="rotate(-15 87.6055 155.028)" fill="#262728"/>
<rect x="88.0647" y="155.293" width="47.25" height="47.25" rx="7.125" transform="rotate(-15 88.0647 155.293)" stroke="#C2CCF6" stroke-opacity="0.12" stroke-width="0.75"/>
<g clip-path="url(#clip0_4014_5160)">
<g clip-path="url(#clip1_4014_5160)">
<path d="M103.113 163.64C103.017 163.666 102.935 163.729 102.886 163.815C102.836 163.901 102.822 164.004 102.848 164.1L106.644 178.267C106.805 178.866 107.423 179.223 108.022 179.062L128.306 173.627C128.905 173.466 129.262 172.848 129.102 172.249L125.306 158.082C125.28 157.986 125.217 157.904 125.131 157.854C125.045 157.805 124.943 157.791 124.847 157.817C124.75 157.843 124.669 157.906 124.619 157.992C124.569 158.078 124.556 158.18 124.581 158.276L128.377 172.443C128.403 172.539 128.39 172.642 128.34 172.728C128.29 172.814 128.208 172.877 128.112 172.902L107.828 178.338C107.732 178.363 107.629 178.35 107.543 178.3C107.457 178.25 107.394 178.169 107.368 178.072L103.572 163.906C103.547 163.809 103.484 163.728 103.398 163.678C103.312 163.628 103.209 163.615 103.113 163.64ZM126.209 157.107L101.578 163.707C101.482 163.732 101.4 163.795 101.35 163.881C101.301 163.968 101.287 164.07 101.313 164.166C101.339 164.262 101.401 164.344 101.488 164.394C101.574 164.443 101.676 164.457 101.772 164.431L126.403 157.831C126.499 157.805 126.581 157.743 126.631 157.656C126.681 157.57 126.694 157.468 126.668 157.372C126.643 157.276 126.58 157.194 126.494 157.144C126.408 157.095 126.305 157.081 126.209 157.107Z" fill="#A1D8EE"/>
<path d="M114.661 184.839C114.695 184.876 114.735 184.905 114.78 184.926C114.824 184.946 114.873 184.958 114.922 184.96C114.971 184.962 115.02 184.954 115.066 184.937C115.113 184.92 115.155 184.895 115.191 184.861L119.406 180.979L124.997 182.234C125.095 182.255 125.196 182.238 125.28 182.184C125.364 182.131 125.424 182.047 125.446 181.95C125.467 181.853 125.45 181.751 125.396 181.667C125.343 181.583 125.259 181.523 125.162 181.502L119.467 180.224C119.495 180.181 119.513 180.133 119.521 180.082C119.529 180.031 119.526 179.979 119.513 179.93L119.012 178.058C118.986 177.962 118.923 177.88 118.837 177.831C118.751 177.781 118.649 177.767 118.553 177.793C118.457 177.819 118.375 177.882 118.325 177.968C118.275 178.054 118.262 178.156 118.287 178.252L118.789 180.124C118.817 180.228 118.887 180.308 118.976 180.355L114.683 184.309C114.61 184.376 114.566 184.47 114.562 184.57C114.558 184.669 114.594 184.766 114.661 184.839Z" fill="#A1D8EE"/>
</g>
</g>
</g>
<g filter="url(#filter1_f_4014_5160)">
<rect x="742.049" y="2.32617" width="36" height="36" rx="6" transform="rotate(17 742.049 2.32617)" fill="#262728"/>
<rect x="742.298" y="2.79443" width="35.25" height="35.25" rx="5.625" transform="rotate(17 742.298 2.79443)" stroke="#C2CCF6" stroke-opacity="0.12" stroke-width="0.75"/>
<g clip-path="url(#clip2_4014_5160)">
<g clip-path="url(#clip3_4014_5160)">
<path d="M757.267 27.3104C756.917 27.7717 756.472 28.1536 755.964 28.4309L757.363 32.7382C758.995 32.0498 760.373 30.8734 761.31 29.3704L757.267 27.3104Z" stroke="#A1D8EE" stroke-width="0.75" stroke-linecap="round" stroke-linejoin="round"/>
<path d="M754.542 28.8927C753.932 28.9758 753.311 28.9212 752.724 28.7329C752.138 28.5447 751.601 28.2275 751.153 27.8047C750.706 27.3819 750.358 26.8642 750.137 26.2897C749.915 25.7151 749.825 25.0982 749.873 24.4842C749.921 23.8703 750.106 23.2748 750.414 22.7416C750.722 22.2084 751.145 21.751 751.653 21.4028C752.161 21.0547 752.741 20.8247 753.349 20.7298C753.958 20.6348 754.58 20.6773 755.17 20.8541L757.213 16.8446C755.955 16.3247 754.591 16.1099 753.234 16.2178C751.877 16.3258 750.565 16.7534 749.405 17.4656C748.245 18.1779 747.27 19.1546 746.56 20.3159C745.85 21.4772 745.425 22.7901 745.319 24.1473C745.214 25.5044 745.431 26.8673 745.953 28.1244C746.475 29.3815 747.288 30.4971 748.324 31.3801C749.36 32.263 750.59 32.8882 751.914 33.2046C753.238 33.5209 754.618 33.5194 755.941 33.2001L754.542 28.8927Z" stroke="#A1D8EE" stroke-width="0.75" stroke-linecap="round" stroke-linejoin="round"/>
<path d="M756.505 21.5351C757.166 22.0428 757.657 22.7386 757.915 23.5308C758.172 24.3231 758.183 25.1747 757.948 25.9736L761.957 28.0166C762.716 26.1431 762.792 24.0625 762.172 22.1387C761.552 20.2148 760.275 18.5701 758.565 17.4922L756.505 21.5351Z" stroke="#A1D8EE" stroke-width="0.75" stroke-linecap="round" stroke-linejoin="round"/>
</g>
</g>
</g>
<g filter="url(#filter2_f_4014_5160)">
<rect x="0.955078" y="140.272" width="36" height="36" rx="5.625" transform="rotate(-15 0.955078 140.272)" fill="#262728"/>
<rect x="1.29954" y="140.471" width="35.4375" height="35.4375" rx="5.34375" transform="rotate(-15 1.29954 140.471)" stroke="#C2CCF6" stroke-opacity="0.12" stroke-width="0.5625"/>
<g clip-path="url(#clip4_4014_5160)">
<g clip-path="url(#clip5_4014_5160)">
<path d="M24.8599 156.461L17.9053 158.325C17.6662 158.389 17.4182 158.246 17.3541 158.007L15.1995 149.965C15.1354 149.726 15.2786 149.478 15.5177 149.414L27.6883 146.153C27.9274 146.089 28.1754 146.232 28.2395 146.471L29.0548 149.514" stroke="#A1D8EE" stroke-width="0.45" stroke-miterlimit="10"/>
<path d="M24.4528 154.94L17.0635 156.92" stroke="#A1D8EE" stroke-width="0.45" stroke-miterlimit="10"/>
<path d="M20.9209 159.147L27.8756 157.284" stroke="#A1D8EE" stroke-width="0.45" stroke-miterlimit="10"/>
<path d="M22.225 158.798L21.8174 157.276" stroke="#A1D8EE" stroke-width="0.45" stroke-miterlimit="10"/>
<path d="M24.2196 154.071L17.6996 155.818L16.1855 150.167L27.4869 147.139L27.9528 148.877" stroke="#A1D8EE" stroke-width="0.45" stroke-miterlimit="10"/>
<path d="M16.6514 151.906L27.9527 148.878" stroke="#A1D8EE" stroke-width="0.45" stroke-miterlimit="10"/>
<path d="M17.3455 151.02C17.4656 150.988 17.5368 150.865 17.5046 150.745C17.4725 150.625 17.3491 150.554 17.2291 150.586C17.109 150.618 17.0378 150.741 17.07 150.861C17.1021 150.981 17.2255 151.053 17.3455 151.02Z" fill="#A1D8EE"/>
<path d="M17.9979 150.846C18.1179 150.814 18.1891 150.691 18.157 150.571C18.1248 150.451 18.0014 150.379 17.8814 150.411C17.7614 150.444 17.6901 150.567 17.7223 150.687C17.7545 150.807 17.8778 150.878 17.9979 150.846Z" fill="#A1D8EE"/>
<path d="M18.6502 150.671C18.7702 150.639 18.8415 150.516 18.8093 150.396C18.7771 150.276 18.6538 150.205 18.5337 150.237C18.4137 150.269 18.3425 150.392 18.3746 150.512C18.4068 150.632 18.5302 150.704 18.6502 150.671Z" fill="#A1D8EE"/>
<path d="M21.8832 151.436L17.7539 152.542L18.3362 154.715L22.4656 153.609L21.8832 151.436Z" stroke="#A1D8EE" stroke-width="0.45" stroke-miterlimit="10"/>
<path d="M22.5352 151.261L23.4045 151.028" stroke="#A1D8EE" stroke-width="0.45" stroke-miterlimit="10"/>
<path d="M22.8262 152.348L23.6955 152.115" stroke="#A1D8EE" stroke-width="0.45" stroke-miterlimit="10"/>
<path d="M23.1172 153.435L23.9865 153.202" stroke="#A1D8EE" stroke-width="0.45" stroke-miterlimit="10"/>
<path d="M28.035 157.008C28.155 156.976 28.2262 156.853 28.1941 156.733C28.1619 156.613 28.0385 156.541 27.9185 156.574C27.7985 156.606 27.7272 156.729 27.7594 156.849C27.7916 156.969 27.9149 157.04 28.035 157.008Z" fill="#A1D8EE"/>
<path d="M24.9341 157.606C24.9981 157.845 25.2461 157.988 25.4852 157.924L30.4839 156.585C30.7229 156.521 30.8661 156.273 30.8021 156.034L28.9386 149.079C28.8745 148.84 28.6265 148.697 28.3874 148.761L23.3888 150.1C23.1497 150.164 23.0065 150.412 23.0706 150.651L24.9341 157.606Z" stroke="#A1D8EE" stroke-width="0.45" stroke-miterlimit="10"/>
<path d="M28.186 149.747L24.0566 150.854L25.6872 156.939L29.8165 155.832L28.186 149.747Z" stroke="#A1D8EE" stroke-width="0.45" stroke-miterlimit="10"/>
<path d="M27.5489 150.849L25.1582 151.49L25.6241 153.228L28.0147 152.588L27.5489 150.849Z" stroke="#A1D8EE" stroke-width="0.45" stroke-miterlimit="10"/>
<path d="M25.6396 154.156L28.465 153.399" stroke="#A1D8EE" stroke-width="0.45" stroke-miterlimit="10"/>
<path d="M25.873 155.025L28.6984 154.268" stroke="#A1D8EE" stroke-width="0.45" stroke-miterlimit="10"/>
<path d="M26.1055 155.895L28.9308 155.137" stroke="#A1D8EE" stroke-width="0.45" stroke-miterlimit="10"/>
</g>
</g>
</g>
<g filter="url(#filter3_f_4014_5160)">
<rect x="765.968" y="115.403" width="64" height="64" rx="10.6667" transform="rotate(15 765.968 115.403)" fill="#262728"/>
<rect x="766.439" y="116.22" width="62.6667" height="62.6667" rx="10" transform="rotate(15 766.439 116.22)" stroke="#C2CCF6" stroke-opacity="0.12" stroke-width="1.33333"/>
<g clip-path="url(#clip6_4014_5160)">
<g clip-path="url(#clip7_4014_5160)">
<path d="M778.676 157.071C779.353 157.253 780.05 156.851 780.231 156.173C780.413 155.496 780.011 154.799 779.333 154.618C778.656 154.436 777.959 154.838 777.778 155.516C777.596 156.193 777.998 156.89 778.676 157.071Z" fill="#A1D8EE"/>
<path d="M799.499 156.398L798.649 156.17C798.842 154.726 798.502 153.26 797.694 152.048C796.885 150.835 795.663 149.959 794.255 149.581C792.847 149.204 791.35 149.352 790.044 149.998C788.737 150.644 787.71 151.743 787.155 153.09L778.249 150.704C777.288 150.447 776.265 150.581 775.403 151.079C774.542 151.576 773.913 152.395 773.656 153.356L772.471 157.78C772.213 158.74 772.348 159.764 772.845 160.625C773.343 161.487 774.162 162.115 775.122 162.372L796.373 168.066C797.333 168.324 798.357 168.189 799.218 167.692C800.08 167.195 800.708 166.375 800.965 165.415L802.151 160.991C802.408 160.03 802.274 159.007 801.776 158.145C801.279 157.284 800.46 156.655 799.499 156.398ZM793.873 151.008C794.732 151.238 795.504 151.718 796.09 152.387C796.677 153.055 797.052 153.883 797.169 154.765C797.286 155.647 797.138 156.544 796.745 157.342C796.353 158.14 795.732 158.804 794.962 159.249C794.192 159.695 793.308 159.903 792.42 159.846C791.532 159.789 790.681 159.47 789.974 158.929C789.268 158.389 788.737 157.651 788.449 156.81C788.162 155.968 788.13 155.06 788.359 154.2C788.51 153.628 788.774 153.091 789.133 152.621C789.493 152.151 789.941 151.757 790.454 151.46C790.966 151.164 791.531 150.971 792.118 150.894C792.705 150.816 793.301 150.855 793.873 151.008ZM799.517 165.027C799.362 165.603 798.985 166.094 798.468 166.393C797.951 166.691 797.337 166.772 796.761 166.618L775.511 160.924C774.934 160.769 774.443 160.392 774.144 159.875C773.846 159.358 773.765 158.744 773.92 158.168L775.105 153.744C775.259 153.168 775.637 152.676 776.153 152.378C776.67 152.079 777.284 151.998 777.861 152.153L786.766 154.539C786.584 155.979 786.929 157.435 787.738 158.64C788.546 159.844 789.764 160.715 791.166 161.091C792.567 161.466 794.057 161.321 795.36 160.682C796.663 160.044 797.69 158.954 798.251 157.617L799.111 157.847C799.687 158.001 800.179 158.379 800.477 158.895C800.776 159.412 800.856 160.026 800.702 160.603L799.517 165.027Z" fill="#A1D8EE"/>
<path d="M791.891 158.407C792.497 158.569 793.137 158.548 793.731 158.346C794.325 158.144 794.846 157.771 795.228 157.273C795.609 156.775 795.834 156.175 795.875 155.548C795.915 154.922 795.769 154.298 795.454 153.756C795.139 153.213 794.671 152.775 794.108 152.499C793.544 152.223 792.912 152.12 792.29 152.203C791.668 152.286 791.085 152.552 790.615 152.967C790.144 153.382 789.807 153.928 789.647 154.534C789.432 155.345 789.548 156.208 789.968 156.934C790.389 157.66 791.08 158.19 791.891 158.407Z" fill="#A1D8EE"/>
<path d="M781.536 158.914L777.673 157.879C777.481 157.828 777.276 157.855 777.104 157.954C776.931 158.054 776.806 158.217 776.754 158.41C776.703 158.602 776.73 158.806 776.829 158.979C776.929 159.151 777.092 159.277 777.284 159.328L781.148 160.363C781.34 160.415 781.545 160.388 781.717 160.288C781.89 160.189 782.015 160.025 782.067 159.833C782.118 159.641 782.091 159.436 781.992 159.264C781.892 159.092 781.729 158.966 781.536 158.914Z" fill="#A1D8EE"/>
<path d="M799.517 152.085C799.612 152.111 799.711 152.118 799.809 152.105C799.906 152.092 800.001 152.06 800.086 152.01L801.705 151.067C801.791 151.019 801.867 150.954 801.927 150.876C801.988 150.798 802.032 150.708 802.058 150.613C802.084 150.517 802.09 150.418 802.076 150.32C802.063 150.222 802.03 150.128 801.979 150.043C801.88 149.871 801.716 149.745 801.524 149.694C801.332 149.643 801.127 149.669 800.955 149.769L799.336 150.712C799.25 150.76 799.174 150.825 799.114 150.903C799.053 150.981 799.008 151.07 798.983 151.166C798.957 151.261 798.951 151.361 798.965 151.459C798.978 151.557 799.011 151.651 799.062 151.736C799.11 151.822 799.175 151.897 799.253 151.957C799.332 152.017 799.421 152.061 799.517 152.085ZM787.992 148.77C788.04 148.856 788.104 148.932 788.183 148.992C788.261 149.053 788.351 149.096 788.447 149.119C788.542 149.145 788.642 149.152 788.739 149.139C788.837 149.126 788.931 149.094 789.016 149.044C789.188 148.944 789.314 148.781 789.365 148.589C789.417 148.397 789.39 148.192 789.29 148.02L788.35 146.391C788.303 146.302 788.238 146.224 788.16 146.16C788.082 146.097 787.991 146.05 787.894 146.022C787.798 145.994 787.696 145.986 787.596 145.999C787.496 146.011 787.4 146.043 787.313 146.093C787.225 146.144 787.149 146.211 787.089 146.292C787.028 146.372 786.984 146.464 786.96 146.562C786.936 146.659 786.931 146.761 786.947 146.86C786.963 146.96 786.998 147.055 787.052 147.141L787.992 148.77ZM794.595 148.313C794.787 148.362 794.991 148.334 795.162 148.235C795.334 148.136 795.46 147.973 795.514 147.783L796 145.967C796.052 145.775 796.025 145.57 795.926 145.398C795.826 145.225 795.662 145.1 795.47 145.048C795.278 144.997 795.073 145.024 794.901 145.123C794.729 145.223 794.603 145.386 794.552 145.579L794.065 147.394C794.014 147.587 794.04 147.791 794.14 147.964C794.239 148.136 794.403 148.262 794.595 148.313Z" fill="#A1D8EE"/>
</g>
</g>
</g>
<defs>
<filter id="filter0_f_4014_5160" x="86.1055" y="141.105" width="61.7881" height="61.7876" filterUnits="userSpaceOnUse" color-interpolation-filters="sRGB">
<feFlood flood-opacity="0" result="BackgroundImageFix"/>
<feBlend mode="normal" in="SourceGraphic" in2="BackgroundImageFix" result="shape"/>
<feGaussianBlur stdDeviation="0.75" result="effect1_foregroundBlur_4014_5160"/>
</filter>
<filter id="filter1_f_4014_5160" x="728.523" y="-0.673828" width="50.9521" height="50.9521" filterUnits="userSpaceOnUse" color-interpolation-filters="sRGB">
<feFlood flood-opacity="0" result="BackgroundImageFix"/>
<feBlend mode="normal" in="SourceGraphic" in2="BackgroundImageFix" result="shape"/>
<feGaussianBlur stdDeviation="1.5" result="effect1_foregroundBlur_4014_5160"/>
</filter>
<filter id="filter2_f_4014_5160" x="-0.844922" y="129.155" width="47.6908" height="47.6908" filterUnits="userSpaceOnUse" color-interpolation-filters="sRGB">
<feFlood flood-opacity="0" result="BackgroundImageFix"/>
<feBlend mode="normal" in="SourceGraphic" in2="BackgroundImageFix" result="shape"/>
<feGaussianBlur stdDeviation="0.9" result="effect1_foregroundBlur_4014_5160"/>
</filter>
<filter id="filter3_f_4014_5160" x="748.403" y="114.403" width="80.3838" height="80.3838" filterUnits="userSpaceOnUse" color-interpolation-filters="sRGB">
<feFlood flood-opacity="0" result="BackgroundImageFix"/>
<feBlend mode="normal" in="SourceGraphic" in2="BackgroundImageFix" result="shape"/>
<feGaussianBlur stdDeviation="0.5" result="effect1_foregroundBlur_4014_5160"/>
</filter>
<clipPath id="clip0_4014_5160">
<rect width="24" height="24" fill="white" transform="translate(102.303 163.514) rotate(-15)"/>
</clipPath>
<clipPath id="clip1_4014_5160">
<rect width="24" height="24" fill="white" transform="translate(102.303 163.513) rotate(-15)"/>
</clipPath>
<clipPath id="clip2_4014_5160">
<rect width="18" height="18" fill="white" transform="translate(750.066 12.6973) rotate(27)"/>
</clipPath>
<clipPath id="clip3_4014_5160">
<rect width="18" height="18" fill="white" transform="translate(750.066 12.6978) rotate(27)"/>
</clipPath>
<clipPath id="clip4_4014_5160">
<rect width="14.4" height="14.4" fill="white" transform="translate(14.1826 147.909) rotate(-15)"/>
</clipPath>
<clipPath id="clip5_4014_5160">
<rect width="14.4" height="14.4" fill="white" transform="translate(14.1826 147.909) rotate(-15)"/>
</clipPath>
<clipPath id="clip6_4014_5160">
<rect width="32" height="32" fill="white" transform="translate(777.281 134.999) rotate(15)"/>
</clipPath>
<clipPath id="clip7_4014_5160">
<rect width="32" height="32" fill="white" transform="translate(777.281 135) rotate(15)"/>
</clipPath>
</defs>
</svg>
