<svg width="49" height="48" viewBox="0 0 49 48" fill="none" xmlns="http://www.w3.org/2000/svg">
<g clip-path="url(#clip0_2001_4809)">
<path d="M24.5 35.9951C31.1274 35.9951 36.5 30.6225 36.5 23.9951C36.5 17.3677 31.1274 11.9951 24.5 11.9951C17.8726 11.9951 12.5 17.3677 12.5 23.9951C12.5 30.6225 17.8726 35.9951 24.5 35.9951Z" fill="white"/>
<path d="M24.5005 12H45.2817C43.1759 8.35143 40.1466 5.32154 36.4983 3.21505C32.8501 1.10855 28.7116 -0.00029387 24.4989 5.84198e-08C20.2862 0.000293987 16.1478 1.10972 12.4999 3.21672C8.85196 5.32373 5.82307 8.35403 3.71777 12.0029L14.1084 30L14.1177 29.9976C13.0607 28.1749 12.5029 26.1057 12.5005 23.9987C12.4981 21.8917 13.0513 19.8212 14.1042 17.9961C15.1571 16.171 16.6725 14.6558 18.4977 13.6031C20.323 12.5504 22.3934 11.9974 24.5005 12Z" fill="url(#paint0_linear_2001_4809)"/>
<path d="M24.5 33.5C29.7467 33.5 34 29.2467 34 24C34 18.7533 29.7467 14.5 24.5 14.5C19.2533 14.5 15 18.7533 15 24C15 29.2467 19.2533 33.5 24.5 33.5Z" fill="#1A73E8"/>
<path d="M34.891 30.0027L24.5004 47.9998C28.7131 48.0004 32.8517 46.8918 36.5 44.7856C40.1484 42.6794 43.1779 39.6497 45.284 36.0013C47.3901 32.3529 48.4984 28.2142 48.4977 24.0015C48.4969 19.7889 47.3871 15.6506 45.2797 12.0029H24.4986L24.4961 12.0122C26.6031 12.0082 28.674 12.5597 30.4999 13.6111C32.3259 14.6626 33.8424 16.1768 34.8965 18.0012C35.9506 19.8256 36.5052 21.8957 36.5042 24.0027C36.5032 26.1098 35.9468 28.1793 34.891 30.0027Z" fill="url(#paint1_linear_2001_4809)"/>
<path d="M14.1089 30.003L3.71827 12.0059C1.6114 15.6539 0.50211 19.7923 0.501953 24.005C0.501796 28.2177 1.61077 32.3562 3.71738 36.0043C5.82398 39.6525 8.85396 42.6817 12.5026 44.7874C16.1513 46.8931 20.2901 48.0011 24.5028 47.9999L34.8934 30.0028L34.8867 29.996C33.8366 31.8227 32.3236 33.3404 30.5 34.3959C28.6765 35.4515 26.6068 36.0077 24.4998 36.0084C22.3928 36.0091 20.3228 35.4543 18.4985 34.4C16.6742 33.3456 15.1601 31.829 14.1089 30.003Z" fill="url(#paint2_linear_2001_4809)"/>
</g>
<defs>
<linearGradient id="paint0_linear_2001_4809" x1="3.71777" y1="15" x2="45.2817" y2="15" gradientUnits="userSpaceOnUse">
<stop stop-color="#D93025"/>
<stop offset="1" stop-color="#EA4335"/>
</linearGradient>
<linearGradient id="paint1_linear_2001_4809" x1="21.2216" y1="47.6789" x2="42.0036" y2="11.6835" gradientUnits="userSpaceOnUse">
<stop stop-color="#FCC934"/>
<stop offset="1" stop-color="#FBBC04"/>
</linearGradient>
<linearGradient id="paint2_linear_2001_4809" x1="27.0984" y1="46.5014" x2="6.31637" y2="10.5059" gradientUnits="userSpaceOnUse">
<stop stop-color="#1E8E3E"/>
<stop offset="1" stop-color="#34A853"/>
</linearGradient>
<clipPath id="clip0_2001_4809">
<rect width="48" height="48" fill="white" transform="translate(0.5)"/>
</clipPath>
</defs>
</svg>
