<svg width="100" height="54" viewBox="0 0 100 54" fill="none" xmlns="http://www.w3.org/2000/svg">
<g filter="url(#filter0_d_1_6349)">
<rect x="14.2876" y="12" width="74" height="24" rx="6" transform="rotate(5 14.2876 12)" fill="#262728" shape-rendering="crispEdges"/>
<path d="M26.009 29.1864C25.5373 29.1452 25.1229 29.0198 24.7657 28.8103C24.4088 28.5985 24.1342 28.3273 23.9422 27.9968C23.7524 27.6665 23.668 27.3003 23.6889 26.8981L24.9625 27.0095C24.9601 27.3088 25.0673 27.5629 25.2843 27.772C25.5015 27.9788 25.774 28.0965 26.1018 28.1252C26.3589 28.1477 26.5928 28.1087 26.8036 28.0083C27.0144 27.9079 27.1867 27.7579 27.3207 27.5581C27.4546 27.3583 27.5321 27.1239 27.5533 26.8548C27.5796 26.5814 27.5431 26.3334 27.4437 26.1109C27.3444 25.8883 27.1974 25.7079 27.0027 25.5697C26.8082 25.4291 26.5778 25.3471 26.3113 25.3238C26.0945 25.3025 25.8776 25.3239 25.6604 25.3881C25.4433 25.4522 25.2676 25.5462 25.1332 25.6699L23.9651 25.3716L24.6704 21.669L28.8731 22.0367L28.7772 23.1334L25.6605 22.8607L25.2838 24.7634L25.3262 24.7671C25.4745 24.6208 25.6758 24.5066 25.9301 24.4242C26.1847 24.3396 26.4582 24.31 26.7506 24.3356C27.1893 24.374 27.5717 24.512 27.8979 24.7497C28.2243 24.985 28.4707 25.2917 28.6373 25.6699C28.8038 26.0481 28.8667 26.4695 28.8261 26.9341C28.7842 27.4128 28.636 27.83 28.3815 28.1856C28.1296 28.539 27.7985 28.8059 27.3882 28.9863C26.9805 29.1645 26.5208 29.2312 26.009 29.1864ZM32.4688 29.7908C31.8863 29.7399 31.3992 29.5487 31.0075 29.2174C30.6185 28.8839 30.3363 28.4279 30.1612 27.8494C29.9886 27.2687 29.9369 26.5833 30.006 25.7932C30.0775 25.0033 30.2483 24.341 30.5185 23.8062C30.7912 23.2692 31.1479 22.8726 31.5886 22.6165C32.0316 22.3606 32.5432 22.258 33.1234 22.3088C33.7036 22.3595 34.1896 22.5494 34.5814 22.8783C34.9733 23.2073 35.2557 23.6598 35.4287 24.2358C35.6041 24.8119 35.6573 25.4939 35.5884 26.2816C35.519 27.074 35.3478 27.7411 35.0746 28.2828C34.8041 28.8223 34.4471 29.2213 34.0039 29.4795C33.563 29.738 33.0513 29.8418 32.4688 29.7908ZM32.5657 28.6835C33.0185 28.7232 33.3953 28.5316 33.6961 28.1087C33.9994 27.6837 34.1892 27.0361 34.2653 26.1658C34.3156 25.5904 34.2978 25.1017 34.2118 24.6996C34.1258 24.2976 33.9817 23.988 33.7797 23.7707C33.5779 23.551 33.3273 23.4281 33.0278 23.4019C32.5773 23.3625 32.2016 23.5554 31.9006 23.9806C31.5998 24.4034 31.4105 25.0463 31.3326 25.9093C31.2797 26.4869 31.295 26.9778 31.3784 27.3819C31.4643 27.7863 31.6081 28.0983 31.8099 28.318C32.0119 28.5353 32.2638 28.6571 32.5657 28.6835ZM38.6998 29.0277L39.1282 24.1317L40.239 24.2288L39.8106 29.1249L38.6998 29.0277ZM36.9728 26.9695L37.07 25.8587L41.966 26.287L41.8689 27.3979L36.9728 26.9695ZM47.9397 32.8661L48.7351 23.7744L50.0193 23.8868L49.2238 32.9785L47.9397 32.8661ZM48.092 31.1256C47.6934 31.0907 47.3349 30.9916 47.0165 30.8283C46.6981 30.665 46.4294 30.449 46.2105 30.1803C45.994 29.9118 45.8346 29.6008 45.7325 29.2473C45.6329 28.8916 45.6014 28.5051 45.6379 28.0876C45.6744 27.6702 45.7726 27.295 45.9324 26.962C46.0946 26.6292 46.3057 26.3495 46.5655 26.1227C46.8279 25.8937 47.1301 25.7265 47.4721 25.6209C47.814 25.5154 48.1843 25.48 48.5828 25.5149L48.8552 25.5388L48.3644 31.1494L48.092 31.1256ZM48.1823 30.0926L48.3415 30.1065L48.6517 26.5618L48.4925 26.5479C48.2661 26.5281 48.0615 26.5577 47.8787 26.6368C47.6985 26.7137 47.5422 26.8296 47.4098 26.9843C47.28 27.1369 47.1751 27.3179 47.095 27.5271C47.0175 27.7342 46.9681 27.9592 46.9468 28.2022C46.9185 28.5253 46.9457 28.8259 47.0283 29.104C47.1111 29.3798 47.2481 29.6069 47.4393 29.7852C47.6328 29.9637 47.8805 30.0662 48.1823 30.0926ZM49.3761 31.2379L49.1037 31.2141L49.5946 25.6034L49.867 25.6273C50.2656 25.6621 50.6241 25.7612 50.9425 25.9245C51.2609 26.0879 51.5283 26.3049 51.7446 26.5758C51.9635 26.8445 52.1227 27.1566 52.2223 27.5123C52.3243 27.8682 52.357 28.2549 52.3205 28.6723C52.2839 29.0897 52.1846 29.4648 52.0224 29.7976C51.8627 30.1282 51.6518 30.4068 51.3896 30.6334C51.1297 30.8602 50.8288 31.0264 50.4869 31.1319C50.145 31.2375 49.7747 31.2728 49.3761 31.2379ZM49.4665 30.205C49.6953 30.225 49.8998 30.1965 50.08 30.1196C50.2602 30.0427 50.4152 29.9279 50.545 29.7753C50.6771 29.6229 50.782 29.4431 50.8595 29.236C50.9373 29.0266 50.9867 28.8004 51.008 28.5575C51.0363 28.2344 51.0103 27.9338 50.93 27.6559C50.8498 27.378 50.7129 27.1497 50.5194 26.9712C50.3284 26.7905 50.0809 26.6869 49.7766 26.6603L49.6174 26.6463L49.3073 30.191L49.4665 30.205ZM55.5263 31.776C54.9956 31.7296 54.546 31.5726 54.1772 31.3051C53.8085 31.0376 53.5352 30.6845 53.3574 30.2459C53.1818 29.8076 53.1186 29.3077 53.1677 28.7464C53.2168 28.1851 53.366 27.7027 53.6152 27.2991C53.8667 26.8957 54.1973 26.5943 54.6068 26.3949C55.0164 26.1954 55.4865 26.1189 56.0172 26.1653C56.5478 26.2118 56.9975 26.3687 57.3662 26.6363C57.7349 26.9038 58.0069 27.2579 58.1822 27.6987C58.3599 28.1396 58.4242 28.6407 58.3751 29.202C58.326 29.7633 58.1758 30.2445 57.9244 30.6455C57.6754 31.0467 57.3462 31.3471 56.9366 31.5465C56.527 31.7459 56.0569 31.8224 55.5263 31.776ZM55.6231 30.7507C55.9108 30.7759 56.1583 30.7179 56.3655 30.5768C56.5729 30.4334 56.7356 30.2314 56.8534 29.9707C56.9737 29.7103 57.0482 29.4151 57.0771 29.0849C57.1062 28.7523 57.0842 28.4474 57.011 28.1701C56.9404 27.8906 56.8154 27.6622 56.636 27.485C56.4567 27.3077 56.2231 27.2064 55.9354 27.1813C55.6406 27.1555 55.3883 27.2142 55.1785 27.3574C54.9711 27.5009 54.8072 27.704 54.6868 27.9668C54.5689 28.2274 54.4954 28.5239 54.4663 28.8565C54.4374 29.1866 54.4584 29.4903 54.5292 29.7674C54.6024 30.0447 54.7287 30.272 54.908 30.4493C55.0899 30.6245 55.3283 30.7249 55.6231 30.7507ZM63.2425 29.0718L63.1506 30.1224L60.2568 29.8693L60.3487 28.8186L63.2425 29.0718ZM60.9362 26.667L60.4608 32.1008L59.2262 31.9928L59.7016 26.559L60.9362 26.667ZM64.2722 26.9589L63.7968 32.3926L62.5657 32.2849L63.0411 26.8511L64.2722 26.9589ZM67.4534 32.8195C66.9227 32.7731 66.4731 32.6161 66.1043 32.3486C65.7356 32.081 65.4623 31.728 65.2844 31.2894C65.1089 30.851 65.0457 30.3512 65.0948 29.7899C65.1439 29.2286 65.2931 28.7462 65.5423 28.3426C65.7938 27.9392 66.1244 27.6378 66.5339 27.4383C66.9435 27.2389 67.4136 27.1624 67.9442 27.2088C68.4749 27.2552 68.9246 27.4122 69.2933 27.6798C69.662 27.9473 69.934 28.3014 70.1093 28.7421C70.287 29.1831 70.3513 29.6842 70.3022 30.2455C70.2531 30.8068 70.1029 31.288 69.8515 31.689C69.6025 32.0902 69.2733 32.3905 68.8637 32.59C68.4541 32.7894 67.984 32.8659 67.4534 32.8195ZM67.5502 31.7942C67.8379 31.8194 68.0854 31.7614 68.2926 31.6203C68.5 31.4769 68.6627 31.2748 68.7805 31.0142C68.9008 30.7538 68.9753 30.4585 69.0042 30.1284C69.0333 29.7958 69.0112 29.4909 68.9381 29.2136C68.8675 28.9341 68.7425 28.7057 68.5631 28.5284C68.3838 28.3511 68.1502 28.2499 67.8625 28.2247C67.5677 28.1989 67.3154 28.2577 67.1056 28.4009C66.8982 28.5444 66.7343 28.7475 66.6139 29.0102C66.496 29.2708 66.4225 29.5674 66.3934 29.9C66.3645 30.2301 66.3855 30.5338 66.4563 30.8109C66.5295 31.0882 66.6558 31.3155 66.8351 31.4928C67.017 31.6679 67.2554 31.7684 67.5502 31.7942ZM71.1533 33.0363L71.6287 27.6025L73.9105 27.8021C74.5543 27.8584 75.0513 28.0314 75.4014 28.3211C75.7539 28.611 75.9101 28.9858 75.8698 29.4457C75.8432 29.75 75.7153 29.9895 75.4861 30.1643C75.2595 30.337 74.9617 30.4405 74.5928 30.4747C74.8761 30.5233 75.1198 30.6171 75.3239 30.7561C75.5303 30.8954 75.6863 31.0683 75.7918 31.2747C75.8973 31.4812 75.9389 31.7118 75.9166 31.9665C75.8904 32.266 75.7886 32.5197 75.6112 32.7276C75.4364 32.9333 75.1938 33.0844 74.8836 33.1808C74.5759 33.2751 74.2098 33.3037 73.7853 33.2665L71.1533 33.0363ZM72.4408 32.133L73.8735 32.2583C74.1093 32.2789 74.2993 32.2397 74.4434 32.1406C74.5878 32.0392 74.6684 31.8918 74.6853 31.6984C74.7049 31.4743 74.6531 31.2927 74.5298 31.1536C74.4067 31.0122 74.2273 30.9311 73.9914 30.9105L72.5587 30.7851L72.4408 32.133ZM72.6311 29.9573L73.7384 30.0542C73.9129 30.0695 74.0648 30.0578 74.1941 30.0192C74.3237 29.9783 74.4255 29.9147 74.4996 29.8285C74.5739 29.7399 74.6167 29.6308 74.628 29.5011C74.6443 29.3148 74.5805 29.1618 74.4365 29.0423C74.2948 28.923 74.0896 28.8515 73.8207 28.828L72.7382 28.7333L72.6311 29.9573Z" fill="#FAFDFF"/>
</g>
<defs>
<filter id="filter0_d_1_6349" x="0.195801" y="0" width="99.8102" height="54.3582" filterUnits="userSpaceOnUse" color-interpolation-filters="sRGB">
<feFlood flood-opacity="0" result="BackgroundImageFix"/>
<feColorMatrix in="SourceAlpha" type="matrix" values="0 0 0 0 0 0 0 0 0 0 0 0 0 0 0 0 0 0 127 0" result="hardAlpha"/>
<feOffset/>
<feGaussianBlur stdDeviation="6"/>
<feComposite in2="hardAlpha" operator="out"/>
<feColorMatrix type="matrix" values="0 0 0 0 0 0 0 0 0 0 0 0 0 0 0 0 0 0 0.12 0"/>
<feBlend mode="normal" in2="BackgroundImageFix" result="effect1_dropShadow_1_6349"/>
<feBlend mode="normal" in="SourceGraphic" in2="effect1_dropShadow_1_6349" result="shape"/>
</filter>
</defs>
</svg>
