<svg width="124" height="61" viewBox="0 0 124 61" fill="none" xmlns="http://www.w3.org/2000/svg">
<g filter="url(#filter0_d_1_6344)">
<rect x="12.0635" y="25.0427" width="98" height="24" rx="6" transform="rotate(-8 12.0635 25.0427)" fill="#262728" shape-rendering="crispEdges"/>
<path d="M26.75 31.7917L27.7622 38.9937L26.4576 39.1771L25.6238 33.2446L25.5816 33.2505L24.0484 34.5633L23.8804 33.3677L25.5087 31.9662L26.75 31.7917ZM32.2721 38.4997C31.6931 38.5811 31.1755 38.5044 30.7193 38.2697C30.2652 38.0323 29.8877 37.6514 29.5869 37.1271C29.2882 36.6001 29.0836 35.9439 28.9732 35.1586C28.8652 34.3729 28.8826 33.6891 29.0256 33.1072C29.1705 32.5226 29.4289 32.056 29.8006 31.7073C30.1747 31.3582 30.6501 31.1432 31.2269 31.0622C31.8036 30.9811 32.3199 31.0568 32.7757 31.2892C33.2315 31.5215 33.6084 31.8989 33.9066 32.4212C34.207 32.9432 34.4123 33.5957 34.5224 34.3787C34.6331 35.1664 34.6163 35.8549 34.472 36.4442C34.3297 37.0307 34.0717 37.4997 33.6979 37.8511C33.3265 38.2021 32.8512 38.4183 32.2721 38.4997ZM32.1175 37.399C32.5676 37.3358 32.8916 37.0643 33.0896 36.5846C33.2895 36.1023 33.3287 35.4286 33.2072 34.5635C33.1268 33.9915 32.9994 33.5193 32.8252 33.1469C32.6509 32.7746 32.4409 32.5052 32.1952 32.339C31.9492 32.1703 31.6773 32.1069 31.3796 32.1488C30.9318 32.2117 30.6091 32.4842 30.4115 32.9662C30.2135 33.4458 30.1737 34.1149 30.2919 34.9732C30.3703 35.5479 30.4956 36.0228 30.6678 36.3979C30.8424 36.7726 31.0527 37.0442 31.2988 37.2129C31.5445 37.3791 31.8174 37.4412 32.1175 37.399ZM38.8772 37.5714C38.2981 37.6528 37.7805 37.5762 37.3244 37.3414C36.8702 37.104 36.4928 36.7232 36.192 36.1988C35.8932 35.6718 35.6886 35.0157 35.5782 34.2303C35.4702 33.4446 35.4876 32.7608 35.6306 32.1789C35.7755 31.5943 36.0339 31.1277 36.4056 30.779C36.7797 30.43 37.2552 30.2149 37.8319 30.1339C38.4086 30.0528 38.9249 30.1285 39.3807 30.3609C39.8365 30.5933 40.2135 30.9706 40.5116 31.4929C40.8121 32.0149 41.0173 32.6674 41.1274 33.4504C41.2381 34.2381 41.2213 34.9266 41.077 35.5159C40.9347 36.1025 40.6767 36.5715 40.3029 36.9228C39.9315 37.2739 39.4562 37.4901 38.8772 37.5714ZM38.7225 36.4708C39.1726 36.4075 39.4966 36.136 39.6946 35.6564C39.8946 35.174 39.9337 34.5003 39.8122 33.6353C39.7318 33.0632 39.6044 32.591 39.4302 32.2187C39.2559 31.8463 39.046 31.577 38.8002 31.4107C38.5542 31.2421 38.2823 31.1787 37.9846 31.2205C37.5368 31.2834 37.2141 31.5559 37.0165 32.0379C36.8185 32.5176 36.7787 33.1866 36.8969 34.045C36.9753 34.6197 37.1006 35.0945 37.2729 35.4696C37.4474 35.8443 37.6578 36.116 37.9038 36.2846C38.1495 36.4509 38.4224 36.5129 38.7225 36.4708ZM44.7768 35.4262L44.0928 30.5593L45.197 30.4041L45.881 35.271L44.7768 35.4262ZM42.631 33.8093L42.4759 32.7051L47.3428 32.0211L47.498 33.1253L42.631 33.8093ZM51.1751 30.1951L52.4024 30.0226L53.0143 34.3761L54.7128 34.1374L54.1009 29.7839L55.3282 29.6114L55.9401 33.9649L57.6386 33.7262L57.0267 29.3727L58.254 29.2002L59.0131 34.6017L51.9343 35.5965L51.1751 30.1951ZM61.869 34.3115C61.5267 34.3596 61.2098 34.3419 60.9184 34.2586C60.629 34.1726 60.3876 34.02 60.1943 33.8009C60.0033 33.5815 59.8829 33.2948 59.8331 32.9408C59.7903 32.6361 59.8111 32.3761 59.8957 32.1611C59.9802 31.946 60.1113 31.765 60.2891 31.6181C60.4669 31.4711 60.6734 31.3501 60.9087 31.2549C61.1459 31.157 61.3939 31.0755 61.6525 31.0105C61.9644 30.9332 62.217 30.8678 62.4103 30.8143C62.6032 30.7585 62.7403 30.6962 62.8215 30.6274C62.9047 30.556 62.9377 30.4593 62.9206 30.3374L62.9176 30.3163C62.8804 30.0514 62.773 29.8573 62.5955 29.734C62.418 29.6107 62.1816 29.5698 61.8862 29.6113C61.5744 29.6552 61.3366 29.7579 61.1728 29.9196C61.0114 30.0809 60.9121 30.2587 60.8748 30.4528L59.6625 30.451C59.7102 30.1096 59.8263 29.8136 60.011 29.5629C60.1954 29.3099 60.4358 29.1063 60.7321 28.9523C61.0281 28.796 61.3648 28.6913 61.7422 28.6382C62.0025 28.6017 62.2658 28.5957 62.5323 28.6204C62.7987 28.6452 63.0485 28.7129 63.2816 28.8235C63.5144 28.9319 63.712 29.0965 63.8746 29.3175C64.0395 29.5382 64.1471 29.8279 64.1975 30.1866L64.7056 33.8016L63.4818 33.9736L63.3776 33.2316L63.3354 33.2376C63.2791 33.3985 63.1898 33.5545 63.0676 33.7055C62.9474 33.8539 62.7874 33.9828 62.5876 34.0921C62.3899 34.1988 62.1503 34.2719 61.869 34.3115ZM62.0681 33.3296C62.3236 33.2937 62.5381 33.2121 62.7115 33.085C62.8845 32.9555 63.0096 32.7992 63.0867 32.6163C63.1661 32.433 63.1918 32.2417 63.1638 32.0424L63.0743 31.4059C63.0391 31.4443 62.9754 31.4844 62.8832 31.526C62.7934 31.5673 62.6914 31.6068 62.5771 31.6443C62.4629 31.6819 62.3495 31.717 62.2369 31.7495C62.1243 31.7821 62.0267 31.8102 61.9439 31.8337C61.7576 31.8862 61.5936 31.9523 61.4518 32.032C61.31 32.1117 61.2031 32.2104 61.1312 32.3281C61.059 32.4434 61.0344 32.5831 61.0574 32.7473C61.0904 32.9817 61.2008 33.1467 61.3888 33.2422C61.5767 33.3377 61.8032 33.3668 62.0681 33.3296ZM69.2747 25.6145L69.8334 26.3751C69.6955 26.5331 69.5335 26.6563 69.3475 26.7446C69.1614 26.8329 68.9385 26.9049 68.6785 26.9605C68.4206 27.0135 68.1128 27.0687 67.7551 27.1262C67.3532 27.1922 67.0345 27.3147 66.7991 27.4936C66.5636 27.6726 66.3983 27.9169 66.3032 28.2267C66.2078 28.5342 66.1704 28.9148 66.1912 29.3685L66.2509 29.3601C66.3733 29.0058 66.5746 28.7205 66.855 28.5042C67.1354 28.2879 67.4807 28.1509 67.891 28.0932C68.3388 28.0303 68.748 28.0756 69.1186 28.2291C69.4912 28.38 69.8004 28.6318 70.046 28.9845C70.2939 29.337 70.4558 29.7828 70.5316 30.322C70.6097 30.8776 70.5731 31.3741 70.4217 31.8113C70.2701 32.2462 70.0175 32.6009 69.664 32.8753C69.3128 33.1494 68.8747 33.3233 68.3495 33.3971C67.8267 33.4706 67.3559 33.4208 66.9372 33.2477C66.5204 33.072 66.175 32.7751 65.9011 32.357C65.6292 31.9362 65.447 31.3964 65.3544 30.7376L65.2862 30.2523C65.1076 28.9817 65.2111 28.0001 65.5967 27.3076C65.9823 26.6151 66.6396 26.1976 67.5687 26.0551C67.8447 26.0115 68.0918 25.9756 68.3102 25.9473C68.5309 25.9186 68.7217 25.8811 68.8825 25.8346C69.0433 25.788 69.174 25.7147 69.2747 25.6145ZM68.2132 32.3763C68.4735 32.3397 68.6891 32.2413 68.8603 32.081C69.031 31.9183 69.1494 31.7056 69.2153 31.443C69.2835 31.18 69.2937 30.8785 69.2459 30.5386C69.1988 30.2033 69.1072 29.9257 68.9711 29.7058C68.8347 29.4835 68.6628 29.3236 68.4554 29.226C68.2481 29.1284 68.0131 29.0981 67.7505 29.135C67.5536 29.1627 67.3816 29.2227 67.2344 29.3151C67.0872 29.4075 66.968 29.5295 66.877 29.6809C66.7859 29.8324 66.7247 30.0095 66.6935 30.2124C66.6622 30.4152 66.662 30.6435 66.6929 30.8974C66.7644 31.4061 66.9361 31.7944 67.208 32.0621C67.4796 32.3276 67.8147 32.4323 68.2132 32.3763ZM71.6086 32.8315L71.4543 31.7845L71.6407 31.7583C71.7814 31.7386 71.8953 31.6903 71.9825 31.6135C72.0698 31.5367 72.1346 31.42 72.1772 31.2634C72.2194 31.1044 72.2403 30.8959 72.2399 30.6378C72.2395 30.3796 72.2198 30.0608 72.1808 29.6814L71.9397 27.2768L75.8782 26.7233L76.6373 32.1247L75.4065 32.2977L74.7942 27.9407L73.2434 28.1586L73.4036 29.9112C73.4458 30.3643 73.4503 30.7617 73.417 31.1035C73.3858 31.4426 73.3136 31.7288 73.2006 31.9623C73.0899 32.1954 72.9353 32.3797 72.7368 32.5151C72.538 32.6483 72.2932 32.7353 72.0025 32.7761L71.6086 32.8315ZM80.2901 31.719C79.7626 31.7931 79.2891 31.7413 78.8697 31.5636C78.4502 31.3858 78.1045 31.1033 77.8325 30.716C77.5629 30.3284 77.3889 29.8555 77.3104 29.2976C77.232 28.7396 77.2688 28.236 77.4208 27.7867C77.5752 27.3371 77.8295 26.969 78.1837 26.6826C78.5379 26.3961 78.9787 26.2158 79.5062 26.1417C80.0337 26.0675 80.5072 26.1193 80.9266 26.2971C81.3461 26.4748 81.6908 26.7587 81.9608 27.1487C82.2331 27.5383 82.4084 28.0121 82.4868 28.5701C82.5653 29.1281 82.5271 29.6307 82.3724 30.078C82.2201 30.5249 81.9668 30.8916 81.6126 31.1781C81.2584 31.4645 80.8176 31.6448 80.2901 31.719ZM80.1538 30.6982C80.4398 30.658 80.6679 30.5458 80.8381 30.3617C81.0079 30.1753 81.1209 29.9419 81.1771 29.6614C81.2357 29.3807 81.2419 29.0762 81.1958 28.748C81.1493 28.4174 81.0592 28.1252 80.9256 27.8715C80.7939 27.6151 80.6207 27.4207 80.4061 27.2882C80.1915 27.1558 79.9411 27.1097 79.6551 27.1499C79.3621 27.1911 79.1294 27.3051 78.9573 27.4919C78.7874 27.6783 78.6734 27.9131 78.6152 28.1962C78.559 28.4766 78.5541 28.7821 78.6005 29.1127C78.6467 29.4409 78.7354 29.732 78.8667 29.9861C79.0004 30.2399 79.1746 30.433 79.3892 30.5654C79.6059 30.6951 79.8607 30.7394 80.1538 30.6982ZM87.2002 27.3482L87.347 28.3927L84.4704 28.7969L84.3236 27.7525L87.2002 27.3482ZM84.4121 25.5239L85.1712 30.9254L83.9439 31.0979L83.1848 25.6964L84.4121 25.5239ZM87.7282 25.0579L88.4873 30.4593L87.2636 30.6313L86.5044 25.2299L87.7282 25.0579ZM92.1462 30.0527C91.6187 30.1268 91.1453 30.075 90.7258 29.8973C90.3064 29.7196 89.9607 29.437 89.6887 29.0497C89.419 28.6621 89.245 28.1893 89.1666 27.6313C89.0882 27.0733 89.125 26.5697 89.277 26.1204C89.4314 25.6708 89.6856 25.3027 90.0398 25.0163C90.394 24.7298 90.8349 24.5495 91.3624 24.4754C91.8899 24.4013 92.3633 24.4531 92.7828 24.6308C93.2022 24.8085 93.5469 25.0924 93.8169 25.4824C94.0892 25.872 94.2646 26.3459 94.343 26.9038C94.4214 27.4618 94.3833 27.9644 94.2286 28.4117C94.0762 28.8586 93.823 29.2253 93.4687 29.5118C93.1145 29.7983 92.6737 29.9786 92.1462 30.0527ZM92.0099 29.0319C92.2959 28.9917 92.524 28.8796 92.6942 28.6955C92.864 28.509 92.977 28.2756 93.0333 27.9952C93.0918 27.7144 93.098 27.4099 93.0519 27.0817C93.0055 26.7511 92.9154 26.459 92.7817 26.2052C92.65 25.9488 92.4769 25.7544 92.2622 25.622C92.0476 25.4896 91.7973 25.4435 91.5113 25.4837C91.2182 25.5249 90.9856 25.6388 90.8134 25.8256C90.6436 26.012 90.5295 26.2468 90.4713 26.5299C90.4151 26.8104 90.4102 27.1159 90.4567 27.4464C90.5028 27.7746 90.5915 28.0658 90.7229 28.3199C90.8566 28.5736 91.0307 28.7667 91.2454 28.8991C91.462 29.0288 91.7169 29.0731 92.0099 29.0319ZM95.8001 29.4316L95.0409 24.0301L97.3091 23.7114C97.9491 23.6214 98.4723 23.6782 98.8786 23.8817C99.2873 24.0848 99.5238 24.415 99.588 24.8721C99.6305 25.1745 99.5598 25.4367 99.3758 25.6586C99.1938 25.8778 98.927 26.0456 98.5751 26.162C98.8621 26.1456 99.1207 26.1822 99.3508 26.2717C99.5833 26.361 99.7742 26.4943 99.9234 26.6718C100.073 26.8492 100.165 27.0646 100.201 27.3178C100.243 27.6155 100.2 27.8856 100.074 28.128C99.9502 28.3678 99.7479 28.5696 99.4673 28.7333C99.1887 28.8944 98.8384 29.0046 98.4164 29.0639L95.8001 29.4316ZM96.8513 28.2618L98.2755 28.0617C98.51 28.0287 98.6863 27.9478 98.8044 27.8188C98.9222 27.6875 98.9676 27.5257 98.9406 27.3335C98.9093 27.1108 98.8179 26.9455 98.6665 26.8377C98.5148 26.7275 98.3217 26.6889 98.0872 26.7219L96.663 26.922L96.8513 28.2618ZM96.5474 26.0991L97.6481 25.9444C97.8215 25.9201 97.967 25.8745 98.0843 25.8078C98.2013 25.7388 98.2862 25.6539 98.339 25.5533C98.3914 25.4503 98.4086 25.3343 98.3905 25.2054C98.3645 25.0202 98.2678 24.8855 98.1006 24.8014C97.9358 24.717 97.7197 24.6936 97.4524 24.7312L96.3764 24.8824L96.5474 26.0991Z" fill="#FAFDFF"/>
</g>
<defs>
<filter id="filter0_d_1_6344" x="0.0634766" y="-0.596191" width="124.386" height="61.4054" filterUnits="userSpaceOnUse" color-interpolation-filters="sRGB">
<feFlood flood-opacity="0" result="BackgroundImageFix"/>
<feColorMatrix in="SourceAlpha" type="matrix" values="0 0 0 0 0 0 0 0 0 0 0 0 0 0 0 0 0 0 127 0" result="hardAlpha"/>
<feOffset/>
<feGaussianBlur stdDeviation="6"/>
<feComposite in2="hardAlpha" operator="out"/>
<feColorMatrix type="matrix" values="0 0 0 0 0 0 0 0 0 0 0 0 0 0 0 0 0 0 0.12 0"/>
<feBlend mode="normal" in2="BackgroundImageFix" result="effect1_dropShadow_1_6344"/>
<feBlend mode="normal" in="SourceGraphic" in2="effect1_dropShadow_1_6344" result="shape"/>
</filter>
</defs>
</svg>
