<svg width="80" height="80" viewBox="0 0 80 80" fill="none" xmlns="http://www.w3.org/2000/svg">
<rect x="-0.00256348" y="17.6382" width="64" height="64" rx="10.6667" transform="rotate(-16 -0.00256348 17.6382)" fill="#262728"/>
<rect x="0.822036" y="18.0953" width="62.6667" height="62.6667" rx="10" transform="rotate(-16 0.822036 18.0953)" stroke="#C2CCF6" stroke-opacity="0.12" stroke-width="1.33333"/>
<path d="M24.5178 35.4771L23.9629 33.5418C23.588 32.2345 24.3468 30.8656 25.6541 30.4907L42.2134 25.7424C43.5207 25.3676 44.8896 26.1263 45.2644 27.4336L45.8194 29.369" stroke="#A1D8EE" stroke-width="1.5" stroke-linecap="round" stroke-linejoin="round"/>
<path d="M39.6412 48.0211L34.2094 29.0779" stroke="#A1D8EE" stroke-width="1.5" stroke-linecap="round" stroke-linejoin="round"/>
<path d="M35.2834 49.2708L42.4352 47.22" stroke="#A1D8EE" stroke-width="1.5" stroke-linecap="round" stroke-linejoin="round"/>
<path d="M41.1213 36.833L50.1059 34.2567C51.0416 33.9884 52.0146 34.5278 52.2829 35.4634L52.5769 36.4888" stroke="#A1D8EE" stroke-width="1.5" stroke-linecap="round" stroke-linejoin="round"/>
<path d="M48.2732 50.1649L44.3922 36.6304" stroke="#A1D8EE" stroke-width="1.5" stroke-linecap="round" stroke-linejoin="round"/>
<path d="M45.5304 50.9514L51.016 49.3784" stroke="#A1D8EE" stroke-width="1.5" stroke-linecap="round" stroke-linejoin="round"/>
</svg>
