<svg width="162" height="60" viewBox="0 0 162 60" fill="none" xmlns="http://www.w3.org/2000/svg">
<g filter="url(#filter0_d_5_1260)">
<rect x="14.0918" y="12" width="136" height="24" rx="6" transform="rotate(5 14.0918 12)" fill="#404142" shape-rendering="crispEdges"/>
<path d="M24.0125 29.0288L24.1091 27.9251L24.523 27.9613C24.7093 27.9776 24.865 27.9639 24.99 27.9201C25.115 27.8764 25.2185 27.807 25.3005 27.712C25.3849 27.6172 25.4577 27.5048 25.519 27.3747L25.6358 27.1389L23.5124 21.5847L24.885 21.7048L26.35 25.7399L28.2493 21.9991L29.6006 22.1174L26.5862 27.8067C26.4484 28.0513 26.2944 28.2767 26.1243 28.4828C25.9543 28.6865 25.742 28.845 25.4874 28.9582C25.2352 29.0692 24.9158 29.1078 24.529 29.074L24.0125 29.0288ZM29.2258 30.9749L29.4561 28.343L29.8877 28.3807C30.0111 28.3012 30.1184 28.1882 30.2097 28.0417C30.3011 27.8929 30.3808 27.7157 30.4487 27.5101C30.5191 27.3024 30.5823 27.0691 30.6382 26.8102C30.6944 26.5489 30.7487 26.2673 30.8013 25.9653L31.1234 24.0757L35.0502 24.4193L34.667 28.7988L35.509 28.8725L35.2787 31.5045L34.0406 31.3962L34.1786 29.8184L30.6233 29.5073L30.4852 31.0851L29.2258 30.9749ZM31.2037 28.4958L33.443 28.6918L33.7358 25.3452L32.1439 25.2059L31.9828 26.0687C31.8853 26.64 31.7797 27.1275 31.666 27.531C31.5522 27.9346 31.3982 28.2562 31.2037 28.4958ZM38.7337 30.3239C38.2031 30.2774 37.7534 30.1205 37.3847 29.8529C37.016 29.5854 36.7427 29.2323 36.5648 28.7938C36.3893 28.3554 36.326 27.8556 36.3752 27.2943C36.4243 26.733 36.5734 26.2505 36.8226 25.8469C37.0742 25.4436 37.4047 25.1421 37.8143 24.9427C38.2238 24.7433 38.6939 24.6668 39.2246 24.7132C39.7552 24.7596 40.2049 24.9166 40.5736 25.1841C40.9423 25.4516 41.2144 25.8058 41.3897 26.2465C41.5674 26.6874 41.6316 27.1886 41.5825 27.7499C41.5334 28.3112 41.3832 28.7923 41.1319 29.1933C40.8829 29.5946 40.5536 29.8949 40.144 30.0943C39.7345 30.2938 39.2644 30.3703 38.7337 30.3239ZM38.8306 29.2986C39.1183 29.3237 39.3658 29.2658 39.573 29.1247C39.7804 28.9812 39.943 28.7792 40.0609 28.5186C40.1811 28.2582 40.2557 27.9629 40.2845 27.6327C40.3136 27.3002 40.2916 26.9953 40.2184 26.7179C40.1478 26.4385 40.0228 26.2101 39.8435 26.0328C39.6641 25.8555 39.4306 25.7543 39.1428 25.7291C38.848 25.7033 38.5957 25.762 38.386 25.9053C38.1785 26.0487 38.0146 26.2518 37.8942 26.5146C37.7763 26.7752 37.7029 27.0718 37.6738 27.4043C37.6449 27.7345 37.6659 28.0381 37.7367 28.3153C37.8098 28.5926 37.9361 28.8199 38.1155 28.9972C38.2974 29.1723 38.5358 29.2728 38.8306 29.2986ZM47.4396 23.4785L47.813 24.3453C47.643 24.4682 47.4574 24.5518 47.2563 24.596C47.0552 24.6402 46.8217 24.6602 46.556 24.6559C46.2927 24.6495 45.9804 24.6341 45.6189 24.6096C45.2125 24.5835 44.8744 24.6312 44.6047 24.7526C44.3351 24.8739 44.1191 25.0749 43.9567 25.3553C43.7945 25.6335 43.6725 25.9959 43.5907 26.4426L43.6508 26.4479C43.8497 26.1302 44.1101 25.8975 44.4319 25.7498C44.7538 25.6021 45.1211 25.5463 45.5338 25.5824C45.9843 25.6218 46.3728 25.758 46.6994 25.991C47.0285 26.2218 47.2731 26.5367 47.433 26.9356C47.5954 27.3348 47.6528 27.8056 47.6053 28.3481C47.5564 28.907 47.4091 29.3825 47.1633 29.7745C46.9177 30.1641 46.5918 30.4529 46.1856 30.6407C45.7818 30.8288 45.3158 30.8997 44.7875 30.8535C44.2616 30.8075 43.814 30.6531 43.4449 30.3903C43.0783 30.1253 42.8086 29.7583 42.6358 29.2893C42.4655 28.8181 42.4094 28.2511 42.4673 27.5884L42.5101 27.1002C42.6219 25.822 42.9435 24.8888 43.475 24.3008C44.0065 23.7128 44.7409 23.4539 45.6783 23.524C45.957 23.5436 46.2059 23.5642 46.425 23.5857C46.6465 23.6075 46.8408 23.6138 47.008 23.6047C47.1751 23.5955 47.319 23.5535 47.4396 23.4785ZM44.8843 29.8282C45.1461 29.8511 45.3784 29.8037 45.5812 29.686C45.7842 29.5659 45.9473 29.3853 46.0706 29.1442C46.1962 28.9033 46.274 28.6118 46.3039 28.2699C46.3334 27.9326 46.3066 27.6415 46.2235 27.3966C46.1406 27.1493 46.0091 26.9548 45.829 26.8131C45.6489 26.6714 45.4267 26.589 45.1626 26.5659C44.9645 26.5486 44.7833 26.5684 44.6191 26.6253C44.4549 26.6822 44.3114 26.7742 44.1886 26.9013C44.0658 27.0284 43.9663 27.1872 43.8903 27.3778C43.8142 27.5684 43.7626 27.7909 43.7356 28.0452C43.6909 28.5569 43.7708 28.9739 43.9755 29.296C44.1805 29.6157 44.4834 29.7931 44.8843 29.8282ZM52.4816 28.1473L52.3897 29.198L49.4959 28.9448L49.5878 27.8941L52.4816 28.1473ZM50.1753 25.7425L49.6999 31.1763L48.4653 31.0683L48.9407 25.6345L50.1753 25.7425ZM53.5113 26.0344L53.0359 31.4682L51.8048 31.3605L52.2802 25.9267L53.5113 26.0344ZM55.5189 27.9924L57.1214 28.1326C57.8148 28.1933 58.3366 28.4088 58.6868 28.7793C59.037 29.1498 59.1894 29.6087 59.1438 30.1561C59.1103 30.512 58.9954 30.8204 58.7991 31.0812C58.6052 31.3423 58.3385 31.5376 57.9993 31.6672C57.6625 31.7946 57.2631 31.838 56.8008 31.7976L54.3315 31.5815L54.8069 26.1478L56.0416 26.2558L55.6581 30.6389L56.8927 30.7469C57.171 30.7713 57.406 30.7205 57.5976 30.5947C57.7894 30.4665 57.8951 30.2904 57.9147 30.0663C57.9354 29.8305 57.8626 29.6305 57.6963 29.4662C57.5301 29.3019 57.3078 29.2076 57.0295 29.1833L55.427 29.0431L55.5189 27.9924ZM59.6592 32.0477L60.1346 26.6139L61.4152 26.7259L60.9398 32.1597L59.6592 32.0477ZM64.6565 32.5918C64.1117 32.5441 63.6511 32.3898 63.2747 32.1287C62.9009 31.8655 62.6261 31.5159 62.4504 31.0799C62.2748 30.6415 62.2119 30.1381 62.2617 29.5697C62.3106 29.0108 62.4596 28.5295 62.7088 28.1259C62.9606 27.7202 63.289 27.4162 63.694 27.214C64.0993 27.0095 64.5613 26.9299 65.0802 26.9753C65.4151 27.0046 65.7264 27.0865 66.014 27.2209C66.3043 27.3533 66.554 27.5415 66.7631 27.7855C66.9747 28.0298 67.1313 28.3311 67.233 28.6893C67.335 29.0452 67.3651 29.4613 67.3234 29.9377L67.2891 30.3304L62.8352 29.9407L62.9107 29.0776L66.137 29.3598C66.1561 29.1143 66.1222 28.8915 66.0351 28.6914C65.9483 28.489 65.8165 28.3242 65.6399 28.197C65.4656 28.0701 65.2559 27.9959 65.0106 27.9744C64.7488 27.9515 64.5133 27.9951 64.3041 28.1051C64.095 28.2128 63.9261 28.3643 63.7973 28.5598C63.6711 28.7532 63.5961 28.9712 63.5725 29.2139L63.5066 29.9674C63.479 30.2834 63.513 30.5597 63.6088 30.7962C63.7047 31.0304 63.8512 31.2167 64.0482 31.3551C64.2455 31.4912 64.4832 31.5714 64.7615 31.5957C64.9478 31.612 65.1187 31.6009 65.2742 31.5622C65.4299 31.5211 65.5677 31.4536 65.6876 31.3595C65.8075 31.2654 65.9025 31.1442 65.9725 30.9959L67.1565 31.2349C67.0534 31.5444 66.8853 31.8077 66.6525 32.025C66.4221 32.2401 66.1374 32.3982 65.7982 32.4992C65.4593 32.5979 65.0787 32.6287 64.6565 32.5918ZM72.0227 31.3826L74.5221 27.8726L75.8381 27.9877L75.3627 33.4215L74.1245 33.3132L74.4486 29.6093L71.956 33.1235L70.6364 33.008L71.1118 27.5743L72.3465 27.6823L72.0227 31.3826ZM80.6941 30.6156L80.6022 31.6663L77.7084 31.4131L77.8004 30.3624L80.6941 30.6156ZM78.3878 28.2108L77.9125 33.6446L76.6778 33.5366L77.1532 28.1028L78.3878 28.2108ZM81.7238 28.5027L81.2484 33.9365L80.0173 33.8288L80.4927 28.395L81.7238 28.5027ZM84.905 34.3633C84.3626 34.3159 83.9072 34.156 83.5389 33.8838C83.173 33.6117 82.9034 33.2566 82.7302 32.8185C82.5596 32.3782 82.4984 31.8832 82.5464 31.3337C82.5947 30.7819 82.7435 30.3041 82.9927 29.9005C83.2421 29.4946 83.5705 29.1906 83.9779 28.9886C84.3879 28.7845 84.8582 28.7056 85.3888 28.752C85.8298 28.7906 86.213 28.9061 86.5384 29.0986C86.8663 29.2889 87.1188 29.5403 87.2959 29.8528C87.4731 30.163 87.5587 30.5151 87.5528 30.9091L86.3288 30.802C86.3022 30.5359 86.2033 30.3074 86.0323 30.1166C85.8638 29.9236 85.6251 29.8136 85.3161 29.7866C85.0543 29.7637 84.8182 29.8143 84.6077 29.9385C84.3974 30.0603 84.2254 30.2472 84.0917 30.4993C83.9603 30.7516 83.8786 31.0605 83.8466 31.4261C83.8142 31.7964 83.8406 32.1195 83.9258 32.3955C84.0112 32.6691 84.1454 32.8864 84.3286 33.0474C84.5143 33.2063 84.7404 33.2973 85.0069 33.3207C85.1956 33.3372 85.3673 33.3165 85.5221 33.2588C85.6794 33.1989 85.8148 33.105 85.9282 32.9771C86.0415 32.8491 86.1257 32.689 86.1805 32.4965L87.4045 32.6036C87.3402 32.9853 87.1972 33.3162 86.9755 33.5963C86.7539 33.8739 86.4672 34.0817 86.1153 34.2197C85.7636 34.3553 85.3602 34.4031 84.905 34.3633ZM88.2826 30.1352L88.3746 29.0845L93.1291 29.5005L93.0372 30.5512L91.279 30.3974L90.8955 34.7805L89.6574 34.6722L90.0408 30.289L88.2826 30.1352ZM93.4952 37.0612L94.1488 29.5897L95.4082 29.6999L95.3296 30.5985L95.4039 30.605C95.4815 30.4787 95.5869 30.3465 95.7202 30.2084C95.8537 30.068 96.0277 29.9537 96.2421 29.8656C96.4568 29.775 96.7233 29.7437 97.0417 29.7715C97.4615 29.8083 97.8307 29.9487 98.1491 30.1928C98.4702 30.4348 98.7115 30.7731 98.8731 31.2079C99.0372 31.6405 99.0929 32.1587 99.0401 32.7625C98.9879 33.3592 98.8456 33.8577 98.6134 34.258C98.3811 34.6583 98.0867 34.9534 97.7303 35.1432C97.3739 35.333 96.9822 35.4092 96.5553 35.3719C96.244 35.3447 95.9903 35.2702 95.7942 35.1485C95.5981 35.0267 95.444 34.8873 95.3318 34.7301C95.2221 34.5708 95.1389 34.4222 95.082 34.2841L95.029 34.2795L94.7758 37.1732L93.4952 37.0612ZM95.167 32.4165C95.1363 32.7679 95.1589 33.08 95.2348 33.3528C95.3131 33.6258 95.4401 33.8449 95.6158 34.01C95.794 34.1729 96.0187 34.2662 96.29 34.29C96.573 34.3147 96.8166 34.26 97.0208 34.1258C97.2253 33.9892 97.3874 33.7931 97.5072 33.5374C97.6296 33.2795 97.7056 32.9808 97.7353 32.6412C97.7648 32.3039 97.7427 32.0002 97.6689 31.73C97.5951 31.4597 97.4692 31.2419 97.2912 31.0766C97.1131 30.9114 96.8814 30.8162 96.5961 30.7913C96.3225 30.7673 96.0839 30.8189 95.8803 30.9461C95.6766 31.0732 95.514 31.2622 95.3922 31.5129C95.2728 31.7639 95.1977 32.0651 95.167 32.4165ZM100.333 37.6594C100.158 37.6441 99.9977 37.6158 99.8516 37.5745C99.7076 37.5358 99.5936 37.4949 99.5094 37.4519L99.8938 36.4803C100.075 36.5508 100.239 36.5913 100.386 36.6018C100.532 36.6122 100.665 36.5775 100.784 36.4975C100.904 36.4202 101.013 36.2823 101.108 36.0839L101.244 35.7999L99.7586 30.0805L101.117 30.1994L102.01 34.4126L102.067 34.4175L103.682 30.4238L105.044 30.5429L102.335 36.4444C102.209 36.7232 102.053 36.9579 101.867 37.1484C101.682 37.3413 101.463 37.4814 101.21 37.5686C100.96 37.6584 100.667 37.6887 100.333 37.6594ZM108.712 34.8385L110.67 31.0352L111.703 31.1256L109.031 36.3671L108.136 36.2888L106.464 30.6672L107.487 30.7566L108.712 34.8385ZM107.165 30.7285L106.689 36.1623L105.455 36.0542L105.93 30.6205L107.165 30.7285ZM110.528 36.4981L111.003 31.0643L112.227 31.1714L111.752 36.6052L110.528 36.4981ZM115.439 37.0347C114.894 36.987 114.434 36.8327 114.057 36.5716C113.683 36.3084 113.409 35.9588 113.233 35.5228C113.057 35.0844 112.995 34.581 113.044 34.0126C113.093 33.4537 113.242 32.9724 113.491 32.5688C113.743 32.1631 114.072 31.8591 114.477 31.6569C114.882 31.4524 115.344 31.3728 115.863 31.4182C116.198 31.4475 116.509 31.5294 116.797 31.6638C117.087 31.7962 117.337 31.9844 117.546 32.2284C117.757 32.4727 117.914 32.774 118.016 33.1322C118.118 33.4881 118.148 33.9042 118.106 34.3806L118.072 34.7733L113.618 34.3836L113.693 33.5205L116.92 33.8027C116.939 33.5572 116.905 33.3344 116.818 33.1343C116.731 32.9319 116.599 32.7671 116.422 32.6399C116.248 32.513 116.038 32.4388 115.793 32.4173C115.531 32.3944 115.296 32.438 115.087 32.548C114.878 32.6557 114.709 32.8072 114.58 33.0027C114.454 33.1961 114.379 33.4141 114.355 33.6568L114.289 34.4103C114.262 34.7263 114.296 35.0026 114.391 35.2391C114.487 35.4733 114.634 35.6596 114.831 35.798C115.028 35.9341 115.266 36.0143 115.544 36.0386C115.73 36.0549 115.901 36.0438 116.057 36.0051C116.212 35.964 116.35 35.8965 116.47 35.8024C116.59 35.7083 116.685 35.5871 116.755 35.4388L117.939 35.6778C117.836 35.9873 117.668 36.2506 117.435 36.4679C117.205 36.683 116.92 36.8411 116.581 36.9421C116.242 37.0408 115.861 37.0716 115.439 37.0347ZM122.964 34.3137L122.872 35.3644L119.979 35.1112L120.071 34.0606L122.964 34.3137ZM120.658 31.909L120.183 37.3428L118.948 37.2348L119.423 31.801L120.658 31.909ZM123.994 32.2008L123.519 37.6346L122.288 37.5269L122.763 32.0931L123.994 32.2008ZM124.589 33.3116L124.681 32.261L129.436 32.6769L129.344 33.7276L127.586 33.5738L127.202 37.9569L125.964 37.8486L126.347 33.4655L124.589 33.3116ZM131.167 34.6108L132.77 34.751C133.463 34.8117 133.985 35.0272 134.335 35.3977C134.686 35.7682 134.838 36.2271 134.792 36.7744C134.759 37.1304 134.644 37.4388 134.448 37.6996C134.254 37.9607 133.987 38.156 133.648 38.2856C133.311 38.4129 132.912 38.4564 132.449 38.416L129.98 38.1999L130.455 32.7661L131.69 32.8742L131.307 37.2573L132.541 37.3653C132.82 37.3896 133.055 37.3389 133.246 37.2131C133.438 37.0849 133.544 36.9088 133.563 36.6847C133.584 36.4489 133.511 36.2488 133.345 36.0846C133.179 35.9203 132.956 35.826 132.678 35.8017L131.076 35.6615L131.167 34.6108ZM135.308 38.666L135.783 33.2323L137.064 33.3443L136.588 38.7781L135.308 38.666Z" fill="#FAFDFF"/>
</g>
<defs>
<filter id="filter0_d_5_1260" x="0" y="0" width="161.574" height="59.762" filterUnits="userSpaceOnUse" color-interpolation-filters="sRGB">
<feFlood flood-opacity="0" result="BackgroundImageFix"/>
<feColorMatrix in="SourceAlpha" type="matrix" values="0 0 0 0 0 0 0 0 0 0 0 0 0 0 0 0 0 0 127 0" result="hardAlpha"/>
<feOffset/>
<feGaussianBlur stdDeviation="6"/>
<feComposite in2="hardAlpha" operator="out"/>
<feColorMatrix type="matrix" values="0 0 0 0 0 0 0 0 0 0 0 0 0 0 0 0 0 0 0.12 0"/>
<feBlend mode="normal" in2="BackgroundImageFix" result="effect1_dropShadow_5_1260"/>
<feBlend mode="normal" in="SourceGraphic" in2="effect1_dropShadow_5_1260" result="shape"/>
</filter>
</defs>
</svg>
