<svg width="352" height="234" viewBox="0 0 352 234" fill="none" xmlns="http://www.w3.org/2000/svg">
<rect x="71.9053" y="101" width="216" height="46" rx="23" transform="rotate(15 71.9053 101)" fill="#1B1C1F"/>
<path d="M142.997 151.107L146.385 138.463L148.675 139.076L147.119 144.886L147.273 144.928L153.763 140.44L156.56 141.189L150.15 145.553L153.215 153.845L150.461 153.108L148.141 146.676L146.296 147.955L145.287 151.721L142.997 151.107ZM154.763 154.26L158.151 141.615L166.375 143.819L165.861 145.739L159.927 144.149L159.008 147.582L164.515 149.058L164.001 150.978L158.493 149.502L157.568 152.954L163.551 154.557L163.037 156.477L154.763 154.26ZM167.848 144.214L170.435 144.907L172.029 151.33L172.153 151.363L176.745 146.598L179.332 147.291L172.608 153.986L171.344 158.703L169.06 158.091L170.324 153.374L167.848 144.214ZM191.346 150.51L187.957 163.155L185.92 162.609L182.27 152.399L182.165 152.371L179.857 160.984L177.566 160.37L180.954 147.725L183.004 148.275L186.647 158.489L186.758 158.519L189.067 149.899L191.346 150.51ZM203.446 160.529C203.081 161.891 202.513 162.99 201.743 163.824C200.977 164.656 200.087 165.211 199.073 165.491C198.062 165.772 197.003 165.764 195.896 165.467C194.789 165.17 193.866 164.647 193.127 163.898C192.393 163.145 191.901 162.217 191.649 161.113C191.403 160.006 191.462 158.773 191.826 157.415C192.191 156.053 192.757 154.956 193.522 154.124C194.293 153.289 195.183 152.732 196.194 152.451C197.209 152.171 198.269 152.18 199.377 152.476C200.484 152.773 201.405 153.296 202.14 154.044C202.879 154.793 203.371 155.722 203.617 156.829C203.868 157.933 203.811 159.166 203.446 160.529ZM201.143 159.911C201.4 158.952 201.467 158.103 201.343 157.364C201.224 156.622 200.946 156.012 200.51 155.533C200.075 155.05 199.513 154.717 198.826 154.532C198.138 154.348 197.486 154.356 196.867 154.557C196.25 154.753 195.702 155.143 195.224 155.725C194.751 156.304 194.386 157.073 194.129 158.032C193.872 158.991 193.803 159.842 193.922 160.584C194.046 161.323 194.326 161.934 194.761 162.417C195.198 162.895 195.759 163.227 196.447 163.411C197.134 163.595 197.787 163.589 198.404 163.393C199.022 163.192 199.568 162.803 200.041 162.223C200.519 161.641 200.886 160.871 201.143 159.911ZM205.675 156.408L206.19 154.487L216.279 157.191L215.764 159.111L211.856 158.064L208.982 168.788L206.71 168.179L209.584 157.455L205.675 156.408ZM214.835 170.357L218.224 157.712L226.448 159.915L225.933 161.836L220 160.246L219.08 163.679L224.587 165.154L224.073 167.075L218.565 165.599L217.641 169.05L223.623 170.653L223.109 172.573L214.835 170.357Z" fill="#FAFDFF"/>
<g clip-path="url(#clip0_2001_4640)">
<path fill-rule="evenodd" clip-rule="evenodd" d="M246.251 176.709C245.973 176.635 245.723 176.454 245.568 176.185L242.824 171.432C242.513 170.894 242.697 170.206 243.236 169.896C243.773 169.585 244.462 169.77 244.772 170.307L246.158 172.708L248.498 163.976C248.659 163.377 249.276 163.02 249.876 163.181C250.476 163.342 250.832 163.959 250.671 164.559L248.332 173.291L250.732 171.904C251.27 171.594 251.959 171.778 252.269 172.316C252.58 172.854 252.395 173.542 251.857 173.853L247.104 176.597C246.836 176.752 246.529 176.784 246.251 176.709ZM253.047 177.425C253.208 176.825 253.825 176.468 254.425 176.629C255.025 176.79 255.382 177.407 255.221 178.007L254.784 179.637C254.302 181.435 252.448 182.505 250.651 182.023L239.784 179.112C237.986 178.63 236.916 176.776 237.397 174.978L237.834 173.348C237.995 172.748 238.612 172.392 239.212 172.553C239.812 172.713 240.168 173.331 240.007 173.931L239.571 175.561C239.41 176.16 239.767 176.778 240.366 176.938L251.233 179.85C251.832 180.011 252.45 179.654 252.611 179.055L253.047 177.425Z" fill="#FAFDFF"/>
</g>
<g filter="url(#filter0_d_2001_4640)">
<circle cx="78" cy="138" r="4" fill="#A1D8EE"/>
</g>
<rect x="65.2725" y="94.1689" width="216" height="46" rx="23" fill="#2E2D2F"/>
<path d="M196.977 124.169V111.078H201.886C202.892 111.078 203.735 111.266 204.417 111.641C205.103 112.016 205.621 112.531 205.97 113.187C206.324 113.839 206.501 114.581 206.501 115.412C206.501 116.251 206.324 116.997 205.97 117.649C205.617 118.301 205.095 118.815 204.404 119.19C203.714 119.56 202.864 119.746 201.854 119.746H198.6V117.796H201.534C202.122 117.796 202.604 117.694 202.979 117.489C203.354 117.285 203.631 117.003 203.81 116.646C203.993 116.288 204.085 115.876 204.085 115.412C204.085 114.947 203.993 114.538 203.81 114.185C203.631 113.831 203.352 113.556 202.972 113.36C202.597 113.16 202.114 113.06 201.521 113.06H199.348V124.169H196.977ZM212.997 124.169H208.561V111.078H213.086C214.386 111.078 215.502 111.34 216.436 111.864C217.373 112.384 218.093 113.132 218.596 114.108C219.099 115.084 219.35 116.251 219.35 117.611C219.35 118.974 219.097 120.146 218.59 121.126C218.087 122.106 217.36 122.859 216.41 123.383C215.464 123.907 214.326 124.169 212.997 124.169ZM210.932 122.117H212.882C213.794 122.117 214.554 121.951 215.164 121.619C215.773 121.282 216.231 120.781 216.538 120.116C216.845 119.447 216.998 118.612 216.998 117.611C216.998 116.609 216.845 115.778 216.538 115.118C216.231 114.453 215.777 113.957 215.176 113.628C214.58 113.296 213.838 113.13 212.952 113.13H210.932V122.117ZM221.604 124.169V111.078H229.99V113.066H223.975V116.62H229.415V118.608H223.975V124.169H221.604Z" fill="#FAFDFF"/>
<path fill-rule="evenodd" clip-rule="evenodd" d="M253.272 122.175C252.984 122.175 252.696 122.065 252.477 121.845L248.596 117.964C248.157 117.525 248.157 116.813 248.596 116.374C249.035 115.934 249.748 115.934 250.187 116.374L252.147 118.334V109.294C252.147 108.673 252.651 108.169 253.272 108.169C253.893 108.169 254.397 108.673 254.397 109.294V118.334L256.358 116.374C256.796 115.934 257.51 115.934 257.948 116.374C258.388 116.813 258.388 117.525 257.948 117.964L254.068 121.845C253.848 122.065 253.56 122.175 253.272 122.175ZM260.022 121.106C260.022 120.485 260.526 119.981 261.147 119.981C261.768 119.981 262.272 120.485 262.272 121.106V122.794C262.272 124.655 260.759 126.169 258.897 126.169H247.647C245.786 126.169 244.272 124.655 244.272 122.794V121.106C244.272 120.485 244.776 119.981 245.397 119.981C246.018 119.981 246.522 120.485 246.522 121.106V122.794C246.522 123.414 247.027 123.919 247.647 123.919H258.897C259.518 123.919 260.022 123.414 260.022 122.794V121.106Z" fill="#FAFDFF"/>
<g filter="url(#filter1_d_2001_4640)">
<circle cx="78" cy="126" r="4" fill="#5E7680"/>
</g>
<rect x="58" y="88.9053" width="216" height="46" rx="23" transform="rotate(-15 58 88.9053)" fill="#A1D8EE"/>
<path d="M180.725 85.0089L177.337 72.3641L182.079 71.0935C183.05 70.8332 183.914 70.7959 184.669 70.9817C185.429 71.1664 186.063 71.5304 186.57 72.0739C187.08 72.6121 187.443 73.2825 187.658 74.0852C187.876 74.8961 187.898 75.6622 187.725 76.3835C187.552 77.1048 187.181 77.7359 186.611 78.2768C186.04 78.8136 185.267 79.2127 184.291 79.4741L181.149 80.3161L180.644 78.433L183.478 77.6736C184.046 77.5214 184.485 77.298 184.794 77.0034C185.103 76.7087 185.298 76.3654 185.378 75.9733C185.463 75.5801 185.445 75.1592 185.324 74.7105C185.204 74.2619 185.01 73.8904 184.741 73.5962C184.477 73.3009 184.136 73.1076 183.719 73.0165C183.305 72.9201 182.812 72.9485 182.24 73.1018L180.141 73.6643L183.016 84.3951L180.725 85.0089ZM191.914 82.0108L188.526 69.3659L193.268 68.0954C194.24 67.8351 195.103 67.7978 195.859 67.9835C196.618 68.1682 197.252 68.5323 197.759 69.0757C198.27 69.6139 198.632 70.2844 198.848 71.087C199.065 71.8979 199.087 72.664 198.914 73.3853C198.741 74.1066 198.37 74.7377 197.8 75.2786C197.229 75.8154 196.456 76.2145 195.481 76.4759L192.338 77.318L191.833 75.4348L194.667 74.6755C195.235 74.5233 195.674 74.2998 195.983 74.0052C196.293 73.7106 196.487 73.3672 196.568 72.9751C196.652 72.582 196.634 72.161 196.514 71.7124C196.393 71.2637 196.199 70.8923 195.931 70.5981C195.666 70.3027 195.325 70.1095 194.908 70.0183C194.494 69.9219 194.001 69.9504 193.429 70.1037L191.33 70.6662L194.205 81.397L191.914 82.0108ZM199.674 68.4368L199.16 66.5167L209.249 63.8134L209.763 65.7336L205.855 66.7808L208.728 77.5055L206.456 78.1143L203.583 67.3896L199.674 68.4368ZM213.107 62.7794L217.133 66.664L217.232 66.6375L218.788 61.2574L221.399 60.5576L219.198 67.9239L224.849 73.1859L222.194 73.8973L218.147 70.0518L218.048 70.0783L216.465 75.4325L213.822 76.1406L216.123 68.7478L210.483 63.4825L213.107 62.7794Z" fill="#1B1C1F"/>
<path fill-rule="evenodd" clip-rule="evenodd" d="M246.583 66.3324C246.305 66.407 245.998 66.3756 245.729 66.2199L240.976 63.4758C240.438 63.1652 240.254 62.4773 240.565 61.9393C240.875 61.4014 241.564 61.2168 242.101 61.5276L244.502 62.9137L242.162 54.1818C242.002 53.582 242.358 52.9647 242.958 52.804C243.558 52.6433 244.175 52.9996 244.336 53.5995L246.675 62.3314L248.061 59.9305C248.372 59.3926 249.061 59.208 249.598 59.5188C250.136 59.8294 250.32 60.5173 250.01 61.0553L247.266 65.8082C247.111 66.0774 246.861 66.2579 246.583 66.3324ZM252.826 63.5536C252.666 62.9537 253.022 62.3365 253.622 62.1757C254.222 62.015 254.839 62.3714 255 62.9712L255.437 64.6012C255.918 66.3991 254.848 68.253 253.05 68.7347L242.183 71.6465C240.386 72.1282 238.532 71.0579 238.05 69.26L237.613 67.63C237.452 67.0301 237.809 66.4129 238.409 66.2521C239.008 66.0914 239.626 66.4478 239.786 67.0476L240.223 68.6776C240.384 69.2769 241.002 69.6337 241.601 69.4731L252.468 66.5614C253.067 66.4008 253.424 65.7829 253.263 65.1836L252.826 63.5536Z" fill="#1B1C1F"/>
<g filter="url(#filter2_d_2001_4640)">
<circle cx="58" cy="38" r="4" fill="#A1D8EE"/>
</g>
<g filter="url(#filter3_d_2001_4640)">
<circle cx="326" cy="117" r="4" fill="#A1D8EE"/>
</g>
<defs>
<filter id="filter0_d_2001_4640" x="52" y="112" width="52" height="52" filterUnits="userSpaceOnUse" color-interpolation-filters="sRGB">
<feFlood flood-opacity="0" result="BackgroundImageFix"/>
<feColorMatrix in="SourceAlpha" type="matrix" values="0 0 0 0 0 0 0 0 0 0 0 0 0 0 0 0 0 0 127 0" result="hardAlpha"/>
<feMorphology radius="2" operator="dilate" in="SourceAlpha" result="effect1_dropShadow_2001_4640"/>
<feOffset/>
<feGaussianBlur stdDeviation="10"/>
<feComposite in2="hardAlpha" operator="out"/>
<feColorMatrix type="matrix" values="0 0 0 0 0.247059 0 0 0 0 0.741176 0 0 0 0 0.945098 0 0 0 1 0"/>
<feBlend mode="normal" in2="BackgroundImageFix" result="effect1_dropShadow_2001_4640"/>
<feBlend mode="normal" in="SourceGraphic" in2="effect1_dropShadow_2001_4640" result="shape"/>
</filter>
<filter id="filter1_d_2001_4640" x="52" y="100" width="52" height="52" filterUnits="userSpaceOnUse" color-interpolation-filters="sRGB">
<feFlood flood-opacity="0" result="BackgroundImageFix"/>
<feColorMatrix in="SourceAlpha" type="matrix" values="0 0 0 0 0 0 0 0 0 0 0 0 0 0 0 0 0 0 127 0" result="hardAlpha"/>
<feMorphology radius="2" operator="dilate" in="SourceAlpha" result="effect1_dropShadow_2001_4640"/>
<feOffset/>
<feGaussianBlur stdDeviation="10"/>
<feComposite in2="hardAlpha" operator="out"/>
<feColorMatrix type="matrix" values="0 0 0 0 0.368627 0 0 0 0 0.462745 0 0 0 0 0.501961 0 0 0 1 0"/>
<feBlend mode="normal" in2="BackgroundImageFix" result="effect1_dropShadow_2001_4640"/>
<feBlend mode="normal" in="SourceGraphic" in2="effect1_dropShadow_2001_4640" result="shape"/>
</filter>
<filter id="filter2_d_2001_4640" x="32" y="12" width="52" height="52" filterUnits="userSpaceOnUse" color-interpolation-filters="sRGB">
<feFlood flood-opacity="0" result="BackgroundImageFix"/>
<feColorMatrix in="SourceAlpha" type="matrix" values="0 0 0 0 0 0 0 0 0 0 0 0 0 0 0 0 0 0 127 0" result="hardAlpha"/>
<feMorphology radius="2" operator="dilate" in="SourceAlpha" result="effect1_dropShadow_2001_4640"/>
<feOffset/>
<feGaussianBlur stdDeviation="10"/>
<feComposite in2="hardAlpha" operator="out"/>
<feColorMatrix type="matrix" values="0 0 0 0 0.247059 0 0 0 0 0.741176 0 0 0 0 0.945098 0 0 0 1 0"/>
<feBlend mode="normal" in2="BackgroundImageFix" result="effect1_dropShadow_2001_4640"/>
<feBlend mode="normal" in="SourceGraphic" in2="effect1_dropShadow_2001_4640" result="shape"/>
</filter>
<filter id="filter3_d_2001_4640" x="300" y="91" width="52" height="52" filterUnits="userSpaceOnUse" color-interpolation-filters="sRGB">
<feFlood flood-opacity="0" result="BackgroundImageFix"/>
<feColorMatrix in="SourceAlpha" type="matrix" values="0 0 0 0 0 0 0 0 0 0 0 0 0 0 0 0 0 0 127 0" result="hardAlpha"/>
<feMorphology radius="2" operator="dilate" in="SourceAlpha" result="effect1_dropShadow_2001_4640"/>
<feOffset/>
<feGaussianBlur stdDeviation="10"/>
<feComposite in2="hardAlpha" operator="out"/>
<feColorMatrix type="matrix" values="0 0 0 0 0.247059 0 0 0 0 0.741176 0 0 0 0 0.945098 0 0 0 1 0"/>
<feBlend mode="normal" in2="BackgroundImageFix" result="effect1_dropShadow_2001_4640"/>
<feBlend mode="normal" in="SourceGraphic" in2="effect1_dropShadow_2001_4640" result="shape"/>
</filter>
<clipPath id="clip0_2001_4640">
<rect width="24" height="24" fill="white" transform="translate(239.062 157.177) rotate(15)"/>
</clipPath>
</defs>
</svg>
