<svg width="139" height="65" viewBox="0 0 139 65" fill="none" xmlns="http://www.w3.org/2000/svg">
<g filter="url(#filter0_d_1_6461)">
<rect x="12" y="29.5359" width="126" height="24" rx="6" transform="rotate(-8 12 29.5359)" fill="#262728" shape-rendering="crispEdges"/>
<path d="M24.8398 43.8885L23.8276 36.6866L28.4589 36.0357L28.6126 37.1294L25.2859 37.5969L25.5232 39.2848L26.9122 39.0896C27.4631 39.0122 27.9482 39.0361 28.3674 39.1612C28.7887 39.2837 29.1277 39.4931 29.3845 39.7893C29.6413 40.0855 29.8007 40.454 29.8626 40.8947C29.9249 41.3378 29.8742 41.743 29.7107 42.1102C29.5468 42.4751 29.2801 42.7804 28.9106 43.026C28.5434 43.2712 28.0844 43.4325 27.5334 43.51L24.8398 43.8885ZM25.9942 42.6361L27.3832 42.4409C27.6739 42.4001 27.9123 42.3104 28.0985 42.1719C28.2846 42.0333 28.4165 41.8666 28.4943 41.6716C28.5745 41.4762 28.5997 41.273 28.57 41.062C28.5272 40.7573 28.3736 40.5147 28.1092 40.3343C27.8468 40.1512 27.4975 40.0904 27.0615 40.1516L25.6724 40.3469L25.9942 42.6361ZM33.6337 42.7602C33.1062 42.8343 32.6328 42.7825 32.2133 42.6048C31.7939 42.4271 31.4482 42.1446 31.1762 41.7572C30.9065 41.3696 30.7325 40.8968 30.6541 40.3388C30.5757 39.7809 30.6125 39.2772 30.7645 38.8279C30.9188 38.3783 31.1731 38.0103 31.5273 37.7238C31.8815 37.4373 32.3224 37.2571 32.8499 37.1829C33.3774 37.1088 33.8508 37.1606 34.2703 37.3383C34.6897 37.516 35.0344 37.7999 35.3044 38.1899C35.5767 38.5796 35.7521 39.0534 35.8305 39.6113C35.9089 40.1693 35.8708 40.6719 35.7161 41.1192C35.5637 41.5662 35.3105 41.9329 34.9562 42.2193C34.602 42.5058 34.1612 42.6861 33.6337 42.7602ZM33.4974 41.7394C33.7834 41.6992 34.0115 41.5871 34.1817 41.403C34.3515 41.2165 34.4645 40.9831 34.5208 40.7027C34.5793 40.4219 34.5855 40.1174 34.5394 39.7892C34.493 39.4586 34.4029 39.1665 34.2692 38.9127C34.1375 38.6563 33.9644 38.4619 33.7497 38.3295C33.5351 38.1971 33.2848 38.151 32.9987 38.1912C32.7057 38.2324 32.4731 38.3463 32.3009 38.5331C32.1311 38.7196 32.017 38.9543 31.9588 39.2374C31.9026 39.5179 31.8977 39.8234 31.9442 40.1539C31.9903 40.4821 32.079 40.7733 32.2104 41.0274C32.3441 41.2811 32.5182 41.4742 32.7329 41.6066C32.9495 41.7363 33.2044 41.7806 33.4974 41.7394ZM36.9148 42.1915L36.7605 41.1446L36.9469 41.1184C37.0875 41.0986 37.2015 41.0503 37.2887 40.9735C37.3759 40.8967 37.4408 40.78 37.4833 40.6234C37.5256 40.4645 37.5464 40.2559 37.546 39.9978C37.5456 39.7397 37.5259 39.4209 37.4869 39.0414L37.2458 36.6368L41.1844 36.0833L41.9435 41.4848L40.7127 41.6577L40.1004 37.3007L38.5495 37.5187L38.7098 39.2712C38.752 39.7243 38.7564 40.1217 38.7232 40.4635C38.6919 40.8026 38.6198 41.0888 38.5068 41.3223C38.3961 41.5554 38.2415 41.7397 38.043 41.8752C37.8441 42.0083 37.5994 42.0953 37.3087 42.1362L36.9148 42.1915ZM43.5748 37.5404L45.1678 37.3165C45.8571 37.2196 46.414 37.3123 46.8386 37.5945C47.2631 37.8767 47.5148 38.2896 47.5936 38.8331C47.641 39.1875 47.5984 39.5138 47.4658 39.8121C47.3356 40.1102 47.1197 40.3604 46.8183 40.563C46.5188 40.7629 46.1394 40.8951 45.6799 40.9597L43.2253 41.3046L42.4662 35.9032L43.6935 35.7307L44.3058 40.0877L45.5331 39.9152C45.8097 39.8764 46.0272 39.7741 46.1856 39.6084C46.3437 39.4403 46.4071 39.2449 46.3758 39.0222C46.3429 38.7878 46.2269 38.6092 46.028 38.4866C45.8291 38.3639 45.5913 38.322 45.3146 38.3609L43.7216 38.5848L43.5748 37.5404ZM48.1815 35.0999L49.4088 34.9274L50.0206 39.281L51.7191 39.0423L51.1073 34.6887L52.3346 34.5162L52.9464 38.8698L54.6449 38.6311L54.0331 34.2775L55.2604 34.1051L56.0195 39.5065L48.9406 40.5014L48.1815 35.0999ZM58.8753 39.2163C58.533 39.2644 58.2162 39.2468 57.9248 39.1634C57.6353 39.0774 57.394 38.9249 57.2006 38.7058C57.0096 38.4864 56.8892 38.1997 56.8395 37.8457C56.7966 37.5409 56.8175 37.281 56.902 37.0659C56.9865 36.8508 57.1177 36.6698 57.2955 36.5229C57.4732 36.376 57.6798 36.2549 57.915 36.1597C58.1523 36.0618 58.4002 35.9804 58.6588 35.9153C58.9707 35.838 59.2233 35.7726 59.4166 35.7192C59.6096 35.6634 59.7467 35.6011 59.8278 35.5323C59.911 35.4608 59.9441 35.3641 59.9269 35.2422L59.924 35.2211C59.8867 34.9562 59.7794 34.7621 59.6019 34.6388C59.4244 34.5156 59.1879 34.4747 58.8925 34.5162C58.5807 34.56 58.3429 34.6628 58.1792 34.8244C58.0178 34.9858 57.9184 35.1635 57.8812 35.3576L56.6688 35.3559C56.7165 35.0145 56.8327 34.7184 57.0174 34.4677C57.2018 34.2147 57.4421 34.0112 57.7384 33.8572C58.0344 33.7008 58.3711 33.5961 58.7486 33.5431C59.0088 33.5065 59.2721 33.5006 59.5386 33.5253C59.805 33.55 60.0548 33.6177 60.2879 33.7284C60.5207 33.8367 60.7184 34.0014 60.8809 34.2224C61.0458 34.4431 61.1535 34.7328 61.2039 35.0915L61.7119 38.7065L60.4882 38.8785L60.3839 38.1365L60.3417 38.1424C60.2854 38.3033 60.1962 38.4593 60.074 38.6104C59.9538 38.7587 59.7938 38.8876 59.594 38.997C59.3962 39.1037 59.1566 39.1768 58.8753 39.2163ZM59.0744 38.2345C59.3299 38.1985 59.5444 38.117 59.7178 37.9898C59.8908 37.8603 60.0159 37.7041 60.093 37.5211C60.1724 37.3378 60.1981 37.1465 60.1701 36.9473L60.0807 36.3108C60.0454 36.3492 59.9817 36.3892 59.8896 36.4309C59.7997 36.4722 59.6977 36.5116 59.5835 36.5492C59.4692 36.5868 59.3558 36.6218 59.2432 36.6544C59.1307 36.6869 59.033 36.715 58.9502 36.7386C58.764 36.7911 58.5999 36.8572 58.4581 36.9369C58.3163 37.0166 58.2095 37.1152 58.1376 37.2329C58.0653 37.3483 58.0407 37.488 58.0638 37.6521C58.0967 37.8865 58.2072 38.0515 58.3951 38.147C58.5831 38.2425 58.8095 38.2717 59.0744 38.2345ZM66.185 38.0778L65.5712 33.7103L64.4178 33.8724C64.1247 33.9135 63.9092 34.0132 63.7712 34.1712C63.6333 34.3293 63.5796 34.5089 63.6103 34.7102C63.6363 34.9122 63.7336 35.0682 63.902 35.1784C64.0705 35.2886 64.2943 35.3241 64.5733 35.2849L66.1698 35.0605L66.3003 35.9889L64.7037 36.2133C64.2724 36.2739 63.89 36.2583 63.5568 36.1665C63.2235 36.0747 62.955 35.9164 62.7513 35.6916C62.5476 35.4668 62.4223 35.188 62.3756 34.8551C62.3268 34.5081 62.37 34.1948 62.5053 33.9152C62.6425 33.633 62.8607 33.3991 63.1597 33.2136C63.4608 33.0255 63.8317 32.9004 64.2725 32.8385L66.618 32.5088L67.3771 37.9103L66.185 38.0778ZM62.6966 38.5681L63.8157 35.585L65.0712 35.4086L63.9485 38.3922L62.6966 38.5681ZM74.4043 29.3777L74.9631 30.1383C74.8251 30.2963 74.6631 30.4195 74.4771 30.5078C74.2911 30.5961 74.0681 30.6681 73.8082 30.7237C73.5502 30.7767 73.2424 30.8319 72.8847 30.8894C72.4828 30.9554 72.1641 31.0779 71.9287 31.2568C71.6933 31.4358 71.528 31.6801 71.4329 31.9899C71.3374 32.2974 71.3001 32.678 71.3208 33.1317L71.3806 33.1233C71.5029 32.769 71.7043 32.4837 71.9847 32.2674C72.265 32.0511 72.6104 31.9141 73.0206 31.8564C73.4684 31.7935 73.8776 31.8388 74.2482 31.9923C74.6209 32.1432 74.93 32.395 75.1756 32.7477C75.4236 33.1002 75.5854 33.546 75.6612 34.0852C75.7393 34.6408 75.7027 35.1373 75.5514 35.5745C75.3997 36.0094 75.1471 36.3641 74.7936 36.6385C74.4425 36.9126 74.0043 37.0865 73.4792 37.1603C72.9564 37.2338 72.4856 37.184 72.0668 37.0109C71.65 36.8352 71.3047 36.5383 71.0308 36.1202C70.7588 35.6994 70.5766 35.1596 70.484 34.5008L70.4158 34.0155C70.2372 32.7449 70.3407 31.7633 70.7263 31.0708C71.1119 30.3783 71.7693 29.9608 72.6983 29.8183C72.9743 29.7747 73.2215 29.7388 73.4398 29.7105C73.6605 29.6818 73.8513 29.6443 74.0121 29.5978C74.1729 29.5512 74.3037 29.4779 74.4043 29.3777ZM73.3429 36.1395C73.6031 36.1029 73.8188 36.0045 73.9899 35.8442C74.1607 35.6815 74.279 35.4688 74.3449 35.2062C74.4131 34.9432 74.4233 34.6417 74.3756 34.3018C74.3285 33.9665 74.2368 33.6889 74.1007 33.469C73.9643 33.2467 73.7924 33.0868 73.5851 32.9892C73.3777 32.8916 73.1427 32.8613 72.8802 32.8982C72.6832 32.9259 72.5112 32.9859 72.364 33.0783C72.2168 33.1707 72.0977 33.2927 72.0066 33.4441C71.9155 33.5956 71.8543 33.7727 71.8231 33.9756C71.7918 34.1784 71.7916 34.4067 71.8225 34.6606C71.894 35.1693 72.0657 35.5576 72.3377 35.8253C72.6093 36.0908 72.9443 36.1955 73.3429 36.1395ZM78.0961 34.6467L79.7419 30.6644L81.05 30.4805L81.8092 35.882L80.5784 36.055L80.0609 32.3731L78.4227 36.3579L77.111 36.5423L76.3519 31.1408L77.5792 30.9683L78.0961 34.6467ZM86.4055 27.691L86.9643 28.4516C86.8263 28.6097 86.6643 28.7328 86.4783 28.8211C86.2923 28.9095 86.0693 28.9814 85.8094 29.0371C85.5514 29.0901 85.2436 29.1453 84.8859 29.2027C84.484 29.2688 84.1653 29.3913 83.9299 29.5702C83.6945 29.7491 83.5292 29.9935 83.4341 30.3033C83.3386 30.6108 83.3012 30.9913 83.322 31.445L83.3818 31.4366C83.5041 31.0824 83.7055 30.7971 83.9859 30.5808C84.2662 30.3644 84.6116 30.2274 85.0218 30.1698C85.4696 30.1069 85.8788 30.1521 86.2494 30.3057C86.6221 30.4565 86.9312 30.7083 87.1768 31.0611C87.4248 31.4135 87.5866 31.8593 87.6624 32.3986C87.7405 32.9542 87.7039 33.4506 87.5526 33.8879C87.4009 34.3228 87.1483 34.6774 86.7948 34.9518C86.4437 35.2259 86.0055 35.3998 85.4804 35.4736C84.9576 35.5471 84.4868 35.4973 84.068 35.3243C83.6512 35.1486 83.3059 34.8517 83.032 34.4335C82.76 34.0127 82.5778 33.4729 82.4852 32.8142L82.417 32.3289C82.2384 31.0582 82.3419 30.0767 82.7275 29.3841C83.1131 28.6916 83.7705 28.2741 84.6995 28.1316C84.9755 28.088 85.2227 28.0521 85.441 28.0238C85.6617 27.9952 85.8525 27.9576 86.0133 27.9111C86.1741 27.8646 86.3049 27.7912 86.4055 27.691ZM85.3441 34.4528C85.6043 34.4163 85.82 34.3178 85.9911 34.1575C86.1619 33.9948 86.2802 33.7822 86.3461 33.5195C86.4143 33.2565 86.4245 32.955 86.3768 32.6151C86.3297 32.2799 86.238 32.0023 86.1019 31.7823C85.9655 31.56 85.7936 31.4001 85.5863 31.3025C85.3789 31.205 85.1439 31.1746 84.8814 31.2115C84.6844 31.2392 84.5124 31.2993 84.3652 31.3917C84.218 31.4841 84.0989 31.606 84.0078 31.7575C83.9167 31.9089 83.8555 32.0861 83.8243 32.2889C83.793 32.4917 83.7928 32.7201 83.8237 32.9739C83.8952 33.4826 84.0669 33.8709 84.3389 34.1387C84.6105 34.4041 84.9455 34.5089 85.3441 34.4528ZM88.7395 34.908L88.5852 33.8611L88.7715 33.8349C88.9122 33.8151 89.0261 33.7668 89.1134 33.69C89.2006 33.6132 89.2655 33.4965 89.308 33.3399C89.3502 33.181 89.3711 32.9724 89.3707 32.7143C89.3703 32.4562 89.3506 32.1374 89.3116 31.758L89.0705 29.3533L93.009 28.7998L93.7682 34.2013L92.5374 34.3743L91.925 30.0172L90.3742 30.2352L90.5345 31.9877C90.5766 32.4408 90.5811 32.8383 90.5478 33.18C90.5166 33.5191 90.4445 33.8054 90.3314 34.0388C90.2208 34.2719 90.0662 34.4562 89.8676 34.5917C89.6688 34.7248 89.424 34.8118 89.1333 34.8527L88.7395 34.908ZM96.0351 32.1255L97.6808 28.1432L98.989 27.9594L99.7481 33.3609L98.5173 33.5338L97.9999 29.852L96.3616 33.8368L95.05 34.0211L94.2908 28.6197L95.5181 28.4472L96.0351 32.1255ZM103.426 32.9515C102.899 33.0256 102.425 32.9738 102.006 32.7961C101.586 32.6184 101.241 32.3358 100.969 31.9485C100.699 31.5609 100.525 31.0881 100.447 30.5301C100.368 29.9722 100.405 29.4685 100.557 29.0192C100.711 28.5696 100.966 28.2016 101.32 27.9151C101.674 27.6286 102.115 27.4483 102.642 27.3742C103.17 27.3001 103.643 27.3519 104.063 27.5296C104.482 27.7073 104.827 27.9912 105.097 28.3812C105.369 28.7708 105.545 29.2447 105.623 29.8026C105.702 30.3606 105.663 30.8632 105.509 31.3105C105.356 31.7574 105.103 32.1242 104.749 32.4106C104.395 32.6971 103.954 32.8774 103.426 32.9515ZM103.29 31.9307C103.576 31.8905 103.804 31.7784 103.974 31.5943C104.144 31.4078 104.257 31.1744 104.313 30.894C104.372 30.6132 104.378 30.3087 104.332 29.9805C104.286 29.6499 104.196 29.3578 104.062 29.104C103.93 28.8476 103.757 28.6532 103.542 28.5208C103.328 28.3884 103.077 28.3423 102.791 28.3825C102.498 28.4237 102.266 28.5376 102.094 28.7244C101.924 28.9108 101.81 29.1456 101.751 29.4287C101.695 29.7092 101.69 30.0147 101.737 30.3452C101.783 30.6734 101.872 30.9646 102.003 31.2187C102.137 31.4724 102.311 31.6655 102.525 31.7979C102.742 31.9276 102.997 31.9719 103.29 31.9307ZM105.873 28.057L105.726 27.0126L110.452 26.3484L110.599 27.3928L108.851 27.6384L109.464 31.9954L108.233 32.1684L107.62 27.8114L105.873 28.057ZM114.409 31.408C113.867 31.4842 113.384 31.4374 112.958 31.2676C112.535 31.0953 112.188 30.8164 111.919 30.4311C111.649 30.0435 111.475 29.5671 111.395 29.0022C111.317 28.4465 111.354 27.9441 111.506 27.4948C111.66 27.0428 111.912 26.6727 112.261 26.3846C112.61 26.0941 113.042 25.9126 113.558 25.8401C113.891 25.7934 114.213 25.8031 114.523 25.8694C114.836 25.9331 115.121 26.0603 115.38 26.2511C115.641 26.4415 115.861 26.6998 116.041 27.026C116.221 27.3498 116.344 27.7485 116.41 28.2221L116.465 28.6124L112.038 29.2346L111.917 28.3766L115.124 27.9258C115.088 27.6824 115.004 27.4729 114.874 27.2975C114.744 27.1198 114.579 26.9888 114.378 26.9047C114.18 26.8202 113.959 26.7951 113.715 26.8293C113.455 26.8659 113.235 26.9613 113.056 27.1156C112.876 27.2675 112.746 27.4532 112.664 27.6727C112.585 27.8894 112.561 28.1187 112.593 28.3605L112.698 29.1096C112.742 29.4237 112.837 29.6852 112.984 29.8942C113.13 30.1007 113.315 30.2493 113.538 30.3399C113.76 30.4281 114.01 30.4528 114.287 30.4139C114.472 30.3879 114.636 30.3385 114.779 30.2659C114.921 30.1908 115.04 30.094 115.136 29.9754C115.232 29.8567 115.297 29.7173 115.332 29.557L116.539 29.5236C116.508 29.8483 116.404 30.1427 116.226 30.4067C116.05 30.6682 115.808 30.8862 115.5 31.061C115.192 31.2334 114.828 31.3491 114.409 31.408ZM117.873 30.8136L117.113 25.4122L118.386 25.2333L118.693 27.4135L119.157 27.3483L120.475 24.9397L122.008 24.7242L120.38 27.6569L122.789 30.1227L121.248 30.3392L119.482 28.5111L118.859 28.5986L119.146 30.6347L117.873 30.8136ZM125.08 29.9118C124.738 29.9599 124.421 29.9423 124.13 29.859C123.84 29.7729 123.599 29.6204 123.405 29.4013C123.214 29.1819 123.094 28.8952 123.044 28.5412C123.001 28.2364 123.022 27.9765 123.107 27.7614C123.191 27.5463 123.323 27.3653 123.5 27.2184C123.678 27.0715 123.885 26.9504 124.12 26.8552C124.357 26.7573 124.605 26.6759 124.864 26.6108C125.176 26.5335 125.428 26.4682 125.621 26.4147C125.814 26.3589 125.951 26.2966 126.033 26.2278C126.116 26.1563 126.149 26.0597 126.132 25.9377L126.129 25.9166C126.092 25.6517 125.984 25.4576 125.807 25.3344C125.629 25.2111 125.393 25.1702 125.097 25.2117C124.786 25.2555 124.548 25.3583 124.384 25.52C124.223 25.6813 124.123 25.859 124.086 26.0531L122.874 26.0514C122.921 25.71 123.038 25.4139 123.222 25.1633C123.407 24.9102 123.647 24.7067 123.943 24.5527C124.239 24.3964 124.576 24.2917 124.953 24.2386C125.214 24.202 125.477 24.1961 125.743 24.2208C126.01 24.2455 126.26 24.3132 126.493 24.4239C126.726 24.5322 126.923 24.6969 127.086 24.9179C127.251 25.1386 127.358 25.4283 127.409 25.787L127.917 29.402L126.693 29.574L126.589 28.832L126.547 28.8379C126.49 28.9988 126.401 29.1548 126.279 29.3059C126.159 29.4543 125.999 29.5831 125.799 29.6925C125.601 29.7992 125.361 29.8723 125.08 29.9118ZM125.279 28.93C125.535 28.8941 125.749 28.8125 125.923 28.6854C126.096 28.5558 126.221 28.3996 126.298 28.2166C126.377 28.0333 126.403 27.8421 126.375 27.6428L126.286 27.0063C126.25 27.0447 126.187 27.0847 126.094 27.1264C126.005 27.1677 125.903 27.2071 125.788 27.2447C125.674 27.2823 125.561 27.3174 125.448 27.3499C125.335 27.3825 125.238 27.4105 125.155 27.4341C124.969 27.4866 124.805 27.5527 124.663 27.6324C124.521 27.7121 124.414 27.8108 124.342 27.9285C124.27 28.0438 124.246 28.1835 124.269 28.3476C124.302 28.5821 124.412 28.747 124.6 28.8426C124.788 28.9381 125.014 28.9672 125.279 28.93Z" fill="#FAFDFF"/>
</g>
<defs>
<filter id="filter0_d_1_6461" x="0" y="0" width="152.114" height="65.3022" filterUnits="userSpaceOnUse" color-interpolation-filters="sRGB">
<feFlood flood-opacity="0" result="BackgroundImageFix"/>
<feColorMatrix in="SourceAlpha" type="matrix" values="0 0 0 0 0 0 0 0 0 0 0 0 0 0 0 0 0 0 127 0" result="hardAlpha"/>
<feOffset/>
<feGaussianBlur stdDeviation="6"/>
<feComposite in2="hardAlpha" operator="out"/>
<feColorMatrix type="matrix" values="0 0 0 0 0 0 0 0 0 0 0 0 0 0 0 0 0 0 0.12 0"/>
<feBlend mode="normal" in2="BackgroundImageFix" result="effect1_dropShadow_1_6461"/>
<feBlend mode="normal" in="SourceGraphic" in2="effect1_dropShadow_1_6461" result="shape"/>
</filter>
</defs>
</svg>
