<svg width="216" height="174" viewBox="0 0 216 174" fill="none" xmlns="http://www.w3.org/2000/svg">
<g opacity="0.25">
<path d="M28.3523 164.213C34.993 142.564 20.816 117.919 34.5942 97.961C40.0577 90.0383 48.3217 84.2792 57.5034 81.5577C67.3897 78.6337 77.4434 79.8566 86.4778 84.7682C97.5798 90.7884 106.571 100.301 118.659 104.533C124.377 106.525 130.458 107.305 136.36 105.751C142.159 104.206 147.079 100.393 150.85 95.7836C158.809 86.0895 161.756 73.6879 167.557 62.7833C170.328 57.5668 173.877 52.7149 178.777 49.3667C184.516 45.4439 191.518 44.109 198.361 43.8842C205.42 43.6618 212.463 44.5778 219.444 45.5434C226.336 46.4874 233.21 47.6001 240.025 48.9226C253.872 51.5702 267.556 54.9513 281.03 59.083C284.381 60.1024 287.724 61.1781 291.062 62.31C293.109 62.9944 294.57 59.9274 292.49 59.2278C278.916 54.6739 265.082 50.8078 251.111 47.7467C237.165 44.677 222.921 42.1198 208.676 40.885C201.69 40.2721 194.616 40.2304 187.75 41.8663C181.336 43.4183 175.579 46.7005 171.13 51.5837C162.702 60.8011 159.815 73.3694 154.221 84.2525C151.379 89.7915 147.8 95.2212 142.719 98.9587C137.739 102.605 131.717 103.907 125.646 102.934C112.79 100.87 103.128 91.3583 92.5467 84.5553C87.5688 81.3501 82.262 78.6422 76.4471 77.414C71.6847 76.4231 66.7171 76.3431 61.9343 77.1398C52.1296 78.7394 42.9454 83.5926 36.079 90.7581C32.7158 94.275 29.9207 98.3942 28.006 102.867C25.823 108.005 24.9752 113.492 24.824 119.05C24.5169 131.11 27.7282 143.105 26.6148 155.162C26.3464 158.038 25.8063 160.905 24.9599 163.668C24.3794 165.686 27.7331 166.273 28.3523 164.213Z" fill="#A1D8EE"/>
<path d="M42.5911 158.646C44.8424 157.826 47.3387 158.995 48.1644 161.263C48.99 163.532 47.8294 166.033 45.5781 166.852C43.3267 167.672 40.8292 166.502 40.0036 164.234C39.1782 161.966 40.3398 159.465 42.5911 158.646Z" stroke="#A1D8EE"/>
<path d="M38.5396 140.214C40.7909 139.395 43.2872 140.564 44.1129 142.832C44.9385 145.1 43.7778 147.601 41.5266 148.421C39.2752 149.24 36.7777 148.07 35.9521 145.802C35.1267 143.534 36.2883 141.033 38.5396 140.214Z" stroke="#A1D8EE"/>
<path d="M36.9871 121.79C39.2384 120.971 41.7347 122.14 42.5604 124.408C43.386 126.676 42.2254 129.177 39.9741 129.997C37.7227 130.816 35.2252 129.647 34.3996 127.378C33.5742 125.11 34.7358 122.61 36.9871 121.79Z" stroke="#A1D8EE"/>
<path d="M41.0428 104.616C43.294 103.796 45.7904 104.965 46.6161 107.233C47.4416 109.502 46.281 112.003 44.0298 112.822C41.7783 113.642 39.2808 112.472 38.4552 110.204C37.6298 107.935 38.7914 105.435 41.0428 104.616Z" stroke="#A1D8EE"/>
<path d="M51.6016 90.4146C53.8529 89.5954 56.3492 90.7645 57.1749 93.0325C58.0005 95.3007 56.8399 97.8017 54.5886 98.6213C52.3372 99.4408 49.8397 98.2711 49.0141 96.0028C48.1887 93.7346 49.3503 91.234 51.6016 90.4146Z" stroke="#A1D8EE"/>
<path d="M71.0887 88.5005C73.3399 87.6813 75.8363 88.8504 76.662 91.1184C77.4875 93.3867 76.3269 95.8877 74.0757 96.7072C71.8242 97.5267 69.3267 96.3571 68.5011 94.0887C67.6757 91.8205 68.8373 89.32 71.0887 88.5005Z" stroke="#A1D8EE"/>
<path d="M87.5252 98.1897C89.7765 97.3705 92.2728 98.5396 93.0985 100.808C93.924 103.076 92.7634 105.577 90.5122 106.396C88.2608 107.216 85.7633 106.046 84.9377 103.778C84.1123 101.51 85.2739 99.0092 87.5252 98.1897Z" stroke="#A1D8EE"/>
<path d="M101.073 107.096C103.324 106.277 105.821 107.446 106.646 109.714C107.472 111.982 106.311 114.483 104.06 115.303C101.809 116.122 99.3111 114.953 98.4855 112.684C97.6601 110.416 98.8217 107.915 101.073 107.096Z" stroke="#A1D8EE"/>
<path d="M119.745 113.193C121.996 112.374 124.493 113.543 125.318 115.811C126.144 118.079 124.983 120.58 122.732 121.4C120.481 122.219 117.983 121.05 117.158 118.781C116.332 116.513 117.494 114.013 119.745 113.193Z" stroke="#A1D8EE"/>
<path d="M139.973 113.464C142.225 112.645 144.721 113.814 145.547 116.082C146.372 118.35 145.212 120.851 142.96 121.671C140.709 122.49 138.212 121.321 137.386 119.052C136.56 116.784 137.722 114.284 139.973 113.464Z" stroke="#A1D8EE"/>
<path d="M156.179 102.387C158.43 101.568 160.926 102.737 161.752 105.005C162.578 107.273 161.417 109.774 159.166 110.593C156.914 111.413 154.417 110.243 153.591 107.975C152.766 105.707 153.927 103.206 156.179 102.387Z" stroke="#A1D8EE"/>
<path d="M167.386 82.96C169.637 82.1408 172.133 83.3099 172.959 85.5779C173.785 87.8461 172.624 90.3471 170.373 91.1667C168.121 91.9862 165.624 90.8166 164.798 88.5482C163.973 86.28 165.134 83.7794 167.386 82.96Z" stroke="#A1D8EE"/>
<path d="M178.209 62.4053C180.46 61.5861 182.957 62.7552 183.782 65.0232C184.608 67.2915 183.447 69.7925 181.196 70.612C178.945 71.4315 176.447 70.2619 175.621 67.9935C174.796 65.7253 175.958 63.2247 178.209 62.4053Z" stroke="#A1D8EE"/>
<path d="M192.273 49.5723C194.524 48.7531 197.02 49.9222 197.846 52.1902C198.671 54.4584 197.511 56.9594 195.26 57.779C193.008 58.5985 190.511 57.4289 189.685 55.1605C188.86 52.8923 190.021 50.3917 192.273 49.5723Z" stroke="#A1D8EE"/>
<path d="M210.726 50.5704C212.977 49.7512 215.473 50.9202 216.299 53.1883C217.124 55.4565 215.964 57.9575 213.713 58.7771C211.461 59.5965 208.964 58.4269 208.138 56.1586C207.313 53.8903 208.474 51.3898 210.726 50.5704Z" stroke="#A1D8EE"/>
</g>
</svg>
