<svg width="124" height="40" viewBox="0 0 124 40" fill="none" xmlns="http://www.w3.org/2000/svg">
<path d="M12.9595 16.1122C12.8733 15.3059 12.5102 14.678 11.87 14.2287C11.236 13.7794 10.4112 13.5547 9.3956 13.5547C8.68158 13.5547 8.06913 13.6624 7.55824 13.8778C7.04735 14.0933 6.65649 14.3857 6.38565 14.755C6.11482 15.1243 5.97633 15.5459 5.97017 16.0199C5.97017 16.4138 6.05942 16.7554 6.23793 17.0447C6.42259 17.334 6.67188 17.5803 6.9858 17.7834C7.29972 17.9804 7.64749 18.1465 8.02912 18.282C8.41075 18.4174 8.79545 18.5312 9.18324 18.6236L10.956 19.0668C11.67 19.233 12.3563 19.4576 13.0149 19.7408C13.6797 20.0239 14.2737 20.3809 14.7969 20.8118C15.3262 21.2427 15.7448 21.7628 16.0526 22.3722C16.3603 22.9815 16.5142 23.6955 16.5142 24.5142C16.5142 25.6222 16.2311 26.5978 15.6648 27.4411C15.0985 28.2782 14.2798 28.9337 13.2088 29.4077C12.1439 29.8755 10.8544 30.1094 9.3402 30.1094C7.86908 30.1094 6.59186 29.8816 5.50852 29.4261C4.43134 28.9706 3.58807 28.3059 2.97869 27.4318C2.37547 26.5578 2.04924 25.4929 2 24.2372H5.37003C5.41927 24.8958 5.6224 25.4437 5.9794 25.8807C6.33641 26.3177 6.80114 26.6439 7.37358 26.8594C7.95218 27.0748 8.59848 27.1825 9.3125 27.1825C10.0573 27.1825 10.7098 27.0717 11.2699 26.8501C11.8362 26.6224 12.2794 26.3085 12.5994 25.9084C12.9195 25.5021 13.0826 25.0282 13.0888 24.4865C13.0826 23.9941 12.938 23.5878 12.6548 23.2678C12.3717 22.9415 11.9747 22.6707 11.4638 22.4553C10.959 22.2337 10.3681 22.0367 9.69105 21.8643L7.53977 21.3104C5.98248 20.9103 4.75142 20.304 3.84659 19.4915C2.94792 18.6728 2.49858 17.5864 2.49858 16.2322C2.49858 15.1181 2.80019 14.1425 3.40341 13.3054C4.01278 12.4683 4.84067 11.8189 5.88707 11.3572C6.93348 10.8894 8.11837 10.6555 9.44176 10.6555C10.7836 10.6555 11.9593 10.8894 12.9688 11.3572C13.9844 11.8189 14.7815 12.4621 15.3601 13.2869C15.9387 14.1056 16.2372 15.0473 16.2557 16.1122H12.9595Z" fill="#A1D8EE"/>
<path d="M23.0226 10.9141V29.8232H19.6803V10.9141H23.0226Z" fill="#A1D8EE"/>
<path d="M26.7196 29.8232V15.6413H30.0619V29.8232H26.7196ZM28.4 13.6286C27.8706 13.6286 27.4151 13.4531 27.0335 13.1023C26.6519 12.7453 26.4611 12.3175 26.4611 11.8189C26.4611 11.3142 26.6519 10.8864 27.0335 10.5355C27.4151 10.1785 27.8706 10 28.4 10C28.9355 10 29.391 10.1785 29.7664 10.5355C30.1481 10.8864 30.3389 11.3142 30.3389 11.8189C30.3389 12.3175 30.1481 12.7453 29.7664 13.1023C29.391 13.4531 28.9355 13.6286 28.4 13.6286Z" fill="#A1D8EE"/>
<path d="M39.0217 30.0724C37.9075 30.0724 36.9104 29.7862 36.0302 29.2138C35.15 28.6413 34.4544 27.8104 33.9435 26.7209C33.4326 25.6314 33.1772 24.308 33.1772 22.7507C33.1772 21.175 33.4357 19.8454 33.9528 18.7621C34.476 17.6726 35.1807 16.8509 36.0671 16.2969C36.9535 15.7367 37.9414 15.4567 39.0309 15.4567C39.8619 15.4567 40.5451 15.5982 41.0806 15.8814C41.6161 16.1584 42.0408 16.4938 42.3548 16.8878C42.6687 17.2756 42.9118 17.6418 43.0842 17.9865H43.2226V10.9141H46.5742V29.8232H43.2873V27.5888H43.0842C42.9118 27.9335 42.6625 28.2997 42.3363 28.6875C42.0101 29.0691 41.5792 29.3954 41.0437 29.6662C40.5082 29.937 39.8342 30.0724 39.0217 30.0724ZM39.9542 27.3303C40.662 27.3303 41.2653 27.1394 41.7638 26.7578C42.2624 26.37 42.641 25.8314 42.8995 25.142C43.158 24.4527 43.2873 23.6494 43.2873 22.7322C43.2873 21.8151 43.158 21.018 42.8995 20.3409C42.6471 19.6638 42.2717 19.1375 41.7731 18.7621C41.2807 18.3866 40.6744 18.1989 39.9542 18.1989C39.2094 18.1989 38.5877 18.3928 38.0891 18.7805C37.5905 19.1683 37.2151 19.7038 36.9627 20.3871C36.7103 21.0703 36.5842 21.852 36.5842 22.7322C36.5842 23.6186 36.7103 24.4096 36.9627 25.1051C37.2212 25.7945 37.5998 26.3393 38.0984 26.7393C38.6031 27.1333 39.2217 27.3303 39.9542 27.3303Z" fill="#A1D8EE"/>
<path d="M56.6742 30.1001C55.2524 30.1001 54.0244 29.8047 52.9903 29.2138C51.9623 28.6167 51.1714 27.7734 50.6174 26.6839C50.0634 25.5883 49.7864 24.2988 49.7864 22.8153C49.7864 21.3565 50.0634 20.0762 50.6174 18.9744C51.1775 17.8665 51.9593 17.0047 52.9626 16.3892C53.9659 15.7675 55.1446 15.4567 56.4988 15.4567C57.3729 15.4567 58.1977 15.5982 58.9732 15.8814C59.755 16.1584 60.4444 16.5893 61.0414 17.174C61.6446 17.7588 62.1186 18.5036 62.4633 19.4084C62.808 20.3071 62.9803 21.3781 62.9803 22.6214V23.6463H51.3561V21.3935H59.7765C59.7704 20.7533 59.6319 20.1839 59.361 19.6854C59.0902 19.1806 58.7116 18.7836 58.2254 18.4943C57.7453 18.205 57.1851 18.0604 56.545 18.0604C55.8617 18.0604 55.2616 18.2266 54.7445 18.5589C54.2275 18.8852 53.8243 19.3161 53.535 19.8516C53.2519 20.3809 53.1072 20.9626 53.1011 21.5966V23.5632C53.1011 24.388 53.2519 25.0959 53.5535 25.6868C53.8551 26.2715 54.2767 26.7209 54.8184 27.0348C55.3601 27.3426 55.9941 27.4964 56.7204 27.4964C57.2067 27.4964 57.6468 27.4287 58.0407 27.2933C58.4347 27.1518 58.7763 26.9456 59.0656 26.6747C59.3549 26.4039 59.5734 26.0684 59.7211 25.6683L62.8418 26.0192C62.6449 26.844 62.2694 27.5642 61.7154 28.1797C61.1676 28.7891 60.4659 29.263 59.6103 29.6016C58.7547 29.9339 57.776 30.1001 56.6742 30.1001Z" fill="#A1D8EE"/>
<path d="M66.0679 29.8232V15.6413H69.3087V18.005H69.4564C69.715 17.1863 70.1581 16.5554 70.786 16.1122C71.42 15.6629 72.1432 15.4382 72.9557 15.4382C73.1404 15.4382 73.3466 15.4474 73.5743 15.4659C73.8082 15.4782 74.0021 15.4998 74.156 15.5305V18.6051C74.0144 18.5559 73.7898 18.5128 73.482 18.4759C73.1804 18.4328 72.888 18.4112 72.6049 18.4112C71.9955 18.4112 71.4477 18.5436 70.9614 18.8082C70.4813 19.0668 70.1027 19.4268 69.8257 19.8885C69.5488 20.3501 69.4103 20.8826 69.4103 21.4858V29.8232H66.0679Z" fill="#A1D8EE"/>
<path d="M79.1456 35.1413C78.6901 35.1413 78.2685 35.1044 77.8807 35.0305C77.499 34.9628 77.1944 34.8828 76.9666 34.7905L77.7422 32.1868C78.2284 32.3284 78.6624 32.3961 79.044 32.3899C79.4256 32.3838 79.7611 32.2637 80.0504 32.0298C80.3459 31.8021 80.5952 31.4205 80.7983 30.8849L81.0845 30.1186L75.9417 15.6413H79.4872L82.7557 26.3516H82.9034L86.1811 15.6413H89.7358L84.0575 31.5405C83.7928 32.2914 83.442 32.9347 83.005 33.4702C82.5679 34.0118 82.0324 34.4242 81.3984 34.7074C80.7706 34.9967 80.0196 35.1413 79.1456 35.1413Z" fill="#A1D8EE"/>
<path d="M101.594 29.8232H97.9376L104.595 10.9141H108.823L115.489 29.8232H111.833L106.783 14.7919H106.635L101.594 29.8232ZM101.714 22.4091H111.685V25.1605H101.714V22.4091Z" fill="white"/>
<path d="M121.665 10.9141V29.8232H118.24V10.9141H121.665Z" fill="white"/>
</svg>
