<svg width="53" height="48" viewBox="0 0 53 48" fill="none" xmlns="http://www.w3.org/2000/svg">
<g clip-path="url(#clip0_2001_4848)">
<path d="M31.8998 26.4L28.2998 0H28.031C14.9405 0.0382172 4.33802 10.6407 4.2998 23.7312V24L31.8998 26.4Z" fill="#ED6C47"/>
<path d="M28.5686 0H28.2998V24L40.2998 28.8L52.2998 24V23.7312C52.2616 10.6407 41.6591 0.0382172 28.5686 0Z" fill="#FF8F6B"/>
<path d="M52.2998 24V24.264C52.2622 37.3574 41.6572 47.9624 28.5638 48H28.0358C14.9424 47.9624 4.33738 37.3574 4.2998 24.264V24H52.2998Z" fill="#D35230"/>
<path opacity="0.1" d="M29.4998 11.7956V37.4036C29.4939 38.2935 28.9546 39.0928 28.1318 39.4316C27.8698 39.5424 27.5883 39.5996 27.3038 39.5996H9.96383C9.62783 39.2156 9.30385 38.8076 9.00383 38.3996C5.94659 34.3212 4.29585 29.3607 4.29983 24.2636V23.7356C4.29282 19.1382 5.63644 14.64 8.16383 10.7996C8.42783 10.3916 8.70382 9.98361 9.00383 9.59961H27.3038C28.5128 9.60877 29.4907 10.5866 29.4998 11.7956Z" fill="black"/>
<path opacity="0.2" d="M28.2999 12.9958V38.6038C28.2998 38.8883 28.2427 39.1698 28.1319 39.4318C27.7931 40.2546 26.9937 40.7938 26.1038 40.7998H11.0558C10.6762 40.4144 10.3119 40.014 9.96383 39.5998C9.62783 39.2158 9.30385 38.8078 9.00383 38.3998C5.94659 34.3214 4.29585 29.3608 4.29983 24.2638V23.7358C4.29282 19.1384 5.63644 14.6402 8.16383 10.7998H26.1038C27.3129 10.8089 28.2907 11.7868 28.2999 12.9958Z" fill="black"/>
<path opacity="0.2" d="M28.2998 12.9958V36.2038C28.2907 37.4128 27.3129 38.3906 26.1038 38.3998H9.00383C5.94659 34.3214 4.29585 29.3608 4.29983 24.2638V23.7358C4.29282 19.1384 5.63644 14.6402 8.16383 10.7998H26.1038C27.3128 10.8089 28.2907 11.7868 28.2998 12.9958Z" fill="black"/>
<path opacity="0.2" d="M27.0998 12.9958V36.2038C27.0907 37.4128 26.1129 38.3906 24.9038 38.3998H9.00383C5.94659 34.3214 4.29585 29.3608 4.29983 24.2638V23.7358C4.29282 19.1384 5.63644 14.6402 8.16383 10.7998H24.9038C26.1129 10.8089 27.0907 11.7868 27.0998 12.9958Z" fill="black"/>
<path d="M2.89978 10.7998H24.9006C26.1154 10.7998 27.1002 11.7846 27.1002 12.9994V35.0002C27.1002 36.215 26.1154 37.1998 24.9006 37.1998H2.89978C1.685 37.1998 0.700195 36.215 0.700195 35.0002V12.9994C0.700195 11.7846 1.685 10.7998 2.89978 10.7998Z" fill="url(#paint0_linear_2001_4848)"/>
<path d="M14.1403 16.667C15.5724 16.5704 16.9923 16.9864 18.1459 17.8407C19.108 18.6996 19.6221 19.9531 19.5403 21.2402C19.556 22.135 19.3175 23.0159 18.8527 23.7806C18.382 24.5322 17.704 25.1315 16.9003 25.5063C15.9815 25.9336 14.9769 26.1446 13.9639 26.123H11.1811V31.295H8.33105V16.667H14.1403ZM11.1787 23.8887H13.6315C14.4091 23.9458 15.1806 23.7156 15.7999 23.2419C16.3121 22.7505 16.5806 22.0576 16.5331 21.3495C16.5331 19.7375 15.5963 18.9315 13.7227 18.9315H11.1787V23.8887H11.1787Z" fill="white"/>
</g>
<defs>
<linearGradient id="paint0_linear_2001_4848" x1="5.28641" y1="9.08108" x2="22.514" y2="38.9185" gradientUnits="userSpaceOnUse">
<stop stop-color="#CA4C28"/>
<stop offset="0.5" stop-color="#C5401E"/>
<stop offset="1" stop-color="#B62F14"/>
</linearGradient>
<clipPath id="clip0_2001_4848">
<rect width="51.6" height="48" fill="white" transform="translate(0.700195)"/>
</clipPath>
</defs>
</svg>
