<svg width="49" height="48" viewBox="0 0 49 48" fill="none" xmlns="http://www.w3.org/2000/svg">
<g clip-path="url(#clip0_2001_4832)">
<path d="M24.3697 0.000679016C11.1869 0.000679016 0.5 10.6876 0.5 23.8704C0.5 36.6718 10.5781 47.1195 23.2329 47.7123C23.6106 47.7301 23.9888 47.7402 24.3701 47.7402C30.4814 47.7402 36.0548 45.4423 40.2779 41.6657C37.4799 43.5213 34.2086 44.589 30.7126 44.589C25.0282 44.589 19.9373 41.769 16.5134 37.3221C13.874 34.2064 12.1645 29.6009 12.048 24.4323V23.3082C12.1644 18.1397 13.8739 13.5333 16.5127 10.4184C19.9372 5.97143 25.0279 3.15146 30.712 3.15146C34.2088 3.15146 37.4806 4.21914 40.2789 6.07594C36.0765 2.31662 30.5368 0.0233688 24.4595 0.000801086C24.4292 0.000801086 24.3995 -0.00038147 24.3692 -0.00038147L24.3697 0.000679016Z" fill="url(#paint0_linear_2001_4832)"/>
<path d="M16.5127 10.4199C18.7032 7.83393 21.5321 6.27456 24.6228 6.27456C31.572 6.27456 37.2044 14.1531 37.2044 23.8716C37.2044 33.5901 31.5716 41.4686 24.6228 41.4686C21.5321 41.4686 18.7032 39.9099 16.5133 37.3239C19.9371 41.7708 25.0276 44.5908 30.7125 44.5908C34.2088 44.5908 37.48 43.5231 40.2777 41.6675C45.1635 37.2966 48.24 30.9436 48.24 23.8718C48.24 16.8008 45.1641 10.4481 40.2795 6.07767C37.4809 4.22088 34.2091 3.1532 30.7126 3.1532C25.0282 3.1532 19.9366 5.97292 16.5127 10.4199Z" fill="url(#paint1_linear_2001_4832)"/>
</g>
<defs>
<linearGradient id="paint0_linear_2001_4832" x1="20.39" y1="0.778767" x2="20.39" y2="47.0462" gradientUnits="userSpaceOnUse">
<stop stop-color="#FF1B2D"/>
<stop offset="0.3" stop-color="#FF1B2D"/>
<stop offset="0.614" stop-color="#FF1B2D"/>
<stop offset="1" stop-color="#A70014"/>
</linearGradient>
<linearGradient id="paint1_linear_2001_4832" x1="32.3759" y1="3.50637" x2="32.3759" y2="44.4275" gradientUnits="userSpaceOnUse">
<stop stop-color="#9C0000"/>
<stop offset="0.7" stop-color="#FF4B4B"/>
<stop offset="1" stop-color="#FF4B4B"/>
</linearGradient>
<clipPath id="clip0_2001_4832">
<rect width="48" height="48" fill="white" transform="translate(0.5)"/>
</clipPath>
</defs>
</svg>
