<svg width="74" height="74" viewBox="0 0 74 74" fill="none" xmlns="http://www.w3.org/2000/svg">
<path d="M8.51273 30.8894C15.6284 36.8913 28.8107 43.1842 37.9634 44.9177L43.546 45.9756C44.2328 46.0692 44.8985 46.1229 45.5709 46.0457C45.3808 45.6881 45.1894 45.2802 45.0483 44.8711C44.3795 43.0861 44.3105 41.1351 44.9338 39.0964C45.5665 37.0272 46.7928 35.3558 48.3653 34.2394C48.752 34.0082 49.1282 33.7572 49.5467 33.5857C49.0007 33.0861 48.3567 32.6895 47.686 32.4345L42.5059 30.1687C33.9685 26.4772 19.46 24.3041 10.2351 25.3102C8.83058 25.4964 7.86721 26.4164 7.54286 27.5317C7.17877 28.6681 7.42328 29.9907 8.51273 30.8894Z" stroke="#A1D8EE" stroke-width="2" stroke-linecap="round" stroke-linejoin="round"/>
<path d="M45.5707 46.0457C46.7327 48.231 48.6762 49.8733 51.0907 50.6281C52.9469 51.1956 55.0394 51.1533 57.1435 50.3658L62.3158 48.3036C65.1364 47.1862 66.2168 43.7067 64.4624 41.1738L61.3274 36.5719C58.5373 32.4747 53.423 31.6265 49.5266 33.5963C49.1187 33.7877 48.7121 34.0294 48.3452 34.2499C46.7728 35.3663 45.5358 37.0178 44.9138 39.1069C44.2905 41.1457 44.3595 43.0967 45.0282 44.8816C45.2091 45.2696 45.37 45.6682 45.5707 46.0457Z" stroke="#A1D8EE" stroke-width="2" stroke-linecap="round" stroke-linejoin="round"/>
<path d="M34.6743 43.8121C31.9173 38.627 33.8896 32.1759 39.0747 29.4189" stroke="#A1D8EE" stroke-width="2" stroke-linecap="round" stroke-linejoin="round"/>
</svg>
