<svg width="49" height="48" viewBox="0 0 49 48" fill="none" xmlns="http://www.w3.org/2000/svg">
<g clip-path="url(#clip0_2001_4838)">
<g opacity="0.53" filter="url(#filter0_f_2001_4838)">
<path d="M46.513 24.7625C46.513 27.5461 45.9436 30.3023 44.8374 32.874C43.7312 35.4456 42.1099 37.7822 40.0659 39.7505C38.0219 41.7187 35.5953 43.28 32.9247 44.3452C30.2541 45.4104 27.3918 45.9587 24.5011 45.9587C21.6105 45.9587 18.7481 45.4104 16.0775 44.3452C13.4069 43.28 10.9804 41.7187 8.93639 39.7505C6.89239 37.7822 5.27101 35.4456 4.16481 32.874C3.05861 30.3023 2.48926 27.5461 2.48926 24.7625C2.48926 19.141 4.80836 13.7497 8.93639 9.77461C13.0644 5.79956 18.6632 3.56641 24.5011 3.56641C27.3918 3.56641 30.2541 4.11466 32.9247 5.17987C35.5953 6.24507 38.0219 7.80637 40.0659 9.77461C42.1099 11.7429 43.7312 14.0795 44.8374 16.6511C45.9436 19.2228 46.513 21.979 46.513 24.7625Z" fill="black"/>
</g>
<path d="M47.3501 22.8909C47.3501 25.8916 46.7591 28.8629 45.6108 31.6352C44.4625 34.4074 42.7794 36.9264 40.6576 39.0482C38.5358 41.17 36.0168 42.8531 33.2445 44.0014C30.4723 45.1498 27.5009 45.7408 24.5003 45.7408C18.4401 45.7408 12.6281 43.3334 8.34296 39.0482C4.05778 34.763 1.65039 28.9511 1.65039 22.8909C1.65039 16.8307 4.05778 11.0188 8.34296 6.7336C12.6281 2.44841 18.4401 0.0410172 24.5003 0.0410156C27.5009 0.0410154 30.4723 0.632047 33.2445 1.78036C36.0168 2.92868 38.5358 4.61179 40.6576 6.7336C42.7794 8.8554 44.4625 11.3743 45.6108 14.1466C46.7591 16.9189 47.3501 19.8902 47.3501 22.8909Z" fill="url(#paint0_linear_2001_4838)" stroke="#CDCDCD" stroke-width="0.067847" stroke-linecap="round" stroke-linejoin="round"/>
<path d="M45.5592 22.8914C45.5592 28.4767 43.3405 33.8332 39.3911 37.7826C35.4417 41.732 30.0851 43.9508 24.4998 43.9508C18.9145 43.9508 13.558 41.732 9.60858 37.7826C5.65918 33.8332 3.44043 28.4767 3.44043 22.8914C3.44043 17.3061 5.65918 11.9496 9.60858 8.00018C13.558 4.05078 18.9145 1.83203 24.4998 1.83203C30.0851 1.83203 35.4417 4.05078 39.3911 8.00018C43.3405 11.9496 45.5592 17.3061 45.5592 22.8914Z" fill="url(#paint1_radial_2001_4838)"/>
<path d="M24.5005 2.92969C24.3304 2.92969 24.1934 3.06662 24.1934 3.23672V6.77829C24.1934 6.94839 24.3304 7.08532 24.5005 7.08532C24.6706 7.08532 24.8075 6.94839 24.8075 6.77829V3.23672C24.8075 3.06662 24.6706 2.92969 24.5005 2.92969ZM22.4918 3.05664C22.4715 3.05445 22.4505 3.05445 22.4294 3.05689C22.2602 3.07455 22.1382 3.22496 22.1559 3.39414L22.3106 4.87578C22.3283 5.04497 22.4787 5.16696 22.6479 5.14929C22.8171 5.13164 22.9391 4.98123 22.9214 4.81204L22.7668 3.33041C22.7513 3.18237 22.6342 3.07046 22.4918 3.05664ZM26.5231 3.0581C26.3808 3.07181 26.2636 3.18372 26.248 3.33173L26.0922 4.81324C26.0744 4.98242 26.1964 5.13297 26.3656 5.15076C26.5348 5.16855 26.6852 5.04668 26.703 4.87751L26.8588 3.39587C26.8766 3.2267 26.7546 3.07628 26.5854 3.05849C26.5643 3.0563 26.5435 3.05629 26.5231 3.0581ZM20.4284 3.35586C20.408 3.35602 20.3872 3.35804 20.3664 3.36242C20.2 3.39765 20.0944 3.56002 20.1296 3.72643L20.8631 7.19114C20.8983 7.35756 21.0607 7.46317 21.2271 7.42795C21.3935 7.39272 21.4991 7.23047 21.4639 7.06406L20.7305 3.59923C20.6996 3.45361 20.5715 3.35474 20.4284 3.35586ZM28.5864 3.35877C28.4433 3.35732 28.3152 3.45648 28.2843 3.60206L27.5483 7.06636C27.5129 7.23276 27.6184 7.39517 27.7848 7.43051C27.9512 7.46589 28.1136 7.36034 28.1489 7.19397L28.8849 3.72967C28.9203 3.56328 28.8148 3.40086 28.6484 3.36552C28.6276 3.36114 28.6068 3.35877 28.5864 3.35877ZM18.4593 3.91109C18.4195 3.90744 18.3785 3.91181 18.338 3.92524C18.1763 3.97783 18.0883 4.15027 18.1409 4.31204L18.6012 5.72888C18.6538 5.89066 18.8264 5.97863 18.9881 5.92606C19.1499 5.87347 19.2378 5.7009 19.1852 5.53912L18.7248 4.12229C18.6855 4.00095 18.5785 3.92122 18.4593 3.91109ZM30.5444 3.91181C30.4252 3.92195 30.3183 4.00171 30.2788 4.12304L29.8182 5.53975C29.7656 5.70151 29.8535 5.8741 30.0153 5.92668C30.1771 5.97928 30.3496 5.89138 30.4022 5.72964L30.8628 4.3128C30.9154 4.15103 30.8275 3.97845 30.6658 3.92586C30.6254 3.91273 30.5842 3.90846 30.5444 3.91181ZM16.512 4.62368C16.4721 4.62441 16.4317 4.63316 16.3929 4.65045C16.2375 4.71952 16.1679 4.90024 16.237 5.05567L17.6755 8.29193C17.7445 8.44736 17.9253 8.51686 18.0807 8.44776C18.236 8.37869 18.3058 8.19797 18.2367 8.04254L16.7981 4.80628C16.7463 4.6897 16.6316 4.62136 16.512 4.62368ZM32.5137 4.63454C32.394 4.63236 32.2793 4.70027 32.2273 4.81675L30.7845 8.05102C30.7152 8.20636 30.7845 8.38721 30.9398 8.45651C31.0952 8.52581 31.276 8.45655 31.3453 8.30121L32.7881 5.06694C32.8574 4.91159 32.7882 4.73075 32.6328 4.66145C32.594 4.64416 32.5536 4.63542 32.5137 4.63454ZM14.7045 5.58003C14.6456 5.57566 14.5848 5.58879 14.5296 5.62074C14.3823 5.70579 14.3322 5.89283 14.4172 6.04014L15.1621 7.3303C15.2471 7.47761 15.4342 7.52772 15.5815 7.44267C15.7288 7.35761 15.7789 7.17058 15.6939 7.02326L14.949 5.73311C14.8958 5.64104 14.8028 5.5869 14.7045 5.58003ZM34.2964 5.58003C34.1982 5.5866 34.1052 5.64101 34.052 5.73309L33.307 7.02324C33.222 7.17056 33.2723 7.35759 33.4196 7.44265C33.5669 7.5277 33.7539 7.47759 33.839 7.33028L34.5838 6.04012C34.6689 5.89281 34.6188 5.70577 34.4714 5.62071C34.4162 5.58884 34.3553 5.57595 34.2964 5.58003ZM12.9494 6.67473C12.8903 6.67691 12.8311 6.69588 12.7795 6.7333C12.6418 6.83318 12.6114 7.02443 12.7113 7.16212L14.7908 10.0288C14.8907 10.1665 15.0821 10.1969 15.2198 10.0971C15.3574 9.99718 15.3879 9.80593 15.288 9.66824L13.2083 6.80158C13.1459 6.71552 13.0478 6.67136 12.9494 6.67473ZM36.0735 6.69034C35.9751 6.68669 35.877 6.73082 35.8145 6.81676L33.731 9.68064C33.6309 9.8182 33.6611 10.0095 33.7987 10.1096C33.9362 10.2097 34.1275 10.1795 34.2276 10.042L36.311 7.17816C36.4111 7.0406 36.3808 6.84928 36.2433 6.74921C36.1917 6.71172 36.1326 6.69245 36.0735 6.69034ZM11.3805 7.99043C11.3022 7.98605 11.2222 8.01224 11.159 8.06914C11.0325 8.18295 11.0224 8.3763 11.1362 8.50273L12.133 9.61001C12.2468 9.73644 12.4401 9.74661 12.5666 9.63277C12.693 9.51896 12.7032 9.32548 12.5893 9.19905L11.5927 8.0919C11.5358 8.02866 11.4589 7.99455 11.3805 7.99043ZM37.6226 7.99261C37.5442 7.99699 37.4674 8.03091 37.4105 8.09412L36.4137 9.20114C36.2999 9.32755 36.3099 9.52103 36.4364 9.63486C36.5628 9.74868 36.7562 9.73847 36.87 9.6121L37.8669 8.50508C37.9807 8.37866 37.9705 8.18518 37.8441 8.07137C37.7809 8.01447 37.701 7.98851 37.6226 7.99261ZM9.8769 9.43476C9.79852 9.43913 9.72178 9.47305 9.66487 9.53627C9.55106 9.66269 9.56124 9.85605 9.68763 9.96985L12.3198 12.3393C12.4462 12.4531 12.6395 12.443 12.7533 12.3166C12.8671 12.1901 12.8571 11.9968 12.7306 11.883L10.0984 9.51351C10.0352 9.45661 9.95528 9.43064 9.8769 9.43476ZM39.1336 9.44511C39.0552 9.44074 38.9751 9.46685 38.9119 9.5237L36.2781 11.8913C36.1516 12.005 36.1412 12.1984 36.2549 12.3249C36.3687 12.4514 36.5622 12.4617 36.6887 12.348L39.3225 9.98034C39.449 9.86662 39.4593 9.67326 39.3456 9.54675C39.2887 9.48351 39.2119 9.44929 39.1336 9.44511ZM8.6265 11.0426C8.52807 11.0389 8.42992 11.0833 8.36744 11.1693C8.26745 11.3069 8.29778 11.4981 8.43542 11.5981L9.64063 12.4737C9.77825 12.5737 9.96946 12.5435 10.0694 12.4059C10.1694 12.2683 10.1392 12.0769 10.0016 11.9769L8.79639 11.1013C8.74482 11.0638 8.68555 11.0447 8.6265 11.0426ZM40.3828 11.0537C40.3237 11.0559 40.2645 11.0748 40.2129 11.1123L39.0071 11.9872C38.8694 12.0871 38.839 12.2784 38.9389 12.4161C39.0388 12.5538 39.23 12.5841 39.3677 12.4843L40.5736 11.6094C40.7112 11.5095 40.7416 11.3183 40.6417 11.1806C40.5792 11.0945 40.4812 11.0504 40.3828 11.0537ZM7.45799 12.7576C7.35974 12.7642 7.2668 12.8186 7.21364 12.9107C7.12858 13.058 7.1787 13.245 7.32601 13.3301L10.393 15.1008C10.5403 15.1859 10.7274 15.1358 10.8124 14.9885C10.8975 14.8412 10.8474 14.6541 10.7001 14.5691L7.63304 12.7983C7.57782 12.7664 7.51694 12.7535 7.45799 12.7576ZM41.5429 12.7576C41.484 12.7532 41.4231 12.7664 41.3679 12.7983L38.3008 14.5691C38.1535 14.6541 38.1034 14.8412 38.1885 14.9885C38.2735 15.1358 38.4606 15.1859 38.6079 15.1009L41.675 13.3301C41.8223 13.245 41.8725 13.058 41.7874 12.9107C41.7342 12.8186 41.6412 12.7645 41.5429 12.7576ZM6.57452 14.5856C6.45487 14.5827 6.34013 14.6512 6.28816 14.7677C6.21886 14.9231 6.28811 15.1039 6.44347 15.1732L7.80411 15.7801C7.95947 15.8494 8.14032 15.7802 8.20961 15.6248C8.2789 15.4694 8.20952 15.2886 8.05417 15.2193L6.69365 14.6124C6.65485 14.595 6.6144 14.5864 6.57452 14.5856ZM42.4324 14.5982C42.3924 14.599 42.3519 14.6077 42.3131 14.625L40.9522 15.2309C40.7968 15.3001 40.7273 15.4808 40.7965 15.6362C40.8657 15.7916 41.0466 15.8611 41.202 15.7919L42.5629 15.1859C42.7183 15.1168 42.7876 14.936 42.7184 14.7806C42.6666 14.664 42.552 14.5959 42.4324 14.5982ZM5.78713 16.4962C5.66787 16.5062 5.56096 16.5859 5.52143 16.7072C5.46877 16.8689 5.55645 17.0416 5.71822 17.0943L9.08553 18.1915C9.24725 18.2442 9.4199 18.1564 9.4726 17.9947C9.52526 17.833 9.43759 17.6603 9.27582 17.6076L5.90851 16.5104C5.8681 16.4972 5.82687 16.4929 5.78713 16.4962ZM43.2183 16.5094C43.1785 16.5057 43.1375 16.5101 43.097 16.5235L39.7289 17.6184C39.5672 17.6709 39.4793 17.8435 39.5319 18.0053C39.5845 18.1671 39.757 18.2549 39.9188 18.2023L43.2868 17.1075C43.4486 17.0549 43.5366 16.8823 43.484 16.7206C43.4445 16.5992 43.3375 16.5195 43.2183 16.5094ZM5.29656 18.5019C5.15352 18.5004 5.02524 18.5997 4.9943 18.7453C4.95892 18.9117 5.06447 19.0741 5.23083 19.1094L6.68809 19.4191C6.85447 19.4545 7.01686 19.3489 7.05223 19.1826C7.08761 19.0162 6.98206 18.8538 6.8157 18.8184L5.35857 18.5087C5.33778 18.5044 5.31699 18.5019 5.29656 18.5019ZM43.705 18.5048C43.6846 18.5049 43.6639 18.5077 43.6432 18.5113L42.1859 18.8209C42.0195 18.8563 41.914 19.0185 41.9494 19.1849C41.9847 19.3513 42.1471 19.4569 42.3135 19.4216L43.7706 19.112C43.937 19.0767 44.0426 18.9143 44.0073 18.7479C43.9764 18.6023 43.848 18.5036 43.705 18.5048ZM4.92525 20.5193C4.78287 20.5329 4.66567 20.6446 4.65003 20.7926C4.63216 20.9618 4.75384 21.1124 4.923 21.1303L8.44495 21.5026C8.61411 21.5205 8.76473 21.3987 8.7826 21.2295C8.80047 21.0604 8.67865 20.9097 8.50949 20.8919L4.98754 20.5195C4.96639 20.5173 4.94561 20.5173 4.92525 20.5193ZM44.079 20.5457C44.0586 20.5435 44.0377 20.5435 44.0165 20.546L40.4942 20.9136C40.325 20.9312 40.203 21.0816 40.2207 21.2508C40.2383 21.42 40.3887 21.542 40.5579 21.5243L44.0803 21.1567C44.2494 21.1391 44.3714 20.9887 44.3538 20.8195C44.3383 20.6715 44.2213 20.5596 44.079 20.5457ZM4.86562 22.5843C4.69552 22.5843 4.55859 22.7213 4.55859 22.8914C4.55859 23.0615 4.69552 23.1984 4.86562 23.1984H6.35535C6.52544 23.1984 6.66251 23.0615 6.66251 22.8914C6.66251 22.7213 6.52544 22.5843 6.35535 22.5843H4.86562ZM42.6456 22.5843C42.4755 22.5843 42.3385 22.7213 42.3385 22.8914C42.3385 23.0615 42.4755 23.1984 42.6456 23.1984H44.1353C44.3054 23.1984 44.4423 23.0615 44.4423 22.8914C44.4423 22.7213 44.3054 22.5843 44.1353 22.5843H42.6456ZM8.50538 24.2581C8.48503 24.2559 8.46424 24.2559 8.44309 24.2584L4.9206 24.626C4.75141 24.6436 4.62946 24.794 4.6471 24.9632C4.66475 25.1324 4.81516 25.2544 4.98434 25.2367L8.50683 24.8691C8.67601 24.8515 8.79797 24.701 8.78033 24.5319C8.76487 24.3838 8.64775 24.2719 8.50538 24.2581ZM40.4937 24.2798C40.3513 24.2935 40.2341 24.4052 40.2184 24.5532C40.2006 24.7224 40.3223 24.873 40.4914 24.8909L44.0134 25.2632C44.1825 25.2811 44.3331 25.1593 44.351 24.9901C44.3689 24.821 44.2471 24.6703 44.0779 24.6525L40.5561 24.2801C40.5349 24.2779 40.514 24.2779 40.4937 24.2798ZM6.74957 26.3541C6.72915 26.3543 6.70836 26.3563 6.68757 26.3606L5.23031 26.6702C5.06392 26.7056 4.95844 26.868 4.99378 27.0343C5.02916 27.2007 5.19154 27.3062 5.35793 27.2709L6.81519 26.9615C6.98157 26.9261 7.08706 26.7637 7.05171 26.5973C7.02079 26.4517 6.89261 26.3529 6.74957 26.3541ZM42.2509 26.357C42.1079 26.3555 41.9797 26.4547 41.9488 26.6003C41.9134 26.7667 42.0188 26.9291 42.1852 26.9644L43.6425 27.2741C43.8088 27.3095 43.9712 27.2041 44.0066 27.0377C44.042 26.8713 43.9364 26.7088 43.7701 26.6734L42.3129 26.3638C42.2922 26.3594 42.2714 26.357 42.2509 26.357ZM9.20346 27.5663C9.1637 27.5627 9.12266 27.567 9.08221 27.5805L5.71412 28.6753C5.55234 28.7279 5.46448 28.9005 5.51706 29.0622C5.56966 29.224 5.74223 29.3119 5.904 29.2593L9.27197 28.1645C9.43375 28.1119 9.52174 27.9393 9.46916 27.7775C9.42969 27.6562 9.32271 27.5764 9.20346 27.5663ZM39.7941 27.5772C39.6749 27.5872 39.568 27.6669 39.5284 27.7881C39.4758 27.9499 39.5635 28.1225 39.7252 28.1752L43.0925 29.2724C43.2543 29.3251 43.4269 29.2374 43.4796 29.0757C43.5323 28.9139 43.4446 28.7413 43.2828 28.6886L39.9155 27.5914C39.8751 27.5782 39.8339 27.5738 39.7941 27.5772ZM7.91821 29.9643C7.87831 29.965 7.83793 29.9736 7.79908 29.9909L6.43804 30.5969C6.28264 30.666 6.21328 30.8469 6.28246 31.0023C6.35168 31.1577 6.53242 31.227 6.68782 31.1578L8.04888 30.552C8.20427 30.4828 8.27362 30.302 8.20444 30.1466C8.15258 30.0301 8.03786 29.9619 7.91821 29.9643ZM41.0778 29.976C40.9581 29.973 40.8434 30.0415 40.7914 30.158C40.7221 30.3134 40.7914 30.4942 40.9467 30.5635L42.3073 31.1704C42.4626 31.2397 42.6435 31.1705 42.7127 31.0151C42.782 30.8598 42.7128 30.6789 42.5574 30.6096L41.1969 30.0027C41.1581 29.9854 41.1177 29.9768 41.0778 29.976ZM10.5681 30.6413C10.5091 30.6369 10.4483 30.6501 10.393 30.682L7.32601 32.4528C7.1787 32.5378 7.12858 32.7249 7.21364 32.8722C7.29869 33.0195 7.48573 33.0696 7.63304 32.9846L10.7001 31.2139C10.8474 31.1289 10.8975 30.9417 10.8124 30.7944C10.7593 30.7023 10.6663 30.6482 10.5681 30.6413ZM38.4329 30.6413C38.3347 30.6479 38.2416 30.7023 38.1885 30.7944C38.1034 30.9417 38.1535 31.1289 38.3008 31.2139L41.3679 32.9846C41.5152 33.0696 41.7023 33.0195 41.7874 32.8722C41.8725 32.7249 41.8223 32.5378 41.675 32.4528L38.6079 30.682C38.5526 30.6501 38.4919 30.6372 38.4329 30.6413ZM9.80309 33.2399C9.744 33.2421 9.68484 33.2611 9.6332 33.2986L8.42746 34.1735C8.28978 34.2734 8.25933 34.4646 8.35919 34.6023C8.45908 34.74 8.65032 34.7704 8.788 34.6705L9.99387 33.7956C10.1316 33.6958 10.162 33.5045 10.0621 33.3668C9.99971 33.2808 9.90152 33.2365 9.80309 33.2399ZM39.1905 33.2503C39.0921 33.2466 38.994 33.291 38.9315 33.3769C38.8315 33.5146 38.8618 33.7059 38.9995 33.8059L40.2047 34.6815C40.3423 34.7815 40.5335 34.7512 40.6335 34.6136C40.7335 34.4759 40.7032 34.2847 40.5656 34.1847L39.3604 33.3091C39.3089 33.2716 39.2496 33.2524 39.1905 33.2503ZM12.5339 33.3563C12.4556 33.3519 12.3756 33.378 12.3124 33.4349L9.67853 35.8025C9.55203 35.9162 9.54175 36.1096 9.65548 36.2361C9.76919 36.3626 9.96255 36.3728 10.0891 36.2591L12.7229 33.8915C12.8494 33.7778 12.8597 33.5844 12.746 33.4579C12.6891 33.3947 12.6123 33.3604 12.5339 33.3563ZM36.4597 33.3647C36.3813 33.3691 36.3044 33.403 36.2475 33.4662C36.1337 33.5927 36.1439 33.786 36.2703 33.8998L38.9024 36.2693C39.0288 36.3831 39.2223 36.3729 39.3361 36.2465C39.4499 36.1201 39.4398 35.9268 39.3134 35.813L36.6811 33.4435C36.6179 33.3866 36.5381 33.3606 36.4597 33.3647ZM15.0326 35.614C14.9342 35.6104 14.836 35.6544 14.7734 35.7404L12.69 38.6043C12.59 38.7419 12.6201 38.9332 12.7576 39.0333C12.8951 39.1333 13.0865 39.1032 13.1865 38.9657L15.2699 36.1018C15.37 35.9642 15.3399 35.7729 15.2024 35.6728C15.1508 35.6353 15.0917 35.6161 15.0326 35.614ZM33.9512 35.6269C33.8921 35.6291 33.833 35.6479 33.7813 35.6854C33.6436 35.7853 33.6132 35.9766 33.713 36.1143L35.7926 38.9809C35.8925 39.1186 36.0837 39.1491 36.2214 39.0492C36.3591 38.9493 36.3895 38.7581 36.2897 38.6204L34.2101 35.7537C34.1477 35.6677 34.0496 35.6235 33.9512 35.6269ZM12.3431 36.0692C12.2647 36.0736 12.1879 36.1075 12.131 36.1707L11.1342 37.2777C11.0204 37.4041 11.0304 37.5976 11.1569 37.7114C11.2833 37.8253 11.4766 37.8151 11.5905 37.6886L12.5873 36.5816C12.7012 36.4552 12.691 36.2617 12.5646 36.1479C12.5013 36.091 12.4215 36.0651 12.3431 36.0692ZM36.6559 36.0707C36.5776 36.0663 36.4977 36.0925 36.4345 36.1494C36.3081 36.2632 36.2979 36.4565 36.4117 36.583L37.4083 37.6902C37.5221 37.8167 37.7155 37.8268 37.8419 37.713C37.9683 37.5992 37.9785 37.4057 37.8647 37.2793L36.868 36.1721C36.8111 36.1089 36.7343 36.0748 36.6559 36.0707ZM17.9419 37.2988C17.8223 37.2959 17.7077 37.3644 17.6557 37.4809L16.2128 40.7151C16.1435 40.8705 16.2127 41.0513 16.3681 41.1206C16.5234 41.1899 16.7043 41.1207 16.7736 40.9653L18.2165 37.731C18.2858 37.5757 18.2166 37.3949 18.0612 37.3256C18.0224 37.3082 17.9818 37.2996 17.9419 37.2988ZM31.0395 37.3077C30.9996 37.3084 30.9591 37.317 30.9202 37.3343C30.7649 37.4034 30.6953 37.5841 30.7644 37.7395L32.2028 40.9758C32.2719 41.1311 32.4527 41.2007 32.6082 41.1316C32.7635 41.0625 32.8331 40.8818 32.764 40.7264L31.3256 37.4901C31.2738 37.3736 31.1591 37.3054 31.0395 37.3077ZM15.4064 38.2988C15.3082 38.3053 15.2152 38.3597 15.1621 38.4518L14.4172 39.742C14.3322 39.8893 14.3823 40.0763 14.5296 40.1614C14.6769 40.2464 14.8639 40.1963 14.949 40.049L15.6939 38.7588C15.7789 38.6115 15.7288 38.4245 15.5815 38.3394C15.5263 38.3076 15.4654 38.2947 15.4064 38.2988ZM33.5945 38.2988C33.5355 38.2944 33.4748 38.3076 33.4196 38.3395C33.2722 38.4245 33.2221 38.6116 33.3072 38.7589L34.052 40.049C34.1371 40.1963 34.3241 40.2464 34.4714 40.1614C34.6188 40.0763 34.6689 39.8893 34.5838 39.742L33.839 38.4518C33.7858 38.3598 33.6927 38.3056 33.5945 38.2988ZM21.1542 38.345C21.0112 38.3435 20.883 38.4427 20.8521 38.5883L20.1161 42.0526C20.0807 42.219 20.1863 42.3814 20.3526 42.4167C20.519 42.4521 20.6814 42.3466 20.7168 42.1802L21.4528 38.7159C21.4881 38.5495 21.3826 38.3871 21.2162 38.3518C21.1954 38.3474 21.1746 38.345 21.1542 38.345ZM27.8358 38.3472C27.8154 38.3474 27.7948 38.3494 27.774 38.3538C27.6076 38.389 27.5019 38.5512 27.5372 38.7176L28.2706 42.1825C28.3059 42.3489 28.4682 42.4545 28.6346 42.4193C28.8011 42.384 28.9067 42.2217 28.8714 42.0553L28.1378 38.5907C28.107 38.4451 27.9789 38.3461 27.8358 38.3472ZM24.5005 38.6966C24.3304 38.6966 24.1934 38.8336 24.1934 39.0037V42.5452C24.1934 42.7153 24.3304 42.8523 24.5005 42.8523C24.6706 42.8523 24.8075 42.7153 24.8075 42.5452V39.0037C24.8075 38.8336 24.6706 38.6966 24.5005 38.6966ZM18.8644 39.841C18.7451 39.8512 18.6381 39.9309 18.5987 40.0522L18.1382 41.4691C18.0856 41.6309 18.1735 41.8034 18.3353 41.856C18.497 41.9086 18.6696 41.8206 18.7222 41.6588L19.1827 40.2421C19.2353 40.0804 19.1474 39.9078 18.9856 39.8552C18.9452 39.8421 18.9041 39.8377 18.8644 39.841ZM30.1341 39.8418C30.0944 39.8381 30.0533 39.8425 30.0129 39.8558C29.8511 39.9084 29.7632 40.081 29.8157 40.2428L30.2761 41.6596C30.3287 41.8214 30.5012 41.9092 30.663 41.8567C30.8248 41.8041 30.9128 41.6316 30.8602 41.4698L30.3997 40.053C30.3602 39.9317 30.2534 39.8519 30.1341 39.8418ZM22.5732 40.6309C22.4308 40.6446 22.3135 40.7564 22.2979 40.9044L22.1422 42.386C22.1244 42.5552 22.2463 42.7056 22.4155 42.7234C22.5847 42.7412 22.7352 42.6193 22.753 42.4501L22.9087 40.9686C22.9265 40.7995 22.8046 40.6489 22.6355 40.6311C22.6143 40.6289 22.5935 40.6289 22.5732 40.6309ZM26.4154 40.6323C26.3951 40.6301 26.3741 40.6301 26.353 40.6326C26.1838 40.6502 26.0618 40.8006 26.0795 40.9698L26.2342 42.4516C26.2519 42.6208 26.4023 42.7426 26.5715 42.725C26.7407 42.7073 26.8627 42.5569 26.845 42.3877L26.6903 40.9061C26.6749 40.758 26.5578 40.6462 26.4154 40.6323Z" fill="#F4F2F3"/>
<g opacity="0.409" filter="url(#filter1_f_2001_4838)">
<path d="M38.8904 10.6094L22.0919 20.3693L11.4707 37.0901L27.0086 25.5813L38.8904 10.6094Z" fill="black"/>
</g>
<path d="M26.9078 25.4125L22.0928 20.37L39.1734 8.87988L26.9078 25.4125Z" fill="#FF5150"/>
<path d="M26.9078 25.4125L22.0928 20.3701L9.82715 36.9027L26.9078 25.4125Z" fill="#F1F1F1"/>
<path opacity="0.243" d="M9.82715 36.9026L26.9078 25.4125L39.1734 8.87988L9.82715 36.9026Z" fill="black"/>
</g>
<defs>
<filter id="filter0_f_2001_4838" x="0.761245" y="1.83839" width="47.4795" height="45.8486" filterUnits="userSpaceOnUse" color-interpolation-filters="sRGB">
<feFlood flood-opacity="0" result="BackgroundImageFix"/>
<feBlend mode="normal" in="SourceGraphic" in2="BackgroundImageFix" result="shape"/>
<feGaussianBlur stdDeviation="0.864006" result="effect1_foregroundBlur_2001_4838"/>
</filter>
<filter id="filter1_f_2001_4838" x="10.9796" y="10.1182" width="28.4022" height="27.4628" filterUnits="userSpaceOnUse" color-interpolation-filters="sRGB">
<feFlood flood-opacity="0" result="BackgroundImageFix"/>
<feBlend mode="normal" in="SourceGraphic" in2="BackgroundImageFix" result="shape"/>
<feGaussianBlur stdDeviation="0.245574" result="effect1_foregroundBlur_2001_4838"/>
</filter>
<linearGradient id="paint0_linear_2001_4838" x1="24.4994" y1="45.7403" x2="24.4994" y2="0.0408958" gradientUnits="userSpaceOnUse">
<stop stop-color="#BDBDBD"/>
<stop offset="1" stop-color="white"/>
</linearGradient>
<radialGradient id="paint1_radial_2001_4838" cx="0" cy="0" r="1" gradientUnits="userSpaceOnUse" gradientTransform="translate(24.5948 19.8207) scale(22.8498 22.8498)">
<stop stop-color="#06C2E7"/>
<stop offset="0.25" stop-color="#0DB8EC"/>
<stop offset="0.5" stop-color="#12AEF1"/>
<stop offset="0.75" stop-color="#1F86F9"/>
<stop offset="1" stop-color="#107DDD"/>
</radialGradient>
<clipPath id="clip0_2001_4838">
<rect width="48.2641" height="48" fill="white" transform="translate(0.368164)"/>
</clipPath>
</defs>
</svg>
