<svg width="79" height="79" viewBox="0 0 79 79" fill="none" xmlns="http://www.w3.org/2000/svg">
<rect x="16.5645" width="64" height="64" rx="10.6667" transform="rotate(15 16.5645 0)" fill="#262728"/>
<rect x="17.0359" y="0.816497" width="62.6667" height="62.6667" rx="10" transform="rotate(15 17.0359 0.816497)" stroke="#C2CCF6" stroke-opacity="0.12" stroke-width="1.33333"/>
<path d="M45.901 31.617L46.7438 35.7354C46.8539 36.3032 47.3831 36.9558 47.9093 37.2072L51.0485 38.6281C53.0546 39.5383 53.1368 41.1892 51.2227 42.3052L47.973 44.1813C47.4342 44.4925 46.9652 45.264 46.9447 45.9073L46.8298 49.2723C46.7399 51.9261 45.1382 52.546 43.2879 50.6422L40.6998 47.9886C40.2357 47.5054 39.3085 47.2569 38.6649 47.4434L35.0968 48.4474C32.546 49.1581 31.4654 47.8333 32.7144 45.4901L34.2975 42.5185C34.5979 41.964 34.5775 41.0613 34.2698 40.5096L32.3936 37.2599C31.2905 35.3493 32.1871 33.9607 34.383 34.1626L37.8121 34.5017C38.3901 34.5599 39.178 34.2465 39.5573 33.8098L42.3464 30.6645C43.8403 28.9528 45.4374 29.3807 45.901 31.617Z" stroke="#A1D8EE" stroke-width="1.5" stroke-linecap="round" stroke-linejoin="round"/>
<path d="M36.4559 28.7961L28.7285 26.7256" stroke="#A1D8EE" stroke-width="1.5" stroke-linecap="round" stroke-linejoin="round"/>
<path d="M27.7609 45.7916L23.8972 44.7563" stroke="#A1D8EE" stroke-width="1.5" stroke-linecap="round" stroke-linejoin="round"/>
<path d="M27.6008 36.0861L26.3129 35.741" stroke="#A1D8EE" stroke-width="1.5" stroke-linecap="round" stroke-linejoin="round"/>
</svg>
