<svg width="49" height="48" viewBox="0 0 49 48" fill="none" xmlns="http://www.w3.org/2000/svg">
<g clip-path="url(#clip0_2001_4889)">
<path d="M45.2852 3.21472C40.9997 -1.07074 34.0265 -1.07162 29.7404 3.21236L29.7413 3.21325L22.9602 9.99556L26.0903 13.1251L32.8726 6.34132L32.872 6.34073C35.4329 3.78427 39.5959 3.78574 42.155 6.34486C44.7145 8.90398 44.7142 13.069 42.155 15.629L31.9782 25.8053C30.7385 27.0453 29.09 27.7282 27.3365 27.7282C25.583 27.7282 23.9343 27.0453 22.6946 25.8053L19.5645 28.9352C21.6405 31.0112 24.4009 32.1547 27.3368 32.1547C30.2728 32.1547 33.0332 31.0112 35.1083 28.9352L45.2855 18.7589C49.5701 14.4725 49.5701 7.4993 45.2852 3.21472Z" fill="white"/>
<path d="M16.1283 41.6574C13.5683 44.2159 9.40354 44.2153 6.84412 41.6559C4.28471 39.0959 4.28471 34.9303 6.84383 32.3705L17.0195 22.1949C19.5795 19.6352 23.7446 19.6352 26.304 22.1949L29.4344 19.065C25.1484 14.7793 18.1751 14.779 13.8897 19.065L3.7134 29.2407C-0.571181 33.5265 -0.571181 40.5 3.71369 44.786C5.85701 46.9291 8.67169 48.0006 11.487 48.0003C14.301 48.0003 17.1157 46.9294 19.2579 44.7875L19.2584 44.7872L26.0411 38.0028L22.9106 34.873L16.1283 41.6574Z" fill="white"/>
</g>
<defs>
<clipPath id="clip0_2001_4889">
<rect width="48" height="48" fill="white" transform="translate(0.5)"/>
</clipPath>
</defs>
</svg>
