<svg width="49" height="48" viewBox="0 0 49 48" fill="none" xmlns="http://www.w3.org/2000/svg">
<g clip-path="url(#clip0_2001_4885)">
<path d="M24.51 48.02C37.7703 48.02 48.52 37.2703 48.52 24.01C48.52 10.7496 37.7703 0 24.51 0C11.2496 0 0.5 10.7496 0.5 24.01C0.5 37.2703 11.2496 48.02 24.51 48.02Z" fill="url(#paint0_linear_2001_4885)"/>
<path fill-rule="evenodd" clip-rule="evenodd" d="M11.3554 23.7507C18.3525 20.712 23.0105 18.6928 25.3496 17.7132C32.0068 14.9344 33.4062 14.4546 34.3058 14.4346C34.5058 14.4346 34.9456 14.4746 35.2454 14.7145C35.4853 14.9144 35.5453 15.1743 35.5853 15.3742C35.6253 15.5741 35.6653 15.9939 35.6253 16.3138C35.2654 20.1122 33.7061 29.3284 32.9064 33.5666C32.5666 35.3658 31.9068 35.9656 31.2671 36.0256C29.8677 36.1455 28.8081 35.106 27.4687 34.2263C25.3496 32.8469 24.1701 31.9873 22.1109 30.6278C19.7319 29.0685 21.2713 28.2088 22.6307 26.8094C22.9905 26.4496 29.128 20.8519 29.2479 20.3521C29.2679 20.2921 29.2679 20.0522 29.128 19.9323C28.988 19.8123 28.7881 19.8523 28.6282 19.8923C28.4083 19.9323 25.0497 22.1713 18.5124 26.5895C17.5528 27.2492 16.6932 27.5691 15.9135 27.5491C15.0539 27.5291 13.4145 27.0693 12.1751 26.6695C10.6757 26.1897 9.47618 25.9298 9.57614 25.0901C9.63611 24.6503 10.2359 24.2105 11.3554 23.7507Z" fill="white"/>
</g>
<defs>
<linearGradient id="paint0_linear_2001_4885" x1="24.49" y1="0" x2="24.49" y2="47.6401" gradientUnits="userSpaceOnUse">
<stop stop-color="#2AABEE"/>
<stop offset="1" stop-color="#229ED9"/>
</linearGradient>
<clipPath id="clip0_2001_4885">
<rect width="48" height="48" fill="white" transform="translate(0.5)"/>
</clipPath>
</defs>
</svg>
