<svg width="49" height="48" viewBox="0 0 49 48" fill="none" xmlns="http://www.w3.org/2000/svg">
<g clip-path="url(#clip0_2001_4868)">
<path d="M0.5 23.04C0.5 12.1788 0.5 6.74826 3.87413 3.37413C7.24826 0 12.6788 0 23.54 0H25.46C36.3212 0 41.7517 0 45.1259 3.37413C48.5 6.74826 48.5 12.1788 48.5 23.04V24.96C48.5 35.8212 48.5 41.2517 45.1259 44.6259C41.7517 48 36.3212 48 25.46 48H23.54C12.6788 48 7.24826 48 3.87413 44.6259C0.5 41.2517 0.5 35.8212 0.5 24.96V23.04Z" fill="#0077FF"/>
<path d="M26.0405 34.5806C15.1005 34.5806 8.86059 27.0806 8.60059 14.6006H14.0806C14.2606 23.7606 18.3005 27.6406 21.5005 28.4406V14.6006H26.6607V22.5006C29.8207 22.1606 33.1403 18.5606 34.2603 14.6006H39.4204C38.5604 19.4806 34.9604 23.0806 32.4004 24.5606C34.9604 25.7606 39.0606 28.9006 40.6206 34.5806H34.9404C33.7204 30.7806 30.6807 27.8406 26.6607 27.4406V34.5806H26.0405Z" fill="white"/>
</g>
<defs>
<clipPath id="clip0_2001_4868">
<rect width="48" height="48" fill="white" transform="translate(0.5)"/>
</clipPath>
</defs>
</svg>
