<svg width="51" height="52" viewBox="0 0 51 52" fill="none" xmlns="http://www.w3.org/2000/svg">
<g filter="url(#filter0_f_2001_4872)">
<path d="M15.1639 41.8343L15.8623 42.2481C18.7956 43.9889 22.1589 44.9098 25.5887 44.9114H25.5959C36.1288 44.9114 44.7008 36.3412 44.7052 25.8077C44.7071 20.7033 42.7212 15.9032 39.1133 12.2924C37.3437 10.5117 35.2385 9.09968 32.9195 8.13805C30.6005 7.17643 28.1138 6.68433 25.6034 6.69023C15.0623 6.69023 6.48998 15.2595 6.48623 25.7924C6.48104 29.389 7.49388 32.9138 9.40764 35.959L9.86231 36.6815L7.93147 43.7305L15.1639 41.8343ZM2.41113 49.1915L5.67315 37.2814C3.66138 33.796 2.603 29.8418 2.60425 25.7908C2.60956 13.1177 12.9228 2.80762 25.5962 2.80762C31.7462 2.81074 37.5187 5.20406 41.86 9.54852C46.2014 13.893 48.59 19.6677 48.5878 25.8092C48.5822 38.4814 38.2674 48.7934 25.5959 48.7934H25.5859C21.7383 48.7918 17.9575 47.8265 14.5992 45.9954L2.41113 49.1915Z" fill="#B3B3B3"/>
</g>
<path d="M2.1748 48.9551L5.43682 37.0451C3.42159 33.5513 2.36305 29.5879 2.36792 25.5545C2.37323 12.8814 12.6864 2.57129 25.3598 2.57129C31.5098 2.57441 37.2823 4.96773 41.6237 9.31219C45.965 13.6567 48.3536 19.4314 48.3515 25.5729C48.3458 38.2451 38.0311 48.557 25.3595 48.557H25.3495C21.5019 48.5555 17.7212 47.5902 14.3629 45.759L2.1748 48.9551Z" fill="white"/>
<path d="M25.3671 6.45415C14.8261 6.45415 6.25377 15.0234 6.25002 25.5563C6.24483 29.153 7.25766 32.6777 9.17143 35.7229L9.62609 36.4457L7.69526 43.4947L14.928 41.5983L15.6264 42.012C18.5597 43.7528 21.923 44.6734 25.3528 44.6753H25.36C35.8928 44.6753 44.4652 36.1051 44.4693 25.5716C44.4772 23.061 43.9871 20.5737 43.0272 18.2538C42.0674 15.9339 40.6569 13.8274 38.8774 12.0564C37.1078 10.2756 35.0025 8.86354 32.6834 7.90192C30.3644 6.9403 27.8777 6.44821 25.3671 6.45415Z" fill="url(#paint0_linear_2001_4872)"/>
<path fill-rule="evenodd" clip-rule="evenodd" d="M19.6133 15.9453C19.1827 14.9888 18.7296 14.9695 18.3206 14.9529L17.2194 14.9395C16.8363 14.9395 16.2138 15.0832 15.6876 15.6582C15.1614 16.2331 13.6768 17.6228 13.6768 20.4492C13.6768 23.2756 15.7354 26.0067 16.0223 26.3904C16.3091 26.7741 19.9964 32.7592 25.8358 35.0618C30.6884 36.9755 31.6758 36.5949 32.7295 36.4993C33.7832 36.4036 36.1284 35.1097 36.6068 33.7682C37.0852 32.4267 37.0855 31.2774 36.9421 31.0371C36.7987 30.7968 36.4156 30.6539 35.8406 30.3665C35.2656 30.079 32.4417 28.6894 31.9152 28.4975C31.3886 28.3056 31.0059 28.2103 30.6224 28.7853C30.239 29.3603 29.1394 30.6536 28.8041 31.0371C28.4688 31.4205 28.1341 31.4686 27.5592 31.1814C26.9842 30.8942 25.1343 30.2874 22.9394 28.3303C21.2317 26.8076 20.0789 24.9271 19.7433 24.3524C19.4077 23.7777 19.7077 23.4665 19.9958 23.1803C20.2536 22.9228 20.5701 22.5094 20.8579 22.1741C21.1457 21.8388 21.2404 21.5991 21.4317 21.2163C21.6229 20.8335 21.5276 20.4973 21.3839 20.2101C21.2401 19.9229 20.1239 17.0815 19.6133 15.9453Z" fill="white"/>
<defs>
<filter id="filter0_f_2001_4872" x="0.204373" y="0.600857" width="50.5903" height="50.7973" filterUnits="userSpaceOnUse" color-interpolation-filters="sRGB">
<feFlood flood-opacity="0" result="BackgroundImageFix"/>
<feBlend mode="normal" in="SourceGraphic" in2="BackgroundImageFix" result="shape"/>
<feGaussianBlur stdDeviation="1.10338" result="effect1_foregroundBlur_2001_4872"/>
</filter>
<linearGradient id="paint0_linear_2001_4872" x1="24.9706" y1="8.74779" x2="25.1643" y2="41.4101" gradientUnits="userSpaceOnUse">
<stop stop-color="#57D163"/>
<stop offset="1" stop-color="#23B33A"/>
</linearGradient>
</defs>
</svg>
